SkeenaIndigenous-Regular.ufo
<glyph name="exclam" format="2">
  <advance width="541"/>
  <unicode hex="0021"/>
  <outline>
    <contour>
      <point x="222" y="368" type="line"/>
      <point x="337" y="368" type="line"/>
      <point x="380" y="1331" type="line"/>
      <point x="179" y="1300" type="line"/>
    </contour>
    <contour>
      <point x="275" y="-23" type="curve" smooth="yes"/>
      <point x="351" y="-23"/>
      <point x="399" y="26"/>
      <point x="399" y="101" type="curve" smooth="yes"/>
      <point x="399" y="174"/>
      <point x="355" y="218"/>
      <point x="282" y="218" type="curve" smooth="yes"/>
      <point x="206" y="218"/>
      <point x="160" y="171"/>
      <point x="160" y="95" type="curve" smooth="yes"/>
      <point x="160" y="22"/>
      <point x="203" y="-23"/>
    </contour>
  </outline>
  <guideline angle="8.96176" x="0" y="1249.19"/>
</glyph>
<glyph name="numbersign" format="2">
  <advance width="1044"/>
  <unicode hex="0023"/>
  <outline>
    <contour>
      <point x="171" y="0" type="line"/>
      <point x="311" y="0" type="line"/>
      <point x="470" y="1106" type="line"/>
      <point x="331" y="1106" type="line"/>
    </contour>
    <contour>
      <point x="556" y="0" type="line"/>
      <point x="696" y="0" type="line"/>
      <point x="855" y="1106" type="line"/>
      <point x="716" y="1106" type="line"/>
    </contour>
    <contour>
      <point x="41" y="304" type="line"/>
      <point x="913" y="304" type="line"/>
      <point x="929" y="421" type="line"/>
      <point x="58" y="421" type="line"/>
    </contour>
    <contour>
      <point x="96" y="686" type="line"/>
      <point x="968" y="686" type="line"/>
      <point x="984" y="803" type="line"/>
      <point x="113" y="803" type="line"/>
    </contour>
  </outline>
  <guideline angle="0" x="0" y="553"/>
  <guideline angle="81.8001" x="45.8252" y="0"/>
</glyph>
<glyph name="dollar" format="2">
  <advance width="960"/>
  <unicode hex="0024"/>
  <outline>
    <contour>
      <point x="98" y="135" type="curve"/>
      <point x="64" y="276" type="line"/>
      <point x="71" y="282" type="line"/>
      <point x="202" y="191"/>
      <point x="319" y="149"/>
      <point x="440" y="149" type="curve" smooth="yes"/>
      <point x="606" y="149"/>
      <point x="714" y="231"/>
      <point x="714" y="359" type="curve" smooth="yes"/>
      <point x="714" y="452"/>
      <point x="664" y="509"/>
      <point x="522" y="579" type="curve"/>
      <point x="522" y="762" type="line"/>
      <point x="539" y="755" type="line" smooth="yes"/>
      <point x="799" y="648"/>
      <point x="887" y="547"/>
      <point x="887" y="376" type="curve" smooth="yes"/>
      <point x="887" y="161"/>
      <point x="721" y="20"/>
      <point x="467" y="20" type="curve" smooth="yes"/>
      <point x="341" y="20"/>
      <point x="186" y="68"/>
    </contour>
    <contour>
      <point x="821" y="1103" type="line"/>
      <point x="719" y="1151"/>
      <point x="634" y="1172"/>
      <point x="542" y="1172" type="curve" smooth="yes"/>
      <point x="369" y="1172"/>
      <point x="260" y="1098"/>
      <point x="260" y="981" type="curve" smooth="yes"/>
      <point x="260" y="897"/>
      <point x="312" y="843"/>
      <point x="456" y="778" type="curve"/>
      <point x="456" y="595" type="line"/>
      <point x="419" y="610" type="line" smooth="yes"/>
      <point x="193" y="702"/>
      <point x="92" y="797"/>
      <point x="92" y="965" type="curve" smooth="yes"/>
      <point x="92" y="1171"/>
      <point x="257" y="1299"/>
      <point x="522" y="1299" type="curve" smooth="yes"/>
      <point x="635" y="1299"/>
      <point x="745" y="1275"/>
      <point x="821" y="1235" type="curve"/>
    </contour>
    <contour>
      <point x="426" y="-122" type="line"/>
      <point x="426" y="1421" type="line"/>
      <point x="552" y="1421" type="line"/>
      <point x="552" y="-103" type="line"/>
    </contour>
  </outline>
  <guideline angle="90" x="825" y="0"/>
  <guideline angle="0" x="0" y="670"/>
</glyph>
<glyph name="ampersand" format="2">
  <advance width="1272"/>
  <unicode hex="0026"/>
  <anchor x="593" y="0" name="bottom"/>
  <anchor x="585" y="1314" name="top"/>
  <outline>
    <contour>
      <point x="1094" y="-14" type="curve" smooth="yes"/>
      <point x="1147" y="-14"/>
      <point x="1201" y="3"/>
      <point x="1247" y="33" type="curve"/>
      <point x="1275" y="142" type="line"/>
      <point x="1268" y="148" type="line"/>
      <point x="1222" y="127"/>
      <point x="1181" y="116"/>
      <point x="1147" y="116" type="curve" smooth="yes"/>
      <point x="1016" y="116"/>
      <point x="937" y="264"/>
      <point x="676" y="557" type="curve" smooth="yes"/>
      <point x="624" y="616" type="line" smooth="yes"/>
      <point x="462" y="797"/>
      <point x="381" y="884"/>
      <point x="381" y="1007" type="curve" smooth="yes"/>
      <point x="381" y="1134"/>
      <point x="469" y="1209"/>
      <point x="583" y="1209" type="curve" smooth="yes"/>
      <point x="689" y="1209"/>
      <point x="769" y="1143"/>
      <point x="769" y="1022" type="curve" smooth="yes"/>
      <point x="769" y="929"/>
      <point x="721" y="850"/>
      <point x="698" y="814" type="curve"/>
      <point x="846" y="814" type="line"/>
      <point x="867" y="844"/>
      <point x="919" y="935"/>
      <point x="919" y="1044" type="curve" smooth="yes"/>
      <point x="919" y="1228"/>
      <point x="778" y="1338"/>
      <point x="585" y="1338" type="curve" smooth="yes"/>
      <point x="357" y="1338"/>
      <point x="211" y="1184"/>
      <point x="211" y="1001" type="curve" smooth="yes"/>
      <point x="211" y="865"/>
      <point x="273" y="751"/>
      <point x="523" y="484" type="curve" smooth="yes"/>
      <point x="554" y="451" type="line" smooth="yes"/>
      <point x="768" y="216"/>
      <point x="899" y="-14"/>
    </contour>
    <contour>
      <point x="520" y="-24" type="curve" smooth="yes"/>
      <point x="666" y="-24"/>
      <point x="791" y="20"/>
      <point x="892" y="107" type="curve"/>
      <point x="801" y="208" type="line"/>
      <point x="728" y="139"/>
      <point x="637" y="102"/>
      <point x="539" y="102" type="curve" smooth="yes"/>
      <point x="374" y="102"/>
      <point x="258" y="212"/>
      <point x="258" y="368" type="curve" smooth="yes"/>
      <point x="258" y="482"/>
      <point x="321" y="592"/>
      <point x="418" y="648" type="curve"/>
      <point x="341" y="739" type="line"/>
      <point x="167" y="634"/>
      <point x="78" y="502"/>
      <point x="78" y="350" type="curve" smooth="yes"/>
      <point x="78" y="128"/>
      <point x="257" y="-24"/>
    </contour>
    <contour>
      <point x="963" y="174" type="line"/>
      <point x="1068" y="302"/>
      <point x="1130" y="460"/>
      <point x="1147" y="670" type="curve"/>
      <point x="989" y="670" type="line"/>
      <point x="974" y="515"/>
      <point x="935" y="381"/>
      <point x="866" y="279" type="curve"/>
    </contour>
  </outline>
  <guideline angle="0" x="0" y="670"/>
  <guideline angle="0" x="0" y="814"/>
</glyph>
<glyph name="quotesingle" format="2">
  <advance width="305"/>
  <unicode hex="0027"/>
  <outline>
    <contour>
      <point x="104" y="855" type="line"/>
      <point x="201" y="855" type="line"/>
      <point x="241" y="1329" type="line"/>
      <point x="69" y="1302" type="line"/>
    </contour>
  </outline>
</glyph>
<glyph name="parenleft" format="2">
  <advance width="682"/>
  <unicode hex="0028"/>
  <outline>
    <contour>
      <point x="512" y="-370" type="line"/>
      <point x="257" y="-105"/>
      <point x="128" y="186"/>
      <point x="128" y="497" type="curve" smooth="yes"/>
      <point x="128" y="809"/>
      <point x="257" y="1101"/>
      <point x="512" y="1366" type="curve"/>
      <point x="627" y="1342" type="line"/>
      <point x="414" y="1078"/>
      <point x="306" y="794"/>
      <point x="306" y="497" type="curve" smooth="yes"/>
      <point x="306" y="201"/>
      <point x="414" y="-82"/>
      <point x="627" y="-346" type="curve"/>
    </contour>
  </outline>
</glyph>
<glyph name="parenright" format="2">
  <advance width="682"/>
  <unicode hex="0029"/>
  <outline>
    <contour>
      <point x="55" y="-346" type="line"/>
      <point x="268" y="-82"/>
      <point x="376" y="201"/>
      <point x="376" y="497" type="curve" smooth="yes"/>
      <point x="376" y="794"/>
      <point x="268" y="1078"/>
      <point x="55" y="1342" type="curve"/>
      <point x="170" y="1366" type="line"/>
      <point x="425" y="1101"/>
      <point x="554" y="809"/>
      <point x="554" y="497" type="curve" smooth="yes"/>
      <point x="554" y="186"/>
      <point x="425" y="-105"/>
      <point x="170" y="-370" type="curve"/>
    </contour>
  </outline>
</glyph>
<glyph name="asterisk" format="2">
  <advance width="847"/>
  <unicode hex="002A"/>
  <outline>
    <contour>
      <point x="288" y="1306" type="line"/>
      <point x="401" y="970" type="line"/>
      <point x="456" y="979" type="line"/>
      <point x="461" y="1333" type="line"/>
    </contour>
    <contour>
      <point x="73" y="947" type="line"/>
      <point x="427" y="951" type="line"/>
      <point x="436" y="1005" type="line"/>
      <point x="101" y="1120" type="line"/>
    </contour>
    <contour>
      <point x="349" y="632" type="line"/>
      <point x="454" y="971" type="line"/>
      <point x="405" y="995" type="line"/>
      <point x="192" y="712" type="line"/>
    </contour>
    <contour>
      <point x="732" y="798" type="line"/>
      <point x="445" y="1002" type="line"/>
      <point x="405" y="963" type="line"/>
      <point x="609" y="673" type="line"/>
    </contour>
    <contour>
      <point x="694" y="1213" type="line"/>
      <point x="412" y="1002" type="line"/>
      <point x="435" y="952" type="line"/>
      <point x="774" y="1058" type="line"/>
    </contour>
  </outline>
  <guideline angle="90" x="428" y="0"/>
</glyph>
<glyph name="plus" format="2">
  <advance width="1118"/>
  <unicode hex="002B"/>
  <outline>
    <contour>
      <point x="492" y="0" type="line"/>
      <point x="492" y="946" type="line"/>
      <point x="626" y="946" type="line"/>
      <point x="626" y="0" type="line"/>
    </contour>
    <contour>
      <point x="86" y="408" type="line"/>
      <point x="86" y="538" type="line"/>
      <point x="1032" y="538" type="line"/>
      <point x="1032" y="408" type="line"/>
    </contour>
  </outline>
  <guideline angle="0" x="0" y="576"/>
  <guideline angle="90" x="607" y="0"/>
</glyph>
<glyph name="comma" format="2">
  <advance width="440"/>
  <unicode hex="002C"/>
  <outline>
    <contour>
      <point x="125" y="-251" type="line"/>
      <point x="266" y="-203"/>
      <point x="346" y="-94"/>
      <point x="346" y="47" type="curve" smooth="yes"/>
      <point x="346" y="156"/>
      <point x="297" y="218"/>
      <point x="211" y="218" type="curve" smooth="yes"/>
      <point x="134" y="218"/>
      <point x="83" y="170"/>
      <point x="83" y="98" type="curve" smooth="yes"/>
      <point x="83" y="31"/>
      <point x="128" y="-14"/>
      <point x="195" y="-14" type="curve" smooth="yes"/>
      <point x="235" y="-14"/>
      <point x="266" y="2"/>
      <point x="288" y="35" type="curve"/>
      <point x="222" y="8" type="line"/>
      <point x="222" y="-84"/>
      <point x="178" y="-140"/>
      <point x="82" y="-173" type="curve"/>
    </contour>
  </outline>
  <guideline angle="90" x="84" y="0"/>
  <guideline angle="285.154" x="-221" y="953"/>
</glyph>
<glyph name="hyphen" format="2">
  <advance width="692"/>
  <unicode hex="002D"/>
  <outline>
    <contour>
      <point x="72" y="415" type="line"/>
      <point x="83" y="557" type="line"/>
      <point x="620" y="557" type="line"/>
      <point x="609" y="415" type="line"/>
    </contour>
  </outline>
</glyph>
<glyph name="period" format="2">
  <advance width="440"/>
  <unicode hex="002E"/>
  <outline>
    <contour>
      <point x="215" y="-23" type="curve" smooth="yes"/>
      <point x="144" y="-23"/>
      <point x="101" y="21"/>
      <point x="101" y="95" type="curve" smooth="yes"/>
      <point x="101" y="171"/>
      <point x="147" y="218"/>
      <point x="223" y="218" type="curve" smooth="yes"/>
      <point x="296" y="218"/>
      <point x="339" y="174"/>
      <point x="339" y="101" type="curve" smooth="yes"/>
      <point x="339" y="26"/>
      <point x="291" y="-23"/>
    </contour>
  </outline>
</glyph>
<glyph name="slash" format="2">
  <advance width="721"/>
  <unicode hex="002F"/>
  <outline>
    <contour>
      <point x="13" y="-209" type="line"/>
      <point x="515" y="1414" type="line"/>
      <point x="679" y="1414" type="line"/>
      <point x="177" y="-209" type="line"/>
    </contour>
  </outline>
</glyph>
<glyph name="zero" format="2">
  <advance width="1118"/>
  <unicode hex="0030"/>
  <anchor x="547" y="0" name="bottom"/>
  <anchor x="565" y="1314" name="top"/>
  <outline>
    <contour>
      <point x="547" y="-24" type="curve" smooth="yes"/>
      <point x="251" y="-24"/>
      <point x="85" y="218"/>
      <point x="85" y="651" type="curve" smooth="yes"/>
      <point x="85" y="1089"/>
      <point x="259" y="1338"/>
      <point x="565" y="1338" type="curve" smooth="yes"/>
      <point x="864" y="1338"/>
      <point x="1033" y="1098"/>
      <point x="1033" y="672" type="curve" smooth="yes"/>
      <point x="1033" y="233"/>
      <point x="853" y="-24"/>
    </contour>
    <contour>
      <point x="555" y="101" type="curve" smooth="yes"/>
      <point x="750" y="101"/>
      <point x="847" y="289"/>
      <point x="847" y="667" type="curve" smooth="yes"/>
      <point x="847" y="1039"/>
      <point x="755" y="1213"/>
      <point x="558" y="1213" type="curve" smooth="yes"/>
      <point x="362" y="1213"/>
      <point x="271" y="1038"/>
      <point x="271" y="661" type="curve" smooth="yes"/>
      <point x="271" y="282"/>
      <point x="363" y="101"/>
    </contour>
  </outline>
</glyph>
<glyph name="one" format="2">
  <advance width="1118"/>
  <unicode hex="0031"/>
  <anchor x="640" y="0" name="bottom"/>
  <anchor x="611" y="1314" name="top"/>
  <outline>
    <contour>
      <point x="551" y="0" type="line"/>
      <point x="551" y="1113" type="line"/>
      <point x="463" y="1051"/>
      <point x="347" y="993"/>
      <point x="234" y="952" type="curve"/>
      <point x="225" y="958" type="line"/>
      <point x="225" y="1067" type="line"/>
      <point x="339" y="1127"/>
      <point x="450" y="1204"/>
      <point x="582" y="1314" type="curve"/>
      <point x="725" y="1314" type="line"/>
      <point x="725" y="0" type="line"/>
    </contour>
  </outline>
  <guideline angle="114.915" x="572.815" y="0"/>
</glyph>
<glyph name="two" format="2">
  <advance width="1118"/>
  <unicode hex="0032"/>
  <anchor x="540" y="0" name="bottom"/>
  <anchor x="543" y="1314" name="top"/>
  <anchor x="1078" y="1314" name="topright"/>
  <outline>
    <contour>
      <point x="105" y="0" type="line"/>
      <point x="952" y="0" type="line"/>
      <point x="971" y="134" type="line"/>
      <point x="212" y="134" type="line"/>
      <point x="303" y="93" type="line"/>
      <point x="303" y="141" type="line"/>
      <point x="759" y="556"/>
      <point x="946" y="720"/>
      <point x="946" y="967" type="curve" smooth="yes"/>
      <point x="946" y="1194"/>
      <point x="782" y="1338"/>
      <point x="521" y="1338" type="curve" smooth="yes"/>
      <point x="387" y="1338"/>
      <point x="239" y="1293"/>
      <point x="145" y="1214" type="curve"/>
      <point x="145" y="1082" type="line"/>
      <point x="248" y="1162"/>
      <point x="376" y="1208"/>
      <point x="493" y="1208" type="curve" smooth="yes"/>
      <point x="666" y="1208"/>
      <point x="760" y="1117"/>
      <point x="760" y="952" type="curve" smooth="yes"/>
      <point x="760" y="779"/>
      <point x="644" y="632"/>
      <point x="105" y="120" type="curve"/>
    </contour>
  </outline>
  <guideline angle="90" x="124" y="0"/>
</glyph>
<glyph name="three" format="2">
  <advance width="1118"/>
  <unicode hex="0033"/>
  <anchor x="521" y="0" name="bottom"/>
  <anchor x="525" y="1314" name="top"/>
  <outline>
    <contour>
      <point x="130" y="79" type="curve"/>
      <point x="101" y="196" type="line"/>
      <point x="108" y="204" type="line"/>
      <point x="223" y="139"/>
      <point x="335" y="108"/>
      <point x="458" y="108" type="curve" smooth="yes"/>
      <point x="676" y="108"/>
      <point x="805" y="206"/>
      <point x="805" y="371" type="curve" smooth="yes"/>
      <point x="805" y="535"/>
      <point x="676" y="619"/>
      <point x="423" y="619" type="curve" smooth="yes"/>
      <point x="377" y="619"/>
      <point x="319" y="617"/>
      <point x="280" y="613" type="curve"/>
      <point x="280" y="748" type="line"/>
      <point x="320" y="746"/>
      <point x="371" y="746"/>
      <point x="396" y="746" type="curve" smooth="yes"/>
      <point x="634" y="746"/>
      <point x="758" y="828"/>
      <point x="758" y="984" type="curve" smooth="yes"/>
      <point x="758" y="1126"/>
      <point x="656" y="1209"/>
      <point x="480" y="1209" type="curve" smooth="yes"/>
      <point x="379" y="1209"/>
      <point x="258" y="1180"/>
      <point x="159" y="1133" type="curve"/>
      <point x="159" y="1262" type="line"/>
      <point x="258" y="1312"/>
      <point x="377" y="1338"/>
      <point x="500" y="1338" type="curve" smooth="yes"/>
      <point x="770" y="1338"/>
      <point x="938" y="1210"/>
      <point x="938" y="1004" type="curve" smooth="yes"/>
      <point x="938" y="854"/>
      <point x="851" y="753"/>
      <point x="678" y="702" type="curve"/>
      <point x="678" y="695" type="line"/>
      <point x="870" y="662"/>
      <point x="990" y="540"/>
      <point x="990" y="369" type="curve" smooth="yes"/>
      <point x="990" y="136"/>
      <point x="787" y="-24"/>
      <point x="491" y="-24" type="curve" smooth="yes"/>
      <point x="354" y="-24"/>
      <point x="224" y="12"/>
    </contour>
  </outline>
  <guideline angle="104.343" x="689.211" y="0"/>
  <guideline angle="90" x="1037" y="0"/>
</glyph>
<glyph name="four" format="2">
  <advance width="1118"/>
  <unicode hex="0034"/>
  <anchor x="690" y="0" name="bottom"/>
  <anchor x="690" y="1314" name="top"/>
  <anchor x="1088" y="1314" name="topright"/>
  <outline>
    <contour>
      <point x="37" y="328" type="line"/>
      <point x="1062" y="328" type="line"/>
      <point x="1081" y="462" type="line"/>
      <point x="202" y="462" type="line"/>
      <point x="202" y="469" type="line"/>
      <point x="666" y="1082" type="line"/>
      <point x="674" y="1082" type="line"/>
      <point x="669" y="1023"/>
      <point x="669" y="977"/>
      <point x="669" y="928" type="curve" smooth="yes"/>
      <point x="669" y="0" type="line"/>
      <point x="847" y="0" type="line"/>
      <point x="847" y="1314" type="line"/>
      <point x="690" y="1314" type="line"/>
      <point x="37" y="445" type="line"/>
    </contour>
  </outline>
  <guideline angle="76.396" x="1039.32" y="0"/>
</glyph>
<glyph name="five" format="2">
  <advance width="1118"/>
  <unicode hex="0035"/>
  <anchor x="508" y="0" name="bottom"/>
  <anchor x="565" y="1314" name="top"/>
  <anchor x="1088" y="1314" name="topright"/>
  <outline>
    <contour>
      <point x="141" y="77" type="line"/>
      <point x="230" y="11"/>
      <point x="349" y="-24"/>
      <point x="483" y="-24" type="curve" smooth="yes"/>
      <point x="786" y="-24"/>
      <point x="981" y="147"/>
      <point x="981" y="411" type="curve" smooth="yes"/>
      <point x="981" y="669"/>
      <point x="788" y="816"/>
      <point x="488" y="816" type="curve" smooth="yes"/>
      <point x="421" y="816"/>
      <point x="355" y="808"/>
      <point x="294" y="794" type="curve"/>
      <point x="317" y="754" type="line"/>
      <point x="345" y="1225" type="line"/>
      <point x="262" y="1180" type="line"/>
      <point x="896" y="1180" type="line"/>
      <point x="896" y="1314" type="line"/>
      <point x="230" y="1314" type="line"/>
      <point x="193" y="669" type="line"/>
      <point x="208" y="659" type="line"/>
      <point x="284" y="676"/>
      <point x="365" y="686"/>
      <point x="436" y="686" type="curve" smooth="yes"/>
      <point x="669" y="686"/>
      <point x="796" y="586"/>
      <point x="796" y="402" type="curve" smooth="yes"/>
      <point x="796" y="216"/>
      <point x="670" y="108"/>
      <point x="452" y="108" type="curve" smooth="yes"/>
      <point x="336" y="108"/>
      <point x="229" y="139"/>
      <point x="117" y="204" type="curve"/>
      <point x="110" y="196" type="line"/>
    </contour>
  </outline>
</glyph>
<glyph name="six" format="2">
  <advance width="1118"/>
  <unicode hex="0036"/>
  <anchor x="580" y="0" name="bottom"/>
  <anchor x="610" y="1314" name="top"/>
  <outline>
    <contour>
      <point x="261" y="530" type="curve"/>
      <point x="261" y="662" type="line"/>
      <point x="311" y="707"/>
      <point x="419" y="810"/>
      <point x="620" y="810" type="curve" smooth="yes"/>
      <point x="867" y="810"/>
      <point x="1036" y="650"/>
      <point x="1036" y="417" type="curve" smooth="yes"/>
      <point x="1036" y="164"/>
      <point x="844" y="-24"/>
      <point x="587" y="-24" type="curve" smooth="yes"/>
      <point x="286" y="-24"/>
      <point x="105" y="214"/>
      <point x="105" y="611" type="curve" smooth="yes"/>
      <point x="105" y="1049"/>
      <point x="309" y="1338"/>
      <point x="649" y="1338" type="curve" smooth="yes"/>
      <point x="751" y="1338"/>
      <point x="869" y="1309"/>
      <point x="939" y="1266" type="curve"/>
      <point x="939" y="1132" type="line"/>
      <point x="845" y="1182"/>
      <point x="745" y="1210"/>
      <point x="661" y="1210" type="curve" smooth="yes"/>
      <point x="421" y="1210"/>
      <point x="291" y="1000"/>
      <point x="291" y="628" type="curve" smooth="yes"/>
      <point x="291" y="288"/>
      <point x="396" y="101"/>
      <point x="592" y="101" type="curve" smooth="yes"/>
      <point x="749" y="101"/>
      <point x="851" y="215"/>
      <point x="851" y="390" type="curve" smooth="yes"/>
      <point x="851" y="572"/>
      <point x="748" y="682"/>
      <point x="576" y="682" type="curve" smooth="yes"/>
      <point x="453" y="682"/>
      <point x="321" y="618"/>
    </contour>
  </outline>
  <guideline angle="0" x="0" y="628"/>
</glyph>
<glyph name="seven" format="2">
  <advance width="1118"/>
  <unicode hex="0037"/>
  <anchor x="428" y="0" name="bottom"/>
  <anchor x="558" y="1314" name="top"/>
  <anchor x="1138" y="1314" name="topright"/>
  <outline>
    <contour>
      <point x="317" y="0" type="curve"/>
      <point x="508" y="0" type="line"/>
      <point x="585" y="401"/>
      <point x="716" y="773"/>
      <point x="982" y="1193" type="curve"/>
      <point x="982" y="1314" type="line"/>
      <point x="122" y="1314" type="line"/>
      <point x="122" y="1180" type="line"/>
      <point x="875" y="1180" type="line"/>
      <point x="834" y="1215" type="line"/>
      <point x="834" y="1172" type="line"/>
      <point x="596" y="815"/>
      <point x="394" y="390"/>
    </contour>
  </outline>
  <guideline angle="66.8436" x="270.369" y="0"/>
</glyph>
<glyph name="eight" format="2">
  <advance width="1118"/>
  <unicode hex="0038"/>
  <anchor x="555" y="0" name="bottom"/>
  <anchor x="555" y="1314" name="top"/>
  <anchor x="1088" y="1314" name="topright"/>
  <outline>
    <contour>
      <point x="357" y="711" type="line"/>
      <point x="357" y="668" type="line"/>
      <point x="198" y="608"/>
      <point x="78" y="509"/>
      <point x="78" y="336" type="curve" smooth="yes"/>
      <point x="78" y="135"/>
      <point x="244" y="-24"/>
      <point x="550" y="-24" type="curve" smooth="yes"/>
      <point x="863" y="-24"/>
      <point x="1040" y="143"/>
      <point x="1040" y="364" type="curve" smooth="yes"/>
      <point x="1040" y="606"/>
      <point x="828" y="685"/>
      <point x="630" y="755" type="curve" smooth="yes"/>
      <point x="452" y="817"/>
      <point x="298" y="868"/>
      <point x="298" y="1009" type="curve" smooth="yes"/>
      <point x="298" y="1117"/>
      <point x="387" y="1212"/>
      <point x="556" y="1212" type="curve" smooth="yes"/>
      <point x="705" y="1212"/>
      <point x="810" y="1138"/>
      <point x="810" y="999" type="curve" smooth="yes"/>
      <point x="810" y="907"/>
      <point x="767" y="788"/>
      <point x="566" y="747" type="curve"/>
      <point x="757" y="673" type="line"/>
      <point x="757" y="714" type="line"/>
      <point x="886" y="763"/>
      <point x="990" y="860"/>
      <point x="990" y="1007" type="curve" smooth="yes"/>
      <point x="990" y="1196"/>
      <point x="813" y="1338"/>
      <point x="554" y="1338" type="curve" smooth="yes"/>
      <point x="302" y="1338"/>
      <point x="118" y="1204"/>
      <point x="118" y="987" type="curve" smooth="yes"/>
      <point x="118" y="750"/>
      <point x="338" y="677"/>
      <point x="532" y="609" type="curve" smooth="yes"/>
      <point x="714" y="545"/>
      <point x="857" y="491"/>
      <point x="857" y="342" type="curve" smooth="yes"/>
      <point x="857" y="213"/>
      <point x="750" y="102"/>
      <point x="551" y="102" type="curve" smooth="yes"/>
      <point x="369" y="102"/>
      <point x="261" y="194"/>
      <point x="261" y="349" type="curve" smooth="yes"/>
      <point x="261" y="452"/>
      <point x="306" y="586"/>
      <point x="540" y="638" type="curve"/>
    </contour>
  </outline>
</glyph>
<glyph name="nine" format="2">
  <advance width="1118"/>
  <unicode hex="0039"/>
  <anchor x="502" y="0" name="bottom"/>
  <anchor x="530" y="1314" name="top"/>
  <outline>
    <contour>
      <point x="154" y="77" type="curve"/>
      <point x="123" y="196" type="line"/>
      <point x="130" y="204" type="line"/>
      <point x="229" y="144"/>
      <point x="349" y="108"/>
      <point x="448" y="108" type="curve" smooth="yes"/>
      <point x="697" y="108"/>
      <point x="829" y="315"/>
      <point x="829" y="686" type="curve" smooth="yes"/>
      <point x="829" y="1026"/>
      <point x="716" y="1213"/>
      <point x="525" y="1213" type="curve" smooth="yes"/>
      <point x="370" y="1213"/>
      <point x="267" y="1097"/>
      <point x="267" y="922" type="curve" smooth="yes"/>
      <point x="267" y="742"/>
      <point x="372" y="632"/>
      <point x="543" y="632" type="curve" smooth="yes"/>
      <point x="666" y="632"/>
      <point x="802" y="694"/>
      <point x="859" y="780" type="curve"/>
      <point x="859" y="648" type="line"/>
      <point x="810" y="605"/>
      <point x="697" y="505"/>
      <point x="499" y="505" type="curve" smooth="yes"/>
      <point x="249" y="505"/>
      <point x="82" y="663"/>
      <point x="82" y="899" type="curve" smooth="yes"/>
      <point x="82" y="1154"/>
      <point x="268" y="1338"/>
      <point x="526" y="1338" type="curve" smooth="yes"/>
      <point x="828" y="1338"/>
      <point x="1013" y="1096"/>
      <point x="1013" y="703" type="curve" smooth="yes"/>
      <point x="1013" y="268"/>
      <point x="799" y="-24"/>
      <point x="479" y="-24" type="curve" smooth="yes"/>
      <point x="364" y="-24"/>
      <point x="234" y="16"/>
    </contour>
  </outline>
  <guideline angle="0" x="0" y="697"/>
</glyph>
<glyph name="less" format="2">
  <advance width="1118"/>
  <unicode hex="003C"/>
  <outline>
    <contour>
      <point x="86" y="417" type="line"/>
      <point x="86" y="529" type="line"/>
      <point x="960" y="928" type="line"/>
      <point x="1014" y="806" type="line"/>
      <point x="214" y="448" type="line"/>
      <point x="214" y="498" type="line"/>
      <point x="1014" y="140" type="line"/>
      <point x="960" y="18" type="line"/>
    </contour>
  </outline>
  <guideline angle="112.45" x="1350.93" y="0"/>
</glyph>
<glyph name="greater" format="2">
  <advance width="1118"/>
  <unicode hex="003E"/>
  <outline>
    <contour>
      <point x="158" y="18" type="line"/>
      <point x="104" y="140" type="line"/>
      <point x="905" y="498" type="line"/>
      <point x="905" y="448" type="line"/>
      <point x="104" y="806" type="line"/>
      <point x="158" y="928" type="line"/>
      <point x="1032" y="529" type="line"/>
      <point x="1032" y="417" type="line"/>
    </contour>
  </outline>
  <guideline angle="112.45" x="-251.122" y="0"/>
</glyph>
<glyph name="question" format="2">
  <advance width="862"/>
  <unicode hex="003F"/>
  <outline>
    <contour>
      <point x="302" y="368" type="line"/>
      <point x="297" y="402"/>
      <point x="294" y="432"/>
      <point x="294" y="458" type="curve" smooth="yes"/>
      <point x="294" y="577"/>
      <point x="334" y="652"/>
      <point x="456" y="749" type="curve" smooth="yes"/>
      <point x="571" y="840"/>
      <point x="601" y="891"/>
      <point x="601" y="984" type="curve" smooth="yes"/>
      <point x="601" y="1127"/>
      <point x="513" y="1208"/>
      <point x="360" y="1208" type="curve" smooth="yes"/>
      <point x="275" y="1208"/>
      <point x="179" y="1179"/>
      <point x="101" y="1130" type="curve"/>
      <point x="101" y="1259" type="line"/>
      <point x="187" y="1310"/>
      <point x="291" y="1338"/>
      <point x="393" y="1338" type="curve" smooth="yes"/>
      <point x="629" y="1338"/>
      <point x="780" y="1207"/>
      <point x="780" y="1004" type="curve" smooth="yes"/>
      <point x="780" y="861"/>
      <point x="718" y="786"/>
      <point x="592" y="685" type="curve" smooth="yes"/>
      <point x="485" y="600"/>
      <point x="414" y="545"/>
      <point x="414" y="411" type="curve" smooth="yes"/>
      <point x="414" y="398"/>
      <point x="415" y="381"/>
      <point x="416" y="368" type="curve"/>
    </contour>
    <contour>
      <point x="356" y="-23" type="curve" smooth="yes"/>
      <point x="284" y="-23"/>
      <point x="241" y="22"/>
      <point x="241" y="95" type="curve" smooth="yes"/>
      <point x="241" y="171"/>
      <point x="287" y="218"/>
      <point x="363" y="218" type="curve" smooth="yes"/>
      <point x="436" y="218"/>
      <point x="479" y="175"/>
      <point x="479" y="102" type="curve" smooth="yes"/>
      <point x="479" y="25"/>
      <point x="431" y="-23"/>
    </contour>
  </outline>
</glyph>
<glyph name="at" format="2">
  <advance width="1720"/>
  <unicode hex="0040"/>
  <outline>
    <contour>
      <point x="1038" y="203" type="line"/>
      <point x="995" y="103"/>
      <point x="891" y="37"/>
      <point x="776" y="37" type="curve" smooth="yes"/>
      <point x="582" y="37"/>
      <point x="448" y="194"/>
      <point x="448" y="423" type="curve" smooth="yes"/>
      <point x="448" y="695"/>
      <point x="626" y="897"/>
      <point x="867" y="897" type="curve" smooth="yes"/>
      <point x="945" y="897"/>
      <point x="998" y="882"/>
      <point x="1078" y="836" type="curve"/>
      <point x="1078" y="728" type="line"/>
      <point x="1021" y="765"/>
      <point x="958" y="785"/>
      <point x="896" y="785" type="curve" smooth="yes"/>
      <point x="730" y="785"/>
      <point x="623" y="637"/>
      <point x="623" y="426" type="curve" smooth="yes"/>
      <point x="623" y="257"/>
      <point x="700" y="152"/>
      <point x="824" y="152" type="curve" smooth="yes"/>
      <point x="912" y="152"/>
      <point x="984" y="209"/>
      <point x="1038" y="320" type="curve"/>
    </contour>
    <contour>
      <point x="1229" y="-225" type="line"/>
      <point x="1138" y="-279"/>
      <point x="1009" y="-309"/>
      <point x="863" y="-309" type="curve" smooth="yes"/>
      <point x="406" y="-309"/>
      <point x="101" y="-15"/>
      <point x="101" y="426" type="curve" smooth="yes"/>
      <point x="101" y="893"/>
      <point x="428" y="1227"/>
      <point x="884" y="1227" type="curve" smooth="yes"/>
      <point x="1317" y="1227"/>
      <point x="1619" y="937"/>
      <point x="1619" y="521" type="curve" smooth="yes"/>
      <point x="1619" y="214"/>
      <point x="1477" y="-1"/>
      <point x="1258" y="-1" type="curve" smooth="yes"/>
      <point x="1102" y="-1"/>
      <point x="1007" y="96"/>
      <point x="1007" y="254" type="curve" smooth="yes"/>
      <point x="1007" y="267"/>
      <point x="1008" y="281"/>
      <point x="1009" y="300" type="curve" smooth="yes"/>
      <point x="1042" y="771" type="line"/>
      <point x="1064" y="872" type="line"/>
      <point x="1219" y="872" type="line"/>
      <point x="1177" y="284" type="line" smooth="yes"/>
      <point x="1176" y="272"/>
      <point x="1176" y="262"/>
      <point x="1176" y="260" type="curve"/>
      <point x="1176" y="164"/>
      <point x="1212" y="113"/>
      <point x="1282" y="113" type="curve" smooth="yes"/>
      <point x="1406" y="113"/>
      <point x="1483" y="287"/>
      <point x="1483" y="518" type="curve" smooth="yes"/>
      <point x="1483" y="872"/>
      <point x="1235" y="1118"/>
      <point x="878" y="1118" type="curve" smooth="yes"/>
      <point x="504" y="1118"/>
      <point x="246" y="841"/>
      <point x="246" y="440" type="curve" smooth="yes"/>
      <point x="246" y="50"/>
      <point x="496" y="-201"/>
      <point x="882" y="-201" type="curve" smooth="yes"/>
      <point x="1018" y="-201"/>
      <point x="1142" y="-169"/>
      <point x="1252" y="-104" type="curve"/>
      <point x="1259" y="-111" type="line"/>
    </contour>
  </outline>
  <guideline angle="76.0015" color="1,0,0,1" x="1100.91" y="0"/>
  <guideline angle="90" x="413" y="0"/>
  <guideline angle="0" x="0" y="249"/>
</glyph>
<glyph name="A" format="2">
  <advance width="1206"/>
  <unicode hex="0041"/>
  <anchor x="603" y="0" name="bottom"/>
  <anchor x="607" y="1314" name="top"/>
  <anchor x="1096" y="1314" name="topright"/>
  <outline>
    <contour>
      <point x="15" y="0" type="line"/>
      <point x="181" y="0" type="line"/>
      <point x="587" y="1066" type="line"/>
      <point x="594" y="1066" type="line"/>
      <point x="989" y="0" type="line"/>
      <point x="1190" y="0" type="line"/>
      <point x="664" y="1314" type="line"/>
      <point x="545" y="1314" type="line"/>
    </contour>
    <contour>
      <point x="295" y="379" type="line"/>
      <point x="879" y="379" type="line"/>
      <point x="831" y="507" type="line"/>
      <point x="344" y="507" type="line"/>
    </contour>
  </outline>
  <guideline angle="111.91" x="1190.54" y="0"/>
  <guideline angle="68.09" x="9.165" y="0"/>
  <guideline angle="0" x="0" y="389"/>
</glyph>
<glyph name="B" format="2">
  <advance width="1124"/>
  <unicode hex="0042"/>
  <anchor x="562" y="0" name="bottom"/>
  <anchor x="538" y="1314" name="top"/>
  <anchor x="1124" y="1314" name="topright"/>
  <outline>
    <contour>
      <point x="160" y="0" type="line"/>
      <point x="517" y="0" type="line" smooth="yes"/>
      <point x="848" y="0"/>
      <point x="1041" y="136"/>
      <point x="1041" y="368" type="curve" smooth="yes"/>
      <point x="1041" y="541"/>
      <point x="931" y="658"/>
      <point x="735" y="695" type="curve"/>
      <point x="735" y="702" type="line"/>
      <point x="894" y="749"/>
      <point x="978" y="850"/>
      <point x="978" y="995" type="curve" smooth="yes"/>
      <point x="978" y="1202"/>
      <point x="812" y="1314"/>
      <point x="504" y="1314" type="curve" smooth="yes"/>
      <point x="160" y="1314" type="line"/>
    </contour>
    <contour>
      <point x="342" y="129" type="line"/>
      <point x="342" y="1185" type="line"/>
      <point x="488" y="1185" type="line" smooth="yes"/>
      <point x="692" y="1185"/>
      <point x="794" y="1114"/>
      <point x="794" y="972" type="curve" smooth="yes"/>
      <point x="794" y="824"/>
      <point x="684" y="746"/>
      <point x="477" y="746" type="curve" smooth="yes"/>
      <point x="312" y="746" type="line"/>
      <point x="312" y="619" type="line"/>
      <point x="513" y="619" type="line" smooth="yes"/>
      <point x="735" y="619"/>
      <point x="852" y="535"/>
      <point x="852" y="377" type="curve" smooth="yes"/>
      <point x="852" y="218"/>
      <point x="733" y="129"/>
      <point x="518" y="129" type="curve" smooth="yes"/>
    </contour>
  </outline>
  <guideline angle="0" x="0" y="695"/>
</glyph>
<glyph name="C" format="2">
  <advance width="1223"/>
  <unicode hex="0043"/>
  <anchor x="722" y="0" name="bottom"/>
  <anchor x="748" y="1314" name="top"/>
  <anchor x="1233" y="1314" name="topright"/>
  <outline>
    <contour>
      <point x="749" y="-24" type="curve" smooth="yes"/>
      <point x="893" y="-24"/>
      <point x="1034" y="13"/>
      <point x="1122" y="74" type="curve"/>
      <point x="1153" y="198" type="line"/>
      <point x="1147" y="204" type="line"/>
      <point x="1027" y="138"/>
      <point x="914" y="108"/>
      <point x="791" y="108" type="curve" smooth="yes"/>
      <point x="475" y="108"/>
      <point x="300" y="307"/>
      <point x="300" y="665" type="curve" smooth="yes"/>
      <point x="300" y="1020"/>
      <point x="467" y="1209"/>
      <point x="779" y="1209" type="curve" smooth="yes"/>
      <point x="894" y="1209"/>
      <point x="1008" y="1183"/>
      <point x="1123" y="1130" type="curve"/>
      <point x="1123" y="1264" type="line"/>
      <point x="1031" y="1312"/>
      <point x="913" y="1338"/>
      <point x="785" y="1338" type="curve" smooth="yes"/>
      <point x="368" y="1338"/>
      <point x="110" y="1073"/>
      <point x="110" y="643" type="curve" smooth="yes"/>
      <point x="110" y="230"/>
      <point x="353" y="-24"/>
    </contour>
  </outline>
  <guideline angle="76.0015" x="1103.98" y="0"/>
</glyph>
<glyph name="D" format="2">
  <advance width="1377"/>
  <unicode hex="0044"/>
  <anchor x="625" y="0" name="bottom"/>
  <anchor x="625" y="1314" name="top"/>
  <outline>
    <contour>
      <point x="160" y="0" type="line"/>
      <point x="160" y="1314" type="line"/>
      <point x="505" y="1314" type="line" smooth="yes"/>
      <point x="1017" y="1314"/>
      <point x="1267" y="1082"/>
      <point x="1267" y="675" type="curve" smooth="yes"/>
      <point x="1267" y="219"/>
      <point x="953" y="0"/>
      <point x="502" y="0" type="curve" smooth="yes"/>
    </contour>
    <contour>
      <point x="344" y="129" type="line"/>
      <point x="505" y="129" type="line" smooth="yes"/>
      <point x="875" y="129"/>
      <point x="1077" y="316"/>
      <point x="1077" y="675" type="curve" smooth="yes"/>
      <point x="1077" y="1007"/>
      <point x="905" y="1185"/>
      <point x="496" y="1185" type="curve" smooth="yes"/>
      <point x="344" y="1185" type="line"/>
    </contour>
  </outline>
</glyph>
<glyph name="E" format="2">
  <advance width="1005"/>
  <unicode hex="0045"/>
  <anchor x="555" y="0" name="bottom"/>
  <anchor x="550" y="1314" name="top"/>
  <outline>
    <contour>
      <point x="160" y="0" type="line"/>
      <point x="160" y="1314" type="line"/>
      <point x="929" y="1314" type="line"/>
      <point x="911" y="1185" type="line"/>
      <point x="344" y="1185" type="line"/>
      <point x="344" y="746" type="line"/>
      <point x="831" y="746" type="line"/>
      <point x="831" y="619" type="line"/>
      <point x="344" y="619" type="line"/>
      <point x="344" y="129" type="line"/>
      <point x="950" y="129" type="line"/>
      <point x="950" y="0" type="line"/>
    </contour>
  </outline>
  <guideline angle="81.9012" x="742" y="0"/>
</glyph>
<glyph name="F" format="2">
  <advance width="957"/>
  <unicode hex="0046"/>
  <anchor x="479" y="0" name="bottom"/>
  <anchor x="553" y="1314" name="top"/>
  <outline>
    <contour>
      <point x="160" y="0" type="line"/>
      <point x="160" y="1314" type="line"/>
      <point x="925" y="1314" type="line"/>
      <point x="906" y="1185" type="line"/>
      <point x="344" y="1185" type="line"/>
      <point x="344" y="717" type="line"/>
      <point x="831" y="717" type="line"/>
      <point x="831" y="589" type="line"/>
      <point x="344" y="589" type="line"/>
      <point x="344" y="0" type="line"/>
    </contour>
  </outline>
</glyph>
<glyph name="G" format="2">
  <advance width="1329"/>
  <unicode hex="0047"/>
  <anchor x="735" y="0" name="bottom"/>
  <anchor x="743" y="1314" name="top"/>
  <anchor x="1329" y="1314" name="topright"/>
  <outline>
    <contour>
      <point x="776" y="-24" type="curve" smooth="yes"/>
      <point x="901" y="-24"/>
      <point x="1049" y="-2"/>
      <point x="1196" y="39" type="curve"/>
      <point x="1070" y="146" type="line"/>
      <point x="994" y="122"/>
      <point x="901" y="108"/>
      <point x="814" y="108" type="curve" smooth="yes"/>
      <point x="474" y="108"/>
      <point x="300" y="297"/>
      <point x="300" y="666" type="curve" smooth="yes"/>
      <point x="300" y="1026"/>
      <point x="467" y="1209"/>
      <point x="796" y="1209" type="curve" smooth="yes"/>
      <point x="927" y="1209"/>
      <point x="1045" y="1180"/>
      <point x="1164" y="1120" type="curve"/>
      <point x="1164" y="1254" type="line"/>
      <point x="1072" y="1309"/>
      <point x="944" y="1339"/>
      <point x="801" y="1339" type="curve" smooth="yes"/>
      <point x="370" y="1339"/>
      <point x="110" y="1081"/>
      <point x="110" y="645" type="curve" smooth="yes"/>
      <point x="110" y="216"/>
      <point x="357" y="-24"/>
    </contour>
    <contour>
      <point x="1019" y="39" type="line"/>
      <point x="1196" y="39" type="line"/>
      <point x="1196" y="627" type="line"/>
      <point x="1019" y="627" type="line"/>
    </contour>
  </outline>
  <guideline angle="8.79955" x="0" y="450.003"/>
  <guideline angle="90" x="1196" y="0"/>
</glyph>
<glyph name="H" format="2">
  <advance width="1346"/>
  <unicode hex="0048"/>
  <anchor x="673" y="0" name="bottom"/>
  <anchor x="673" y="1314" name="top"/>
  <anchor x="1346" y="1314" name="topright"/>
  <outline>
    <contour>
      <point x="160" y="0" type="line"/>
      <point x="344" y="0" type="line"/>
      <point x="344" y="1314" type="line"/>
      <point x="160" y="1314" type="line"/>
    </contour>
    <contour>
      <point x="1002" y="0" type="line"/>
      <point x="1186" y="0" type="line"/>
      <point x="1186" y="1314" type="line"/>
      <point x="1002" y="1314" type="line"/>
    </contour>
    <contour>
      <point x="314" y="619" type="line"/>
      <point x="1032" y="619" type="line"/>
      <point x="1032" y="746" type="line"/>
      <point x="314" y="746" type="line"/>
    </contour>
  </outline>
  <guideline angle="90" x="308" y="0"/>
  <guideline angle="0" x="0" y="670"/>
  <guideline angle="0" name="cap" x="0" y="1314"/>
</glyph>
<glyph name="I" format="2">
  <advance width="504"/>
  <unicode hex="0049"/>
  <anchor x="252" y="0" name="bottom"/>
  <anchor x="252" y="1314" name="top"/>
  <outline>
    <contour>
      <point x="160" y="0" type="line"/>
      <point x="160" y="1314" type="line"/>
      <point x="344" y="1314" type="line"/>
      <point x="344" y="0" type="line"/>
    </contour>
  </outline>
</glyph>
<glyph name="K" format="2">
  <advance width="1135"/>
  <unicode hex="004B"/>
  <anchor x="602" y="0" name="bottom"/>
  <anchor x="590" y="1314" name="top"/>
  <anchor x="1175" y="1314" name="topright"/>
  <outline>
    <contour>
      <point x="160" y="0" type="line"/>
      <point x="344" y="0" type="line"/>
      <point x="344" y="1314" type="line"/>
      <point x="160" y="1314" type="line"/>
    </contour>
    <contour>
      <point x="893" y="0" type="line"/>
      <point x="1130" y="0" type="line"/>
      <point x="532" y="705" type="line"/>
      <point x="1075" y="1314" type="line"/>
      <point x="900" y="1314" type="line"/>
      <point x="335" y="675" type="line"/>
    </contour>
  </outline>
  <guideline angle="90" x="1078" y="0"/>
</glyph>
<glyph name="L" format="2">
  <advance width="964"/>
  <unicode hex="004C"/>
  <anchor x="542" y="0" name="bottom"/>
  <anchor x="251" y="1314" name="top"/>
  <anchor x="944" y="1314" name="topright"/>
  <outline>
    <contour>
      <point x="160" y="0" type="line"/>
      <point x="928" y="0" type="line"/>
      <point x="946" y="129" type="line"/>
      <point x="344" y="129" type="line"/>
      <point x="344" y="1314" type="line"/>
      <point x="160" y="1314" type="line"/>
    </contour>
  </outline>
</glyph>
<glyph name="M" format="2">
  <advance width="1671"/>
  <unicode hex="004D"/>
  <anchor x="818" y="0" name="bottom"/>
  <anchor x="840" y="1314" name="top"/>
  <outline>
    <contour>
      <point x="124" y="0" type="line"/>
      <point x="230" y="1314" type="line"/>
      <point x="445" y="1314" type="line"/>
      <point x="785" y="354" type="line" smooth="yes"/>
      <point x="806" y="295"/>
      <point x="815" y="261"/>
      <point x="828" y="220" type="curve"/>
      <point x="835" y="220" type="line"/>
      <point x="848" y="262"/>
      <point x="857" y="295"/>
      <point x="879" y="354" type="curve" smooth="yes"/>
      <point x="1238" y="1314" type="line"/>
      <point x="1442" y="1314" type="line"/>
      <point x="1546" y="0" type="line"/>
      <point x="1364" y="0" type="line"/>
      <point x="1289" y="1072" type="line"/>
      <point x="1281" y="1072" type="line"/>
      <point x="1270" y="1027"/>
      <point x="1257" y="978"/>
      <point x="1213" y="862" type="curve" smooth="yes"/>
      <point x="890" y="0" type="line"/>
      <point x="731" y="0" type="line"/>
      <point x="424" y="862" type="line" smooth="yes"/>
      <point x="383" y="977"/>
      <point x="371" y="1027"/>
      <point x="361" y="1072" type="curve"/>
      <point x="354" y="1072" type="line"/>
      <point x="269" y="0" type="line"/>
    </contour>
  </outline>
  <guideline angle="0" x="0" y="1098"/>
  <guideline angle="0" x="0" y="1066"/>
  <guideline angle="88.2072" x="157.639" y="0"/>
</glyph>
<glyph name="N" format="2">
  <advance width="1330"/>
  <unicode hex="004E"/>
  <anchor x="665" y="0" name="bottom"/>
  <anchor x="664" y="1314" name="top"/>
  <outline>
    <contour>
      <point x="160" y="0" type="line"/>
      <point x="160" y="1314" type="line"/>
      <point x="299" y="1314" type="line"/>
      <point x="905" y="488" type="line" smooth="yes"/>
      <point x="947" y="430"/>
      <point x="983" y="372"/>
      <point x="1017" y="310" type="curve"/>
      <point x="1025" y="310" type="line"/>
      <point x="1025" y="1314" type="line"/>
      <point x="1170" y="1314" type="line"/>
      <point x="1170" y="0" type="line"/>
      <point x="1031" y="0" type="line"/>
      <point x="425" y="826" type="line" smooth="yes"/>
      <point x="382" y="885"/>
      <point x="347" y="942"/>
      <point x="313" y="1004" type="curve"/>
      <point x="305" y="1004" type="line"/>
      <point x="305" y="0" type="line"/>
    </contour>
  </outline>
</glyph>
<glyph name="O" format="2">
  <advance width="1463"/>
  <unicode hex="004F"/>
  <anchor x="723" y="0" name="bottom"/>
  <anchor x="731" y="1314" name="top"/>
  <outline>
    <contour>
      <point x="717" y="-24" type="curve" smooth="yes"/>
      <point x="341" y="-24"/>
      <point x="110" y="233"/>
      <point x="110" y="652" type="curve" smooth="yes"/>
      <point x="110" y="1076"/>
      <point x="350" y="1338"/>
      <point x="738" y="1338" type="curve" smooth="yes"/>
      <point x="1119" y="1338"/>
      <point x="1353" y="1085"/>
      <point x="1353" y="672" type="curve" smooth="yes"/>
      <point x="1353" y="247"/>
      <point x="1105" y="-24"/>
    </contour>
    <contour>
      <point x="726" y="101" type="curve" smooth="yes"/>
      <point x="1008" y="101"/>
      <point x="1163" y="301"/>
      <point x="1163" y="667" type="curve" smooth="yes"/>
      <point x="1163" y="1025"/>
      <point x="1014" y="1213"/>
      <point x="730" y="1213" type="curve" smooth="yes"/>
      <point x="446" y="1213"/>
      <point x="300" y="1025"/>
      <point x="300" y="661" type="curve" smooth="yes"/>
      <point x="300" y="296"/>
      <point x="448" y="101"/>
    </contour>
  </outline>
</glyph>
<glyph name="P" format="2">
  <advance width="1097"/>
  <unicode hex="0050"/>
  <anchor x="491" y="0" name="bottom"/>
  <anchor x="549" y="1314" name="top"/>
  <anchor x="1077" y="1314" name="topright"/>
  <outline>
    <contour>
      <point x="160" y="0" type="line"/>
      <point x="344" y="0" type="line"/>
      <point x="344" y="1185" type="line"/>
      <point x="512" y="1185" type="line" smooth="yes"/>
      <point x="731" y="1185"/>
      <point x="845" y="1100"/>
      <point x="845" y="927" type="curve" smooth="yes"/>
      <point x="845" y="754"/>
      <point x="729" y="651"/>
      <point x="517" y="651" type="curve" smooth="yes"/>
      <point x="314" y="651" type="line"/>
      <point x="314" y="522" type="line"/>
      <point x="522" y="522" type="line" smooth="yes"/>
      <point x="842" y="522"/>
      <point x="1033" y="674"/>
      <point x="1033" y="930" type="curve" smooth="yes"/>
      <point x="1033" y="1178"/>
      <point x="855" y="1314"/>
      <point x="528" y="1314" type="curve" smooth="yes"/>
      <point x="160" y="1314" type="line"/>
    </contour>
  </outline>
  <guideline angle="0" x="0" y="568"/>
</glyph>
<glyph name="Q" format="2">
  <advance width="1463"/>
  <unicode hex="0051"/>
  <anchor x="730" y="-174" name="bottom"/>
  <anchor x="731" y="1314" name="top"/>
  <anchor x="1423" y="1314" name="topright"/>
  <outline>
    <contour>
      <point x="659" y="-27" type="curve" smooth="yes"/>
      <point x="818" y="-66"/>
      <point x="1066" y="-148"/>
      <point x="1396" y="-364" type="curve"/>
      <point x="1482" y="-209" type="line"/>
      <point x="1352" y="-138"/>
      <point x="1087" y="-29"/>
      <point x="946" y="13" type="curve"/>
      <point x="946" y="62" type="line"/>
      <point x="892" y="3" type="line"/>
      <point x="1207" y="83"/>
      <point x="1353" y="357"/>
      <point x="1353" y="678" type="curve" smooth="yes"/>
      <point x="1353" y="1084"/>
      <point x="1115" y="1338"/>
      <point x="736" y="1338" type="curve" smooth="yes"/>
      <point x="349" y="1338"/>
      <point x="110" y="1079"/>
      <point x="110" y="646" type="curve" smooth="yes"/>
      <point x="110" y="102"/>
      <point x="481" y="17"/>
    </contour>
    <contour>
      <point x="726" y="101" type="curve" smooth="yes"/>
      <point x="448" y="101"/>
      <point x="300" y="296"/>
      <point x="300" y="661" type="curve" smooth="yes"/>
      <point x="300" y="1025"/>
      <point x="446" y="1213"/>
      <point x="730" y="1213" type="curve" smooth="yes"/>
      <point x="1014" y="1213"/>
      <point x="1163" y="1025"/>
      <point x="1163" y="667" type="curve" smooth="yes"/>
      <point x="1163" y="301"/>
      <point x="1008" y="101"/>
    </contour>
  </outline>
  <guideline angle="65.677" x="1508.57" y="0"/>
</glyph>
<glyph name="R" format="2">
  <advance width="1150"/>
  <unicode hex="0052"/>
  <anchor x="580" y="0" name="bottom"/>
  <anchor x="574" y="1314" name="top"/>
  <anchor x="1120" y="1314" name="topright"/>
  <outline>
    <contour>
      <point x="160" y="0" type="line"/>
      <point x="343" y="0" type="line"/>
      <point x="343" y="1185" type="line"/>
      <point x="512" y="1185" type="line" smooth="yes"/>
      <point x="729" y="1185"/>
      <point x="836" y="1107"/>
      <point x="836" y="949" type="curve" smooth="yes"/>
      <point x="836" y="785"/>
      <point x="717" y="687"/>
      <point x="517" y="687" type="curve" smooth="yes"/>
      <point x="313" y="687" type="line"/>
      <point x="313" y="559" type="line"/>
      <point x="514" y="559" type="line" smooth="yes"/>
      <point x="825" y="559"/>
      <point x="1024" y="714"/>
      <point x="1024" y="957" type="curve" smooth="yes"/>
      <point x="1024" y="1188"/>
      <point x="848" y="1314"/>
      <point x="527" y="1314" type="curve" smooth="yes"/>
      <point x="160" y="1314" type="line"/>
    </contour>
    <contour>
      <point x="908" y="0" type="line"/>
      <point x="1135" y="0" type="line"/>
      <point x="672" y="589" type="line"/>
      <point x="466" y="589" type="line"/>
    </contour>
  </outline>
  <guideline angle="90" x="503" y="0"/>
</glyph>
<glyph name="S" format="2">
  <advance width="1021"/>
  <unicode hex="0053"/>
  <anchor x="511" y="0" name="bottom"/>
  <anchor x="527" y="1314" name="top"/>
  <outline>
    <contour>
      <point x="495" y="-24" type="curve" smooth="yes"/>
      <point x="352" y="-24"/>
      <point x="197" y="24"/>
      <point x="99" y="103" type="curve"/>
      <point x="64" y="246" type="line"/>
      <point x="71" y="252" type="line"/>
      <point x="215" y="154"/>
      <point x="343" y="108"/>
      <point x="474" y="108" type="curve" smooth="yes"/>
      <point x="653" y="108"/>
      <point x="769" y="195"/>
      <point x="769" y="330" type="curve" smooth="yes"/>
      <point x="769" y="445"/>
      <point x="705" y="508"/>
      <point x="447" y="610" type="curve" smooth="yes"/>
      <point x="278" y="677"/>
      <point x="93" y="762"/>
      <point x="93" y="985" type="curve" smooth="yes"/>
      <point x="93" y="1202"/>
      <point x="270" y="1338"/>
      <point x="554" y="1338" type="curve" smooth="yes"/>
      <point x="676" y="1338"/>
      <point x="794" y="1311"/>
      <point x="880" y="1264" type="curve"/>
      <point x="880" y="1130" type="line"/>
      <point x="769" y="1185"/>
      <point x="675" y="1209"/>
      <point x="571" y="1209" type="curve" smooth="yes"/>
      <point x="383" y="1209"/>
      <point x="266" y="1131"/>
      <point x="266" y="1004" type="curve" smooth="yes"/>
      <point x="266" y="902"/>
      <point x="337" y="843"/>
      <point x="552" y="757" type="curve" smooth="yes"/>
      <point x="777" y="667"/>
      <point x="948" y="587"/>
      <point x="948" y="354" type="curve" smooth="yes"/>
      <point x="948" y="124"/>
      <point x="771" y="-24"/>
    </contour>
  </outline>
</glyph>
<glyph name="T" format="2">
  <advance width="1026"/>
  <unicode hex="0054"/>
  <anchor x="513" y="0" name="bottom"/>
  <anchor x="514" y="1314" name="top"/>
  <outline>
    <contour>
      <point x="421" y="0" type="line"/>
      <point x="421" y="1215" type="line"/>
      <point x="605" y="1215" type="line"/>
      <point x="605" y="0" type="line"/>
    </contour>
    <contour>
      <point x="13" y="1185" type="line"/>
      <point x="13" y="1314" type="line"/>
      <point x="1021" y="1314" type="line"/>
      <point x="1003" y="1185" type="line"/>
    </contour>
  </outline>
  <guideline angle="90" x="560" y="0"/>
</glyph>
<glyph name="U" format="2">
  <advance width="1305"/>
  <unicode hex="0055"/>
  <anchor x="648" y="0" name="bottom"/>
  <anchor x="666" y="1314" name="top"/>
  <outline>
    <contour>
      <point x="642" y="-24" type="curve" smooth="yes"/>
      <point x="310" y="-24"/>
      <point x="147" y="153"/>
      <point x="147" y="514" type="curve" smooth="yes"/>
      <point x="147" y="1314" type="line"/>
      <point x="331" y="1314" type="line"/>
      <point x="331" y="527" type="line" smooth="yes"/>
      <point x="331" y="229"/>
      <point x="431" y="101"/>
      <point x="664" y="101" type="curve" smooth="yes"/>
      <point x="901" y="101"/>
      <point x="1012" y="234"/>
      <point x="1012" y="519" type="curve" smooth="yes"/>
      <point x="1012" y="1314" type="line"/>
      <point x="1158" y="1314" type="line"/>
      <point x="1158" y="536" type="line" smooth="yes"/>
      <point x="1158" y="164"/>
      <point x="985" y="-24"/>
    </contour>
  </outline>
  <guideline angle="0" x="0" y="101"/>
</glyph>
<glyph name="V" format="2">
  <advance width="1197"/>
  <unicode hex="0056"/>
  <anchor x="599" y="0" name="bottom"/>
  <anchor x="619" y="1314" name="top"/>
  <anchor x="1237" y="1314" name="topright"/>
  <outline>
    <contour>
      <point x="532" y="0" type="line"/>
      <point x="665" y="0" type="line"/>
      <point x="1185" y="1314" type="line"/>
      <point x="1016" y="1314" type="line"/>
      <point x="615" y="244" type="line"/>
      <point x="608" y="244" type="line"/>
      <point x="215" y="1314" type="line"/>
      <point x="16" y="1314" type="line"/>
    </contour>
  </outline>
</glyph>
<glyph name="W" format="2">
  <advance width="1821"/>
  <unicode hex="0057"/>
  <anchor x="911" y="0" name="bottom"/>
  <anchor x="931" y="1314" name="top"/>
  <outline>
    <contour>
      <point x="423" y="0" type="line"/>
      <point x="37" y="1314" type="line"/>
      <point x="229" y="1314" type="line"/>
      <point x="470" y="442" type="line" smooth="yes"/>
      <point x="489" y="374"/>
      <point x="512" y="296"/>
      <point x="528" y="223" type="curve"/>
      <point x="536" y="223" type="line"/>
      <point x="552" y="294"/>
      <point x="576" y="375"/>
      <point x="596" y="445" type="curve" smooth="yes"/>
      <point x="852" y="1314" type="line"/>
      <point x="1009" y="1314" type="line"/>
      <point x="1259" y="442" type="line" smooth="yes"/>
      <point x="1280" y="369"/>
      <point x="1301" y="296"/>
      <point x="1317" y="223" type="curve"/>
      <point x="1325" y="223" type="line"/>
      <point x="1342" y="296"/>
      <point x="1363" y="371"/>
      <point x="1385" y="445" type="curve" smooth="yes"/>
      <point x="1640" y="1314" type="line"/>
      <point x="1802" y="1314" type="line"/>
      <point x="1388" y="0" type="line"/>
      <point x="1210" y="0" type="line"/>
      <point x="969" y="818" type="line" smooth="yes"/>
      <point x="948" y="888"/>
      <point x="926" y="966"/>
      <point x="910" y="1039" type="curve"/>
      <point x="902" y="1039" type="line"/>
      <point x="885" y="965"/>
      <point x="862" y="889"/>
      <point x="841" y="818" type="curve" smooth="yes"/>
      <point x="601" y="0" type="line"/>
    </contour>
  </outline>
  <guideline angle="0" x="0" y="206"/>
  <guideline angle="104.009" x="349.6" y="0"/>
  <guideline angle="75.9907" x="1316.51" y="0"/>
</glyph>
<glyph name="X" format="2">
  <advance width="1091"/>
  <unicode hex="0058"/>
  <anchor x="546" y="0" name="bottom"/>
  <anchor x="569" y="1314" name="top"/>
  <anchor x="1141" y="1314" name="topright"/>
  <outline>
    <contour>
      <point x="873" y="0" type="line"/>
      <point x="1081" y="0" type="line"/>
      <point x="230" y="1314" type="line"/>
      <point x="22" y="1314" type="line"/>
    </contour>
    <contour>
      <point x="9" y="0" type="line"/>
      <point x="170" y="0" type="line"/>
      <point x="544" y="559" type="line"/>
      <point x="467" y="677" type="line"/>
    </contour>
    <contour>
      <point x="626" y="649" type="line"/>
      <point x="1076" y="1314" type="line"/>
      <point x="917" y="1314" type="line"/>
      <point x="550" y="768" type="line"/>
    </contour>
  </outline>
  <guideline angle="235.937" x="926" y="1311"/>
  <guideline angle="235.937" x="1036" y="1314"/>
</glyph>
<glyph name="Y" format="2">
  <advance width="1059"/>
  <unicode hex="0059"/>
  <anchor x="530" y="0" name="bottom"/>
  <anchor x="550" y="1314" name="top"/>
  <outline>
    <contour>
      <point x="440" y="0" type="line"/>
      <point x="440" y="534" type="line"/>
      <point x="-5" y="1314" type="line"/>
      <point x="203" y="1314" type="line"/>
      <point x="554" y="681" type="line"/>
      <point x="562" y="681" type="line"/>
      <point x="923" y="1314" type="line"/>
      <point x="1075" y="1314" type="line"/>
      <point x="619" y="537" type="line"/>
      <point x="619" y="0" type="line"/>
    </contour>
  </outline>
  <guideline angle="0" x="0" y="529"/>
</glyph>
<glyph name="Z" format="2">
  <advance width="1038"/>
  <unicode hex="005A"/>
  <anchor x="519" y="0" name="bottom"/>
  <anchor x="530" y="1314" name="top"/>
  <anchor x="1078" y="1314" name="topright"/>
  <outline>
    <contour>
      <point x="41" y="0" type="line"/>
      <point x="974" y="0" type="line"/>
      <point x="993" y="129" type="line"/>
      <point x="215" y="129" type="line"/>
      <point x="264" y="89" type="line"/>
      <point x="264" y="133" type="line"/>
      <point x="983" y="1194" type="line"/>
      <point x="983" y="1314" type="line"/>
      <point x="76" y="1314" type="line"/>
      <point x="76" y="1185" type="line"/>
      <point x="812" y="1185" type="line"/>
      <point x="762" y="1226" type="line"/>
      <point x="762" y="1180" type="line"/>
      <point x="41" y="120" type="line"/>
    </contour>
  </outline>
  <guideline angle="90" x="974" y="0"/>
</glyph>
<glyph name="bracketleft" format="2">
  <advance width="646"/>
  <unicode hex="005B"/>
  <outline>
    <contour>
      <point x="165" y="-343" type="line"/>
      <point x="165" y="1338" type="line"/>
      <point x="600" y="1338" type="line"/>
      <point x="600" y="1222" type="line"/>
      <point x="329" y="1222" type="line"/>
      <point x="329" y="-226" type="line"/>
      <point x="600" y="-226" type="line"/>
      <point x="600" y="-343" type="line"/>
    </contour>
  </outline>
</glyph>
<glyph name="backslash" format="2">
  <advance width="721"/>
  <unicode hex="005C"/>
  <outline>
    <contour>
      <point x="543" y="-209" type="line"/>
      <point x="42" y="1414" type="line"/>
      <point x="206" y="1414" type="line"/>
      <point x="708" y="-209" type="line"/>
    </contour>
  </outline>
</glyph>
<glyph name="bracketright" format="2">
  <advance width="646"/>
  <unicode hex="005D"/>
  <outline>
    <contour>
      <point x="46" y="-343" type="line"/>
      <point x="481" y="-343" type="line"/>
      <point x="481" y="1338" type="line"/>
      <point x="46" y="1338" type="line"/>
      <point x="46" y="1222" type="line"/>
      <point x="317" y="1222" type="line"/>
      <point x="317" y="-226" type="line"/>
      <point x="46" y="-226" type="line"/>
    </contour>
  </outline>
</glyph>
<glyph name="asciicircum" format="2">
  <advance width="920"/>
  <unicode hex="005E"/>
  <outline>
    <contour>
      <point x="64" y="578" type="line"/>
      <point x="186" y="525" type="line"/>
      <point x="481" y="1196" type="line"/>
      <point x="439" y="1196" type="line"/>
      <point x="734" y="525" type="line"/>
      <point x="856" y="578" type="line"/>
      <point x="520" y="1314" type="line"/>
      <point x="401" y="1314" type="line"/>
    </contour>
  </outline>
</glyph>
<glyph name="b" format="2">
  <advance width="1101"/>
  <unicode hex="0062"/>
  <anchor x="525" y="0" name="bottom"/>
  <anchor x="575" y="1417" name="top"/>
  <outline>
    <contour>
      <point x="145" y="0" type="line"/>
      <point x="152" y="60"/>
      <point x="156" y="155"/>
      <point x="156" y="254" type="curve" smooth="yes"/>
      <point x="156" y="1402" type="line"/>
      <point x="330" y="1430" type="line"/>
      <point x="330" y="159" type="line" smooth="yes"/>
      <point x="330" y="110"/>
      <point x="321" y="56"/>
      <point x="304" y="0" type="curve"/>
    </contour>
    <contour>
      <point x="563" y="-22" type="curve" smooth="yes"/>
      <point x="466" y="-22"/>
      <point x="394" y="6"/>
      <point x="301" y="80" type="curve"/>
      <point x="301" y="197" type="line"/>
      <point x="385" y="126"/>
      <point x="468" y="92"/>
      <point x="557" y="92" type="curve" smooth="yes"/>
      <point x="732" y="92"/>
      <point x="830" y="236"/>
      <point x="830" y="489" type="curve" smooth="yes"/>
      <point x="830" y="730"/>
      <point x="738" y="855"/>
      <point x="559" y="855" type="curve" smooth="yes"/>
      <point x="453" y="855"/>
      <point x="359" y="816"/>
      <point x="300" y="747" type="curve"/>
      <point x="300" y="864" type="line"/>
      <point x="374" y="934"/>
      <point x="479" y="972"/>
      <point x="596" y="972" type="curve" smooth="yes"/>
      <point x="847" y="972"/>
      <point x="1010" y="787"/>
      <point x="1010" y="503" type="curve" smooth="yes"/>
      <point x="1010" y="196"/>
      <point x="825" y="-22"/>
    </contour>
  </outline>
  <guideline angle="0" x="0" y="116"/>
</glyph>
<glyph name="c" format="2">
  <advance width="928"/>
  <unicode hex="0063"/>
  <anchor x="536" y="0" name="bottom"/>
  <anchor x="531" y="946" name="top"/>
  <anchor x="948" y="946" name="topright"/>
  <outline>
    <contour>
      <point x="558" y="-22" type="curve" smooth="yes"/>
      <point x="656" y="-22"/>
      <point x="761" y="0"/>
      <point x="820" y="34" type="curve"/>
      <point x="850" y="152" type="line"/>
      <point x="843" y="159" type="line"/>
      <point x="759" y="121"/>
      <point x="686" y="104"/>
      <point x="609" y="104" type="curve" smooth="yes"/>
      <point x="389" y="104"/>
      <point x="272" y="236"/>
      <point x="272" y="482" type="curve" smooth="yes"/>
      <point x="272" y="723"/>
      <point x="383" y="846"/>
      <point x="599" y="846" type="curve" smooth="yes"/>
      <point x="673" y="846"/>
      <point x="751" y="832"/>
      <point x="827" y="806" type="curve"/>
      <point x="827" y="929" type="line"/>
      <point x="761" y="958"/>
      <point x="685" y="972"/>
      <point x="598" y="972" type="curve" smooth="yes"/>
      <point x="277" y="972"/>
      <point x="92" y="787"/>
      <point x="92" y="467" type="curve" smooth="yes"/>
      <point x="92" y="160"/>
      <point x="265" y="-22"/>
    </contour>
  </outline>
  <guideline angle="90" x="598" y="0"/>
  <guideline angle="65.677" x="1508.57" y="0"/>
  <guideline angle="65.677" x="1508.57" y="0"/>
</glyph>
<glyph name="d" format="2">
  <advance width="1102"/>
  <unicode hex="0064"/>
  <anchor x="561" y="0" name="bottom"/>
  <anchor x="586" y="1417" name="top"/>
  <outline>
    <contour>
      <point x="502" y="-22" type="curve" smooth="yes"/>
      <point x="254" y="-22"/>
      <point x="92" y="169"/>
      <point x="92" y="462" type="curve" smooth="yes"/>
      <point x="92" y="771"/>
      <point x="270" y="972"/>
      <point x="542" y="972" type="curve" smooth="yes"/>
      <point x="637" y="972"/>
      <point x="719" y="946"/>
      <point x="802" y="889" type="curve"/>
      <point x="802" y="774" type="line"/>
      <point x="734" y="826"/>
      <point x="634" y="859"/>
      <point x="547" y="859" type="curve" smooth="yes"/>
      <point x="366" y="859"/>
      <point x="272" y="726"/>
      <point x="272" y="472" type="curve" smooth="yes"/>
      <point x="272" y="221"/>
      <point x="362" y="95"/>
      <point x="540" y="95" type="curve" smooth="yes"/>
      <point x="650" y="95"/>
      <point x="741" y="140"/>
      <point x="806" y="226" type="curve"/>
      <point x="806" y="110" type="line"/>
      <point x="730" y="24"/>
      <point x="624" y="-22"/>
    </contour>
    <contour>
      <point x="814" y="0" type="line"/>
      <point x="786" y="64"/>
      <point x="772" y="151"/>
      <point x="772" y="254" type="curve" smooth="yes"/>
      <point x="772" y="1402" type="line"/>
      <point x="946" y="1430" type="line"/>
      <point x="946" y="271" type="line" smooth="yes"/>
      <point x="946" y="183"/>
      <point x="956" y="87"/>
      <point x="974" y="0" type="curve"/>
    </contour>
  </outline>
  <guideline angle="0" x="0" y="859"/>
  <guideline angle="0" x="0" y="147"/>
</glyph>
<glyph name="e" format="2">
  <advance width="1039"/>
  <unicode hex="0065"/>
  <anchor x="546" y="0" name="bottom"/>
  <anchor x="536" y="946" name="top"/>
  <outline>
    <contour>
      <point x="569" y="-22" type="curve" smooth="yes"/>
      <point x="271" y="-22"/>
      <point x="92" y="164"/>
      <point x="92" y="474" type="curve" smooth="yes"/>
      <point x="92" y="779"/>
      <point x="266" y="972"/>
      <point x="541" y="972" type="curve" smooth="yes"/>
      <point x="805" y="972"/>
      <point x="948" y="803"/>
      <point x="948" y="490" type="curve" smooth="yes"/>
      <point x="948" y="470"/>
      <point x="948" y="466"/>
      <point x="947" y="458" type="curve"/>
      <point x="239" y="458" type="line"/>
      <point x="239" y="571" type="line"/>
      <point x="815" y="571" type="line"/>
      <point x="765" y="526" type="line"/>
      <point x="766" y="750"/>
      <point x="689" y="856"/>
      <point x="536" y="856" type="curve" smooth="yes"/>
      <point x="366" y="856"/>
      <point x="269" y="720"/>
      <point x="269" y="480" type="curve" smooth="yes"/>
      <point x="269" y="226"/>
      <point x="377" y="105"/>
      <point x="603" y="105" type="curve" smooth="yes"/>
      <point x="717" y="105"/>
      <point x="813" y="136"/>
      <point x="916" y="206" type="curve"/>
      <point x="922" y="201" type="line"/>
      <point x="895" y="71" type="line"/>
      <point x="805" y="11"/>
      <point x="690" y="-22"/>
    </contour>
  </outline>
  <guideline angle="90" x="951" y="0"/>
  <guideline angle="90" x="536" y="0"/>
  <guideline angle="0" x="0" y="490"/>
</glyph>
<glyph name="f" format="2">
  <advance width="602"/>
  <unicode hex="0066"/>
  <anchor x="257" y="0" name="bottom"/>
  <anchor x="440" y="1417" name="top"/>
  <anchor x="678" y="1417" name="topright"/>
  <outline>
    <contour>
      <point x="160" y="0" type="line"/>
      <point x="335" y="0" type="line"/>
      <point x="335" y="1063" type="line" smooth="yes"/>
      <point x="335" y="1222"/>
      <point x="394" y="1302"/>
      <point x="542" y="1302" type="curve" smooth="yes" name="hr01"/>
      <point x="592" y="1302"/>
      <point x="636" y="1294"/>
      <point x="677" y="1277" type="curve"/>
      <point x="677" y="1402" type="line"/>
      <point x="635" y="1420"/>
      <point x="584" y="1430"/>
      <point x="527" y="1430" type="curve" smooth="yes"/>
      <point x="309" y="1430"/>
      <point x="160" y="1303"/>
      <point x="160" y="1050" type="curve" smooth="yes"/>
    </contour>
    <contour>
      <point x="27" y="820" type="line"/>
      <point x="591" y="820" type="line"/>
      <point x="591" y="937" type="line"/>
      <point x="258" y="937" type="line"/>
      <point x="43" y="930" type="line"/>
    </contour>
  </outline>
</glyph>
<glyph name="g" format="2">
  <advance width="1037"/>
  <unicode hex="0067"/>
  <anchor x="466" y="-419" name="bottom"/>
  <anchor x="518" y="946" name="top"/>
  <outline>
    <contour>
      <point x="494" y="285" type="curve" smooth="yes"/>
      <point x="256" y="285"/>
      <point x="102" y="417"/>
      <point x="102" y="620" type="curve" smooth="yes"/>
      <point x="102" y="830"/>
      <point x="266" y="972"/>
      <point x="509" y="972" type="curve" smooth="yes"/>
      <point x="746" y="972"/>
      <point x="909" y="831"/>
      <point x="909" y="628" type="curve" smooth="yes"/>
      <point x="909" y="422"/>
      <point x="743" y="285"/>
    </contour>
    <contour>
      <point x="502" y="396" type="curve" smooth="yes"/>
      <point x="654" y="396"/>
      <point x="741" y="481"/>
      <point x="741" y="631" type="curve" smooth="yes"/>
      <point x="741" y="778"/>
      <point x="657" y="859"/>
      <point x="505" y="859" type="curve" smooth="yes"/>
      <point x="352" y="859"/>
      <point x="270" y="779"/>
      <point x="270" y="630" type="curve" smooth="yes"/>
      <point x="270" y="479"/>
      <point x="353" y="396"/>
    </contour>
    <contour>
      <point x="817" y="817" type="line"/>
      <point x="659" y="937" type="line"/>
      <point x="1028" y="937" type="line"/>
      <point x="1014" y="832" type="line"/>
    </contour>
    <contour>
      <point x="460" y="-433" type="curve" smooth="yes"/>
      <point x="208" y="-433"/>
      <point x="60" y="-332"/>
      <point x="60" y="-166" type="curve" smooth="yes"/>
      <point x="60" y="-79"/>
      <point x="105" y="-8"/>
      <point x="211" y="69" type="curve"/>
      <point x="302" y="35" type="line"/>
      <point x="239" y="-13"/>
      <point x="205" y="-77"/>
      <point x="205" y="-146" type="curve" smooth="yes"/>
      <point x="205" y="-254"/>
      <point x="300" y="-313"/>
      <point x="475" y="-313" type="curve" smooth="yes"/>
      <point x="679" y="-313"/>
      <point x="814" y="-233"/>
      <point x="814" y="-112" type="curve" smooth="yes"/>
      <point x="814" y="-28"/>
      <point x="755" y="4"/>
      <point x="599" y="4" type="curve" smooth="yes"/>
      <point x="368" y="4" type="line" smooth="yes"/>
      <point x="216" y="4"/>
      <point x="119" y="73"/>
      <point x="119" y="183" type="curve" smooth="yes"/>
      <point x="119" y="255"/>
      <point x="166" y="323"/>
      <point x="252" y="377" type="curve"/>
      <point x="341" y="348" type="line"/>
      <point x="286" y="312"/>
      <point x="260" y="274"/>
      <point x="260" y="230" type="curve" smooth="yes"/>
      <point x="260" y="180"/>
      <point x="297" y="156"/>
      <point x="375" y="156" type="curve" smooth="yes"/>
      <point x="637" y="156" type="line" smooth="yes"/>
      <point x="860" y="156"/>
      <point x="966" y="79"/>
      <point x="966" y="-76" type="curve" smooth="yes"/>
      <point x="966" y="-290"/>
      <point x="764" y="-433"/>
    </contour>
  </outline>
  <guideline angle="90" x="929" y="0"/>
  <guideline angle="0" x="0" y="868"/>
  <guideline angle="90" x="-177" y="0"/>
</glyph>
<glyph name="h" format="2">
  <advance width="1103"/>
  <unicode hex="0068"/>
  <anchor x="557" y="0" name="bottom"/>
  <anchor x="521" y="1417" name="top"/>
  <outline>
    <contour>
      <point x="156" y="0" type="line"/>
      <point x="156" y="1402" type="line"/>
      <point x="330" y="1430" type="line"/>
      <point x="330" y="0" type="line"/>
    </contour>
    <contour>
      <point x="784" y="0" type="line"/>
      <point x="784" y="603" type="line" smooth="yes"/>
      <point x="784" y="762"/>
      <point x="725" y="836"/>
      <point x="597" y="836" type="curve" smooth="yes"/>
      <point x="488" y="836"/>
      <point x="384" y="787"/>
      <point x="300" y="698" type="curve"/>
      <point x="300" y="810" type="line"/>
      <point x="396" y="914"/>
      <point x="527" y="972"/>
      <point x="662" y="972" type="curve" smooth="yes"/>
      <point x="857" y="972"/>
      <point x="958" y="856"/>
      <point x="958" y="631" type="curve" smooth="yes"/>
      <point x="958" y="0" type="line"/>
    </contour>
  </outline>
  <guideline angle="0" x="0" y="796"/>
  <guideline angle="90" x="243" y="0"/>
</glyph>
<glyph name="i" format="2">
  <advance width="486"/>
  <unicode hex="0069"/>
  <anchor x="243" y="0" name="bottom"/>
  <anchor x="243" y="1370" name="top.mkmk"/>
  <anchor x="486" y="1370" name="topright"/>
  <outline>
    <contour>
      <point x="156" y="0" type="line"/>
      <point x="330" y="0" type="line"/>
      <point x="330" y="946" type="line"/>
      <point x="156" y="946" type="line"/>
    </contour>
    <contour>
      <point x="241" y="1120" type="curve" smooth="yes"/>
      <point x="309" y="1120"/>
      <point x="351" y="1162"/>
      <point x="351" y="1231" type="curve" smooth="yes"/>
      <point x="351" y="1298"/>
      <point x="311" y="1338"/>
      <point x="245" y="1338" type="curve" smooth="yes"/>
      <point x="177" y="1338"/>
      <point x="135" y="1296"/>
      <point x="135" y="1229" type="curve" smooth="yes"/>
      <point x="135" y="1161"/>
      <point x="175" y="1120"/>
    </contour>
  </outline>
</glyph>
<glyph name="j" format="2">
  <advance width="484"/>
  <unicode hex="006A"/>
  <anchor x="114" y="-419" name="bottom"/>
  <anchor x="243" y="1370" name="top.mkmk"/>
  <outline>
    <contour>
      <point x="42" y="-428" type="curve" smooth="yes"/>
      <point x="-23" y="-428"/>
      <point x="-61" y="-415"/>
      <point x="-94" y="-404" type="curve"/>
      <point x="-122" y="-291" type="line"/>
      <point x="-115" y="-284" type="line"/>
      <point x="-58" y="-302"/>
      <point x="-24" y="-309"/>
      <point x="13" y="-309" type="curve" smooth="yes"/>
      <point x="117" y="-309"/>
      <point x="156" y="-255"/>
      <point x="156" y="-113" type="curve" smooth="yes"/>
      <point x="156" y="946" type="line"/>
      <point x="328" y="946" type="line"/>
      <point x="328" y="-99" type="line" smooth="yes"/>
      <point x="328" y="-318"/>
      <point x="233" y="-428"/>
    </contour>
    <contour>
      <point x="239" y="1120" type="curve" smooth="yes"/>
      <point x="173" y="1120"/>
      <point x="134" y="1161"/>
      <point x="134" y="1228" type="curve" smooth="yes"/>
      <point x="134" y="1296"/>
      <point x="176" y="1338"/>
      <point x="243" y="1338" type="curve" smooth="yes"/>
      <point x="310" y="1338"/>
      <point x="350" y="1298"/>
      <point x="350" y="1231" type="curve" smooth="yes"/>
      <point x="350" y="1163"/>
      <point x="308" y="1120"/>
    </contour>
  </outline>
</glyph>
<glyph name="k" format="2">
  <advance width="987"/>
  <unicode hex="006B"/>
  <anchor x="539" y="0" name="bottom"/>
  <anchor x="511" y="1417" name="top"/>
  <outline>
    <contour>
      <point x="156" y="0" type="line"/>
      <point x="156" y="1402" type="line"/>
      <point x="330" y="1430" type="line"/>
      <point x="330" y="0" type="line"/>
    </contour>
    <contour>
      <point x="735" y="0" type="line"/>
      <point x="317" y="498" type="line"/>
      <point x="764" y="946" type="line"/>
      <point x="937" y="946" type="line"/>
      <point x="493" y="507" type="line"/>
      <point x="493" y="544" type="line"/>
      <point x="959" y="0" type="line"/>
    </contour>
  </outline>
</glyph>
<glyph name="l" format="2">
  <advance width="486"/>
  <unicode hex="006C"/>
  <anchor x="243" y="0" name="bottom"/>
  <anchor x="243" y="1417" name="top"/>
  <anchor x="486" y="1417" name="topright"/>
  <outline>
    <contour>
      <point x="156" y="0" type="line"/>
      <point x="330" y="0" type="line"/>
      <point x="330" y="1430" type="line"/>
      <point x="156" y="1402" type="line"/>
    </contour>
  </outline>
  <guideline angle="9.00086" x="0" y="1377.51"/>
</glyph>
<glyph name="m" format="2">
  <advance width="1695"/>
  <unicode hex="006D"/>
  <anchor x="852" y="0" name="bottom"/>
  <anchor x="855" y="946" name="top"/>
  <outline>
    <contour>
      <point x="156" y="0" type="line"/>
      <point x="156" y="665" type="line" smooth="yes"/>
      <point x="156" y="763"/>
      <point x="146" y="874"/>
      <point x="131" y="946" type="curve"/>
      <point x="288" y="946" type="line"/>
      <point x="307" y="909"/>
      <point x="322" y="836"/>
      <point x="329" y="748" type="curve"/>
      <point x="330" y="722" type="line"/>
      <point x="330" y="0" type="line"/>
    </contour>
    <contour>
      <point x="766" y="0" type="line"/>
      <point x="766" y="612" type="line" smooth="yes"/>
      <point x="766" y="764"/>
      <point x="707" y="836"/>
      <point x="581" y="836" type="curve" smooth="yes"/>
      <point x="485" y="836"/>
      <point x="388" y="790"/>
      <point x="323" y="716" type="curve"/>
      <point x="310" y="819" type="line"/>
      <point x="394" y="915"/>
      <point x="518" y="972"/>
      <point x="647" y="972" type="curve" smooth="yes"/>
      <point x="819" y="972"/>
      <point x="940" y="881"/>
      <point x="940" y="627" type="curve" smooth="yes"/>
      <point x="940" y="0" type="line"/>
    </contour>
    <contour>
      <point x="1376" y="0" type="line"/>
      <point x="1376" y="612" type="line" smooth="yes"/>
      <point x="1376" y="764"/>
      <point x="1317" y="836"/>
      <point x="1192" y="836" type="curve" smooth="yes"/>
      <point x="1095" y="836"/>
      <point x="998" y="790"/>
      <point x="933" y="716" type="curve"/>
      <point x="907" y="809" type="line"/>
      <point x="1000" y="913"/>
      <point x="1125" y="972"/>
      <point x="1258" y="972" type="curve" smooth="yes"/>
      <point x="1430" y="972"/>
      <point x="1550" y="881"/>
      <point x="1550" y="627" type="curve" smooth="yes"/>
      <point x="1550" y="0" type="line"/>
    </contour>
  </outline>
</glyph>
<glyph name="n" format="2">
  <advance width="1104"/>
  <unicode hex="006E"/>
  <anchor x="557" y="0" name="bottom"/>
  <anchor x="547" y="946" name="top"/>
  <anchor x="1074" y="946" name="topright"/>
  <outline>
    <contour>
      <point x="156" y="0" type="line"/>
      <point x="330" y="0" type="line"/>
      <point x="330" y="722" type="line"/>
      <point x="329" y="748" type="line"/>
      <point x="322" y="834"/>
      <point x="307" y="907"/>
      <point x="288" y="946" type="curve"/>
      <point x="131" y="946" type="line"/>
      <point x="146" y="871"/>
      <point x="156" y="760"/>
      <point x="156" y="665" type="curve" smooth="yes"/>
    </contour>
    <contour>
      <point x="785" y="0" type="line"/>
      <point x="959" y="0" type="line"/>
      <point x="958" y="637" type="line" smooth="yes"/>
      <point x="958" y="856"/>
      <point x="854" y="972"/>
      <point x="657" y="972" type="curve" smooth="yes"/>
      <point x="518" y="972"/>
      <point x="383" y="907"/>
      <point x="295" y="798" type="curve"/>
      <point x="295" y="679" type="line"/>
      <point x="370" y="776"/>
      <point x="483" y="836"/>
      <point x="592" y="836" type="curve" smooth="yes"/>
      <point x="725" y="836"/>
      <point x="785" y="761"/>
      <point x="785" y="607" type="curve" smooth="yes"/>
    </contour>
  </outline>
  <guideline angle="0" x="0" y="788"/>
</glyph>
<glyph name="o" format="2">
  <advance width="1103"/>
  <unicode hex="006F"/>
  <anchor x="544" y="0" name="bottom"/>
  <anchor x="551" y="946" name="top"/>
  <outline>
    <contour>
      <point x="536" y="-22" type="curve" smooth="yes"/>
      <point x="258" y="-22"/>
      <point x="92" y="160"/>
      <point x="92" y="465" type="curve" smooth="yes"/>
      <point x="92" y="780"/>
      <point x="269" y="972"/>
      <point x="559" y="972" type="curve" smooth="yes"/>
      <point x="841" y="972"/>
      <point x="1011" y="790"/>
      <point x="1011" y="489" type="curve" smooth="yes"/>
      <point x="1011" y="177"/>
      <point x="826" y="-22"/>
    </contour>
    <contour>
      <point x="547" y="95" type="curve" smooth="yes"/>
      <point x="733" y="95"/>
      <point x="831" y="229"/>
      <point x="831" y="482" type="curve" smooth="yes"/>
      <point x="831" y="730"/>
      <point x="737" y="855"/>
      <point x="551" y="855" type="curve" smooth="yes"/>
      <point x="364" y="855"/>
      <point x="272" y="730"/>
      <point x="272" y="478" type="curve" smooth="yes"/>
      <point x="272" y="224"/>
      <point x="365" y="95"/>
    </contour>
  </outline>
  <guideline angle="90" x="551" y="0"/>
</glyph>
<glyph name="p" format="2">
  <advance width="1101"/>
  <unicode hex="0070"/>
  <anchor x="517" y="-419" name="bottom"/>
  <anchor x="590" y="946" name="top"/>
  <outline>
    <contour>
      <point x="156" y="-419" type="line"/>
      <point x="156" y="665" type="line" smooth="yes"/>
      <point x="156" y="763"/>
      <point x="146" y="874"/>
      <point x="131" y="946" type="curve"/>
      <point x="288" y="946" type="line"/>
      <point x="311" y="895"/>
      <point x="316" y="850"/>
      <point x="324" y="798" type="curve"/>
      <point x="330" y="773" type="line"/>
      <point x="330" y="-419" type="line"/>
    </contour>
    <contour>
      <point x="559" y="-22" type="curve" smooth="yes"/>
      <point x="468" y="-22"/>
      <point x="395" y="2"/>
      <point x="300" y="64" type="curve"/>
      <point x="300" y="183" type="line"/>
      <point x="369" y="127"/>
      <point x="466" y="92"/>
      <point x="554" y="92" type="curve" smooth="yes"/>
      <point x="739" y="92"/>
      <point x="830" y="245"/>
      <point x="830" y="488" type="curve" smooth="yes"/>
      <point x="830" y="730"/>
      <point x="738" y="855"/>
      <point x="560" y="855" type="curve" smooth="yes"/>
      <point x="449" y="855"/>
      <point x="353" y="810"/>
      <point x="293" y="729" type="curve"/>
      <point x="293" y="848" type="line"/>
      <point x="371" y="929"/>
      <point x="478" y="972"/>
      <point x="598" y="972" type="curve" smooth="yes"/>
      <point x="847" y="972"/>
      <point x="1010" y="786"/>
      <point x="1010" y="502" type="curve" smooth="yes"/>
      <point x="1010" y="194"/>
      <point x="824" y="-22"/>
    </contour>
  </outline>
  <guideline angle="0" x="0" y="803"/>
  <guideline angle="0" x="0" y="99"/>
</glyph>
<glyph name="q" format="2">
  <advance width="1102"/>
  <unicode hex="0071"/>
  <anchor x="565" y="-419" name="bottom"/>
  <anchor x="587" y="946" name="top"/>
  <outline>
    <contour>
      <point x="502" y="-22" type="curve" smooth="yes"/>
      <point x="253" y="-22"/>
      <point x="92" y="168"/>
      <point x="92" y="461" type="curve" smooth="yes"/>
      <point x="92" y="770"/>
      <point x="269" y="972"/>
      <point x="539" y="972" type="curve" smooth="yes"/>
      <point x="640" y="972"/>
      <point x="720" y="943"/>
      <point x="806" y="876" type="curve"/>
      <point x="806" y="759" type="line"/>
      <point x="734" y="822"/>
      <point x="638" y="859"/>
      <point x="544" y="859" type="curve" smooth="yes"/>
      <point x="366" y="859"/>
      <point x="272" y="729"/>
      <point x="272" y="471" type="curve" smooth="yes"/>
      <point x="272" y="221"/>
      <point x="362" y="95"/>
      <point x="540" y="95" type="curve" smooth="yes"/>
      <point x="650" y="95"/>
      <point x="743" y="141"/>
      <point x="802" y="225" type="curve"/>
      <point x="802" y="106" type="line"/>
      <point x="727" y="22"/>
      <point x="623" y="-22"/>
    </contour>
    <contour>
      <point x="772" y="-419" type="line"/>
      <point x="772" y="787" type="line" smooth="yes"/>
      <point x="772" y="834"/>
      <point x="782" y="887"/>
      <point x="801" y="946" type="curve"/>
      <point x="959" y="946" type="line"/>
      <point x="951" y="886"/>
      <point x="946" y="787"/>
      <point x="946" y="692" type="curve" smooth="yes"/>
      <point x="946" y="-419" type="line"/>
    </contour>
  </outline>
  <guideline angle="0" x="0" y="844"/>
  <guideline angle="0" x="0" y="149"/>
</glyph>
<glyph name="r" format="2">
  <advance width="683"/>
  <unicode hex="0072"/>
  <anchor x="243" y="0" name="bottom"/>
  <anchor x="404" y="946" name="top"/>
  <anchor x="743" y="946" name="topright"/>
  <outline>
    <contour>
      <point x="156" y="0" type="line"/>
      <point x="330" y="0" type="line"/>
      <point x="330" y="722" type="line"/>
      <point x="329" y="748" type="line"/>
      <point x="322" y="835"/>
      <point x="307" y="908"/>
      <point x="288" y="946" type="curve"/>
      <point x="131" y="946" type="line"/>
      <point x="146" y="874"/>
      <point x="156" y="763"/>
      <point x="156" y="665" type="curve" smooth="yes"/>
    </contour>
    <contour>
      <point x="303" y="632" type="line"/>
      <point x="338" y="748"/>
      <point x="446" y="815"/>
      <point x="598" y="815" type="curve" smooth="yes"/>
      <point x="622" y="815"/>
      <point x="645" y="813"/>
      <point x="674" y="810" type="curve"/>
      <point x="674" y="963" type="line"/>
      <point x="655" y="964"/>
      <point x="643" y="965"/>
      <point x="630" y="965" type="curve" smooth="yes"/>
      <point x="494" y="965"/>
      <point x="391" y="905"/>
      <point x="299" y="771" type="curve"/>
    </contour>
  </outline>
  <guideline angle="0" x="0" y="743"/>
</glyph>
<glyph name="s" format="2">
  <advance width="823"/>
  <unicode hex="0073"/>
  <anchor x="412" y="0" name="bottom"/>
  <anchor x="422" y="946" name="top"/>
  <anchor x="833" y="946" name="topright"/>
  <outline>
    <contour>
      <point x="401" y="-22" type="curve" smooth="yes"/>
      <point x="616" y="-22"/>
      <point x="754" y="86"/>
      <point x="754" y="254" type="curve" smooth="yes"/>
      <point x="754" y="435"/>
      <point x="594" y="501"/>
      <point x="451" y="556" type="curve" smooth="yes"/>
      <point x="288" y="619"/>
      <point x="248" y="649"/>
      <point x="248" y="715" type="curve" smooth="yes"/>
      <point x="248" y="797"/>
      <point x="329" y="846"/>
      <point x="467" y="846" type="curve" smooth="yes"/>
      <point x="545" y="846"/>
      <point x="626" y="829"/>
      <point x="709" y="796" type="curve"/>
      <point x="709" y="922" type="line"/>
      <point x="644" y="954"/>
      <point x="554" y="972"/>
      <point x="463" y="972" type="curve" smooth="yes"/>
      <point x="231" y="972"/>
      <point x="82" y="864"/>
      <point x="82" y="694" type="curve" smooth="yes"/>
      <point x="82" y="526"/>
      <point x="224" y="468"/>
      <point x="379" y="407" type="curve" smooth="yes"/>
      <point x="548" y="341"/>
      <point x="588" y="307"/>
      <point x="588" y="235" type="curve" smooth="yes"/>
      <point x="588" y="151"/>
      <point x="516" y="104"/>
      <point x="386" y="104" type="curve" smooth="yes"/>
      <point x="282" y="104"/>
      <point x="161" y="136"/>
      <point x="80" y="185" type="curve"/>
      <point x="73" y="179" type="line"/>
      <point x="102" y="60" type="line"/>
      <point x="187" y="7"/>
      <point x="291" y="-22"/>
    </contour>
  </outline>
</glyph>
<glyph name="t" format="2">
  <advance width="624"/>
  <unicode hex="0074"/>
  <anchor x="387" y="0" name="bottom"/>
  <anchor x="266" y="1188" name="top"/>
  <outline>
    <contour>
      <point x="385" y="-22" type="curve" smooth="yes"/>
      <point x="237" y="-22"/>
      <point x="160" y="56"/>
      <point x="160" y="207" type="curve" smooth="yes"/>
      <point x="160" y="1173" type="line"/>
      <point x="332" y="1201" type="line"/>
      <point x="332" y="233" type="line" smooth="yes"/>
      <point x="332" y="139"/>
      <point x="361" y="104"/>
      <point x="437" y="104" type="curve" smooth="yes"/>
      <point x="489" y="104"/>
      <point x="530" y="116"/>
      <point x="590" y="150" type="curve"/>
      <point x="597" y="144" type="line"/>
      <point x="567" y="29" type="line"/>
      <point x="518" y="-3"/>
      <point x="451" y="-22"/>
    </contour>
    <contour>
      <point x="18" y="820" type="line"/>
      <point x="34" y="930" type="line"/>
      <point x="249" y="937" type="line"/>
      <point x="569" y="937" type="line"/>
      <point x="569" y="820" type="line"/>
    </contour>
  </outline>
</glyph>
<glyph name="u" format="2">
  <advance width="1098"/>
  <unicode hex="0075"/>
  <anchor x="555" y="0" name="bottom"/>
  <anchor x="545" y="946" name="top"/>
  <anchor x="1098" y="946" name="topright"/>
  <outline>
    <contour>
      <point x="443" y="-22" type="curve" smooth="yes"/>
      <point x="573" y="-22"/>
      <point x="697" y="35"/>
      <point x="784" y="142" type="curve"/>
      <point x="775" y="242" type="line"/>
      <point x="706" y="161"/>
      <point x="604" y="113"/>
      <point x="505" y="113" type="curve" smooth="yes"/>
      <point x="380" y="113"/>
      <point x="321" y="184"/>
      <point x="321" y="336" type="curve" smooth="yes"/>
      <point x="321" y="946" type="line"/>
      <point x="147" y="946" type="line"/>
      <point x="147" y="324" type="line" smooth="yes"/>
      <point x="147" y="98"/>
      <point x="246" y="-22"/>
    </contour>
    <contour>
      <point x="810" y="0" type="curve"/>
      <point x="971" y="0" type="line"/>
      <point x="952" y="91"/>
      <point x="942" y="185"/>
      <point x="942" y="271" type="curve" smooth="yes"/>
      <point x="942" y="946" type="line"/>
      <point x="768" y="946" type="line"/>
      <point x="768" y="226" type="line"/>
      <point x="772" y="168" type="line"/>
      <point x="778" y="106"/>
      <point x="790" y="51"/>
    </contour>
  </outline>
  <guideline angle="90" x="545" y="0"/>
</glyph>
<glyph name="v" format="2">
  <advance width="941"/>
  <unicode hex="0076"/>
  <anchor x="473" y="0" name="bottom"/>
  <anchor x="488" y="946" name="top"/>
  <outline>
    <contour>
      <point x="381" y="0" type="line"/>
      <point x="5" y="946" type="line"/>
      <point x="192" y="946" type="line"/>
      <point x="481" y="168" type="line"/>
      <point x="490" y="168" type="line"/>
      <point x="774" y="946" type="line"/>
      <point x="937" y="946" type="line"/>
      <point x="559" y="0" type="line"/>
    </contour>
  </outline>
</glyph>
<glyph name="w" format="2">
  <advance width="1418"/>
  <unicode hex="0077"/>
  <anchor x="701" y="0" name="bottom"/>
  <anchor x="726" y="946" name="top"/>
  <anchor x="1468" y="946" name="topright"/>
  <outline>
    <contour>
      <point x="286" y="0" type="line"/>
      <point x="477" y="0" type="line"/>
      <point x="656" y="594" type="line" smooth="yes"/>
      <point x="673" y="652"/>
      <point x="690" y="710"/>
      <point x="699" y="759" type="curve"/>
      <point x="707" y="759" type="line"/>
      <point x="716" y="710"/>
      <point x="732" y="650"/>
      <point x="749" y="593" type="curve" smooth="yes"/>
      <point x="933" y="0" type="line"/>
      <point x="1125" y="0" type="line"/>
      <point x="1401" y="946" type="line"/>
      <point x="1244" y="946" type="line"/>
      <point x="1086" y="340" type="line" smooth="yes"/>
      <point x="1069" y="271"/>
      <point x="1059" y="231"/>
      <point x="1049" y="162" type="curve"/>
      <point x="1042" y="162" type="line"/>
      <point x="1030" y="229"/>
      <point x="1017" y="273"/>
      <point x="998" y="337" type="curve" smooth="yes"/>
      <point x="812" y="946" type="line"/>
      <point x="631" y="946" type="line"/>
      <point x="448" y="340" type="line" smooth="yes"/>
      <point x="431" y="282"/>
      <point x="413" y="222"/>
      <point x="403" y="162" type="curve"/>
      <point x="396" y="162" type="line"/>
      <point x="389" y="222"/>
      <point x="373" y="279"/>
      <point x="358" y="337" type="curve" smooth="yes"/>
      <point x="203" y="946" type="line"/>
      <point x="23" y="946" type="line"/>
    </contour>
  </outline>
  <guideline angle="0" x="0" y="162"/>
  <guideline angle="107.082" x="292.365" y="0"/>
  <guideline angle="72.9178" x="1128.22" y="0"/>
</glyph>
<glyph name="x" format="2">
  <advance width="917"/>
  <unicode hex="0078"/>
  <anchor x="448" y="0" name="bottom"/>
  <anchor x="469" y="946" name="top"/>
  <anchor x="967" y="946" name="topright"/>
  <outline>
    <contour>
      <point x="697" y="0" type="line"/>
      <point x="903" y="0" type="line"/>
      <point x="234" y="946" type="line"/>
      <point x="30" y="946" type="line"/>
    </contour>
    <contour>
      <point x="14" y="0" type="line"/>
      <point x="178" y="0" type="line"/>
      <point x="459" y="386" type="line"/>
      <point x="389" y="499" type="line"/>
    </contour>
    <contour>
      <point x="532" y="465" type="line"/>
      <point x="893" y="946" type="line"/>
      <point x="728" y="946" type="line"/>
      <point x="461" y="577" type="line"/>
    </contour>
  </outline>
  <guideline angle="90" x="48" y="0"/>
  <guideline angle="90" x="891" y="0"/>
</glyph>
<glyph name="y" format="2">
  <advance width="934"/>
  <unicode hex="0079"/>
  <anchor x="376" y="-419" name="bottom"/>
  <anchor x="472" y="946" name="top"/>
  <anchor x="984" y="946" name="topright"/>
  <outline>
    <contour>
      <point x="447" y="-26" type="curve"/>
      <point x="528" y="207" type="line"/>
      <point x="489" y="207" type="line"/>
      <point x="174" y="946" type="line"/>
      <point x="-14" y="946" type="line"/>
      <point x="419" y="-21" type="line"/>
      <point x="424" y="-24"/>
      <point x="430" y="-25"/>
    </contour>
    <contour>
      <point x="201" y="-426" type="curve" smooth="yes"/>
      <point x="319" y="-426"/>
      <point x="419" y="-364"/>
      <point x="490" y="-180" type="curve" smooth="yes"/>
      <point x="925" y="946" type="line"/>
      <point x="761" y="946" type="line"/>
      <point x="381" y="-125" type="line" smooth="yes"/>
      <point x="338" y="-245"/>
      <point x="284" y="-264"/>
      <point x="204" y="-264" type="curve" smooth="yes"/>
      <point x="140" y="-264"/>
      <point x="91" y="-252"/>
      <point x="54" y="-241" type="curve"/>
      <point x="48" y="-248" type="line"/>
      <point x="87" y="-407" type="line"/>
      <point x="124" y="-420"/>
      <point x="164" y="-426"/>
    </contour>
  </outline>
  <guideline angle="0" x="0" y="131"/>
</glyph>
<glyph name="z" format="2">
  <advance width="900"/>
  <unicode hex="007A"/>
  <anchor x="445" y="0" name="bottom"/>
  <anchor x="467" y="946" name="top"/>
  <anchor x="920" y="946" name="topright"/>
  <outline>
    <contour>
      <point x="68" y="0" type="line"/>
      <point x="813" y="0" type="line"/>
      <point x="831" y="126" type="line"/>
      <point x="241" y="126" type="line"/>
      <point x="287" y="86" type="line"/>
      <point x="287" y="129" type="line"/>
      <point x="821" y="832" type="line"/>
      <point x="821" y="946" type="line"/>
      <point x="95" y="946" type="line"/>
      <point x="95" y="820" type="line"/>
      <point x="651" y="820" type="line"/>
      <point x="603" y="861" type="line"/>
      <point x="603" y="816" type="line"/>
      <point x="68" y="114" type="line"/>
    </contour>
  </outline>
  <guideline angle="90" x="841" y="0"/>
  <guideline angle="90" x="69" y="0"/>
</glyph>
<glyph name="braceleft" format="2">
  <advance width="741"/>
  <unicode hex="007B"/>
  <outline>
    <contour>
      <point x="73" y="445" type="curve"/>
      <point x="82" y="551" type="line"/>
      <point x="244" y="569"/>
      <point x="296" y="625"/>
      <point x="296" y="781" type="curve" smooth="yes"/>
      <point x="296" y="848"/>
      <point x="286" y="963"/>
      <point x="286" y="1031" type="curve" smooth="yes"/>
      <point x="286" y="1245"/>
      <point x="388" y="1344"/>
      <point x="603" y="1344" type="curve" smooth="yes"/>
      <point x="631" y="1344"/>
      <point x="662" y="1342"/>
      <point x="695" y="1338" type="curve"/>
      <point x="695" y="1221" type="line"/>
      <point x="673" y="1224"/>
      <point x="653" y="1225"/>
      <point x="630" y="1225" type="curve" smooth="yes"/>
      <point x="502" y="1225"/>
      <point x="451" y="1167"/>
      <point x="451" y="1016" type="curve" smooth="yes"/>
      <point x="451" y="942"/>
      <point x="459" y="844"/>
      <point x="459" y="782" type="curve" smooth="yes"/>
      <point x="459" y="620"/>
      <point x="400" y="542"/>
      <point x="245" y="501" type="curve"/>
      <point x="245" y="494" type="line"/>
      <point x="400" y="453"/>
      <point x="459" y="376"/>
      <point x="459" y="214" type="curve" smooth="yes"/>
      <point x="459" y="152"/>
      <point x="451" y="52"/>
      <point x="451" y="-20" type="curve" smooth="yes"/>
      <point x="451" y="-168"/>
      <point x="500" y="-230"/>
      <point x="630" y="-230" type="curve" smooth="yes"/>
      <point x="649" y="-230"/>
      <point x="668" y="-228"/>
      <point x="695" y="-225" type="curve"/>
      <point x="695" y="-343" type="line"/>
      <point x="667" y="-346"/>
      <point x="637" y="-348"/>
      <point x="603" y="-348" type="curve" smooth="yes"/>
      <point x="388" y="-348"/>
      <point x="286" y="-247"/>
      <point x="286" y="-35" type="curve" smooth="yes"/>
      <point x="286" y="32"/>
      <point x="296" y="147"/>
      <point x="296" y="214" type="curve" smooth="yes"/>
      <point x="296" y="367"/>
      <point x="238" y="427"/>
    </contour>
  </outline>
  <guideline angle="0" x="0" y="498"/>
</glyph>
<glyph name="bar" format="2">
  <advance width="659"/>
  <unicode hex="007C"/>
  <outline>
    <contour>
      <point x="247" y="-456" type="line"/>
      <point x="247" y="1460" type="line"/>
      <point x="412" y="1460" type="line"/>
      <point x="412" y="-456" type="line"/>
    </contour>
  </outline>
</glyph>
<glyph name="braceright" format="2">
  <advance width="741"/>
  <unicode hex="007D"/>
  <outline>
    <contour>
      <point x="46" y="-225" type="curve"/>
      <point x="46" y="-343" type="line"/>
      <point x="74" y="-346"/>
      <point x="103" y="-348"/>
      <point x="137" y="-348" type="curve" smooth="yes"/>
      <point x="352" y="-348"/>
      <point x="455" y="-247"/>
      <point x="455" y="-35" type="curve" smooth="yes"/>
      <point x="455" y="32"/>
      <point x="445" y="147"/>
      <point x="445" y="214" type="curve" smooth="yes"/>
      <point x="445" y="371"/>
      <point x="497" y="427"/>
      <point x="658" y="445" type="curve"/>
      <point x="667" y="551" type="line"/>
      <point x="502" y="569"/>
      <point x="445" y="629"/>
      <point x="445" y="781" type="curve" smooth="yes"/>
      <point x="445" y="848"/>
      <point x="455" y="963"/>
      <point x="455" y="1031" type="curve" smooth="yes"/>
      <point x="455" y="1243"/>
      <point x="353" y="1344"/>
      <point x="137" y="1344" type="curve" smooth="yes"/>
      <point x="109" y="1344"/>
      <point x="79" y="1342"/>
      <point x="46" y="1338" type="curve"/>
      <point x="46" y="1221" type="line"/>
      <point x="68" y="1224"/>
      <point x="88" y="1225"/>
      <point x="111" y="1225" type="curve" smooth="yes"/>
      <point x="237" y="1225"/>
      <point x="290" y="1170"/>
      <point x="290" y="1016" type="curve" smooth="yes"/>
      <point x="290" y="942"/>
      <point x="281" y="844"/>
      <point x="281" y="782" type="curve" smooth="yes"/>
      <point x="281" y="621"/>
      <point x="341" y="543"/>
      <point x="496" y="501" type="curve"/>
      <point x="496" y="494" type="line"/>
      <point x="340" y="452"/>
      <point x="281" y="375"/>
      <point x="281" y="214" type="curve" smooth="yes"/>
      <point x="281" y="152"/>
      <point x="290" y="52"/>
      <point x="290" y="-21" type="curve" smooth="yes"/>
      <point x="290" y="-168"/>
      <point x="242" y="-230"/>
      <point x="111" y="-230" type="curve" smooth="yes"/>
      <point x="93" y="-230"/>
      <point x="73" y="-228"/>
    </contour>
  </outline>
</glyph>
<glyph name="asciitilde" format="2">
  <advance width="1119"/>
  <unicode hex="007E"/>
  <outline>
    <contour>
      <point x="49" y="371" type="curve"/>
      <point x="170" y="335" type="line"/>
      <point x="203" y="432"/>
      <point x="264" y="484"/>
      <point x="346" y="484" type="curve" smooth="yes"/>
      <point x="406" y="484"/>
      <point x="450" y="457"/>
      <point x="522" y="413" type="curve" smooth="yes"/>
      <point x="631" y="346"/>
      <point x="693" y="324"/>
      <point x="770" y="324" type="curve" smooth="yes"/>
      <point x="918" y="324"/>
      <point x="1029" y="417"/>
      <point x="1070" y="574" type="curve"/>
      <point x="948" y="610" type="line"/>
      <point x="914" y="511"/>
      <point x="857" y="460"/>
      <point x="776" y="460" type="curve" smooth="yes"/>
      <point x="715" y="460"/>
      <point x="666" y="490"/>
      <point x="596" y="532" type="curve" smooth="yes"/>
      <point x="485" y="598"/>
      <point x="428" y="621"/>
      <point x="348" y="621" type="curve" smooth="yes"/>
      <point x="200" y="621"/>
      <point x="90" y="529"/>
    </contour>
  </outline>
  <guideline angle="0" x="0" y="473"/>
</glyph>
<glyph name="exclamdown" format="2">
  <advance width="541"/>
  <unicode hex="00A1"/>
  <outline>
    <contour>
      <point x="160" y="-408" type="line"/>
      <point x="362" y="-377" type="line"/>
      <point x="319" y="554" type="line"/>
      <point x="203" y="554" type="line"/>
    </contour>
    <contour>
      <point x="257" y="705" type="curve" smooth="yes"/>
      <point x="332" y="705"/>
      <point x="380" y="753"/>
      <point x="380" y="829" type="curve" smooth="yes"/>
      <point x="380" y="902"/>
      <point x="337" y="946"/>
      <point x="264" y="946" type="curve" smooth="yes"/>
      <point x="188" y="946"/>
      <point x="142" y="899"/>
      <point x="142" y="823" type="curve" smooth="yes"/>
      <point x="142" y="750"/>
      <point x="185" y="705"/>
    </contour>
  </outline>
</glyph>
<glyph name="sterling" format="2">
  <advance width="1017"/>
  <unicode hex="00A3"/>
  <outline>
    <contour>
      <point x="96" y="0" type="line"/>
      <point x="96" y="120" type="line"/>
      <point x="240" y="238"/>
      <point x="302" y="340"/>
      <point x="302" y="461" type="curve" smooth="yes"/>
      <point x="302" y="525"/>
      <point x="287" y="574"/>
      <point x="237" y="678" type="curve" smooth="yes"/>
      <point x="186" y="783"/>
      <point x="166" y="858"/>
      <point x="166" y="947" type="curve" smooth="yes"/>
      <point x="166" y="1195"/>
      <point x="331" y="1339"/>
      <point x="615" y="1339" type="curve" smooth="yes"/>
      <point x="725" y="1339"/>
      <point x="822" y="1317"/>
      <point x="904" y="1273" type="curve"/>
      <point x="904" y="1139" type="line"/>
      <point x="799" y="1186"/>
      <point x="708" y="1209"/>
      <point x="621" y="1209" type="curve" smooth="yes"/>
      <point x="443" y="1209"/>
      <point x="338" y="1113"/>
      <point x="338" y="949" type="curve" smooth="yes"/>
      <point x="338" y="883"/>
      <point x="354" y="830"/>
      <point x="401" y="733" type="curve" smooth="yes"/>
      <point x="453" y="626"/>
      <point x="472" y="561"/>
      <point x="472" y="481" type="curve" smooth="yes"/>
      <point x="472" y="354"/>
      <point x="421" y="257"/>
      <point x="292" y="141" type="curve"/>
      <point x="292" y="93" type="line"/>
      <point x="203" y="134" type="line"/>
      <point x="944" y="134" type="line"/>
      <point x="925" y="0" type="line"/>
    </contour>
    <contour>
      <point x="73" y="550" type="line"/>
      <point x="90" y="666" type="line"/>
      <point x="840" y="666" type="line"/>
      <point x="824" y="550" type="line"/>
    </contour>
  </outline>
</glyph>
<glyph name="currency" format="2">
  <advance width="1166"/>
  <unicode hex="00A4"/>
  <outline>
    <contour>
      <point x="583" y="209" type="curve" smooth="yes"/>
      <point x="320" y="209"/>
      <point x="127" y="399"/>
      <point x="127" y="658" type="curve" smooth="yes"/>
      <point x="127" y="918"/>
      <point x="319" y="1108"/>
      <point x="583" y="1108" type="curve" smooth="yes"/>
      <point x="846" y="1108"/>
      <point x="1039" y="917"/>
      <point x="1039" y="658" type="curve" smooth="yes"/>
      <point x="1039" y="399"/>
      <point x="846" y="209"/>
    </contour>
    <contour>
      <point x="583" y="335" type="curve" smooth="yes"/>
      <point x="769" y="335"/>
      <point x="900" y="468"/>
      <point x="900" y="658" type="curve" smooth="yes"/>
      <point x="900" y="849"/>
      <point x="770" y="982"/>
      <point x="583" y="982" type="curve" smooth="yes"/>
      <point x="397" y="982"/>
      <point x="267" y="849"/>
      <point x="267" y="658" type="curve" smooth="yes"/>
      <point x="267" y="468"/>
      <point x="397" y="335"/>
    </contour>
    <contour>
      <point x="149" y="130" type="line"/>
      <point x="55" y="225" type="line"/>
      <point x="233" y="402" type="line"/>
      <point x="328" y="308" type="line"/>
    </contour>
    <contour>
      <point x="1111" y="225" type="line"/>
      <point x="1016" y="130" type="line"/>
      <point x="839" y="308" type="line"/>
      <point x="933" y="402" type="line"/>
    </contour>
    <contour>
      <point x="1016" y="1186" type="line"/>
      <point x="1111" y="1092" type="line"/>
      <point x="933" y="914" type="line"/>
      <point x="839" y="1008" type="line"/>
    </contour>
    <contour>
      <point x="55" y="1092" type="line"/>
      <point x="149" y="1186" type="line"/>
      <point x="327" y="1008" type="line"/>
      <point x="232" y="914" type="line"/>
    </contour>
  </outline>
  <guideline angle="0" x="0" y="658"/>
  <guideline angle="134.832" x="311" y="921"/>
  <guideline angle="225" x="1111" y="1185"/>
</glyph>
<glyph name="yen" format="2">
  <advance width="1022"/>
  <unicode hex="00A5"/>
  <outline>
    <contour>
      <point x="422" y="0" type="line"/>
      <point x="422" y="598" type="line"/>
      <point x="14" y="1314" type="line"/>
      <point x="221" y="1314" type="line"/>
      <point x="536" y="745" type="line"/>
      <point x="543" y="745" type="line"/>
      <point x="868" y="1314" type="line"/>
      <point x="1020" y="1314" type="line"/>
      <point x="600" y="601" type="line"/>
      <point x="600" y="0" type="line"/>
    </contour>
    <contour>
      <point x="127" y="248" type="line"/>
      <point x="144" y="365" type="line"/>
      <point x="895" y="365" type="line"/>
      <point x="878" y="248" type="line"/>
    </contour>
    <contour>
      <point x="127" y="475" type="line"/>
      <point x="144" y="591" type="line"/>
      <point x="895" y="591" type="line"/>
      <point x="878" y="475" type="line"/>
    </contour>
  </outline>
  <guideline angle="0" x="0" y="300"/>
</glyph>
<glyph name="brokenbar" format="2">
  <advance width="605"/>
  <unicode hex="00A6"/>
  <outline>
    <contour>
      <point x="220" y="0" type="line"/>
      <point x="385" y="0" type="line"/>
      <point x="385" y="581" type="line"/>
      <point x="220" y="581" type="line"/>
    </contour>
    <contour>
      <point x="220" y="733" type="line"/>
      <point x="385" y="733" type="line"/>
      <point x="385" y="1314" type="line"/>
      <point x="220" y="1314" type="line"/>
    </contour>
  </outline>
</glyph>
<glyph name="section" format="2">
  <advance width="967"/>
  <unicode hex="00A7"/>
  <outline>
    <contour>
      <point x="697" y="225" type="line"/>
      <point x="823" y="282"/>
      <point x="884" y="371"/>
      <point x="884" y="499" type="curve" smooth="yes"/>
      <point x="884" y="708"/>
      <point x="724" y="782"/>
      <point x="564" y="855" type="curve" smooth="yes"/>
      <point x="373" y="942"/>
      <point x="328" y="982"/>
      <point x="328" y="1064" type="curve" smooth="yes"/>
      <point x="328" y="1159"/>
      <point x="407" y="1213"/>
      <point x="545" y="1213" type="curve" smooth="yes"/>
      <point x="630" y="1213"/>
      <point x="700" y="1192"/>
      <point x="785" y="1142" type="curve"/>
      <point x="785" y="1272" type="line"/>
      <point x="718" y="1315"/>
      <point x="624" y="1338"/>
      <point x="521" y="1338" type="curve" smooth="yes"/>
      <point x="297" y="1338"/>
      <point x="162" y="1230"/>
      <point x="162" y="1051" type="curve" smooth="yes"/>
      <point x="162" y="859"/>
      <point x="315" y="784"/>
      <point x="460" y="719" type="curve" smooth="yes"/>
      <point x="617" y="648"/>
      <point x="719" y="606"/>
      <point x="719" y="477" type="curve" smooth="yes"/>
      <point x="719" y="391"/>
      <point x="672" y="329"/>
      <point x="587" y="303" type="curve"/>
    </contour>
    <contour>
      <point x="191" y="-202" type="line"/>
      <point x="249" y="-238"/>
      <point x="378" y="-269"/>
      <point x="471" y="-269" type="curve" smooth="yes"/>
      <point x="678" y="-269"/>
      <point x="806" y="-157"/>
      <point x="806" y="24" type="curve" smooth="yes"/>
      <point x="806" y="235"/>
      <point x="641" y="308"/>
      <point x="488" y="379" type="curve" smooth="yes"/>
      <point x="283" y="474"/>
      <point x="247" y="507"/>
      <point x="247" y="598" type="curve" smooth="yes"/>
      <point x="247" y="685"/>
      <point x="292" y="747"/>
      <point x="378" y="776" type="curve"/>
      <point x="275" y="854" type="line"/>
      <point x="150" y="803"/>
      <point x="82" y="707"/>
      <point x="82" y="580" type="curve" smooth="yes"/>
      <point x="82" y="376"/>
      <point x="249" y="302"/>
      <point x="407" y="232" type="curve" smooth="yes"/>
      <point x="589" y="151"/>
      <point x="638" y="105"/>
      <point x="638" y="15" type="curve" smooth="yes"/>
      <point x="638" y="-84"/>
      <point x="564" y="-141"/>
      <point x="436" y="-141" type="curve" smooth="yes"/>
      <point x="347" y="-141"/>
      <point x="253" y="-113"/>
      <point x="163" y="-59" type="curve"/>
      <point x="157" y="-65" type="line"/>
    </contour>
  </outline>
  <guideline angle="0" x="0" y="-269"/>
  <guideline angle="90" x="-327" y="0"/>
  <guideline angle="90" x="-864" y="0"/>
</glyph>
<glyph name="copyright" format="2">
  <advance width="1570"/>
  <unicode hex="00A9"/>
  <outline>
    <contour>
      <point x="785" y="-24" type="curve" smooth="yes"/>
      <point x="384" y="-24"/>
      <point x="101" y="257"/>
      <point x="101" y="656" type="curve" smooth="yes"/>
      <point x="101" y="1055"/>
      <point x="384" y="1338"/>
      <point x="785" y="1338" type="curve" smooth="yes"/>
      <point x="1186" y="1338"/>
      <point x="1470" y="1055"/>
      <point x="1470" y="656" type="curve" smooth="yes"/>
      <point x="1470" y="258"/>
      <point x="1186" y="-24"/>
    </contour>
    <contour>
      <point x="785" y="87" type="curve" smooth="yes"/>
      <point x="1111" y="87"/>
      <point x="1338" y="321"/>
      <point x="1338" y="656" type="curve" smooth="yes"/>
      <point x="1338" y="992"/>
      <point x="1111" y="1227"/>
      <point x="785" y="1227" type="curve" smooth="yes"/>
      <point x="460" y="1227"/>
      <point x="233" y="992"/>
      <point x="233" y="656" type="curve" smooth="yes"/>
      <point x="233" y="321"/>
      <point x="460" y="87"/>
    </contour>
    <contour>
      <point x="1043" y="907" type="line"/>
      <point x="974" y="944"/>
      <point x="909" y="961"/>
      <point x="836" y="961" type="curve" smooth="yes"/>
      <point x="655" y="961"/>
      <point x="555" y="856"/>
      <point x="555" y="664" type="curve" smooth="yes"/>
      <point x="555" y="467"/>
      <point x="661" y="356"/>
      <point x="847" y="356" type="curve" smooth="yes"/>
      <point x="929" y="356"/>
      <point x="995" y="376"/>
      <point x="1065" y="423" type="curve"/>
      <point x="1072" y="416" type="line"/>
      <point x="1044" y="305" type="line"/>
      <point x="986" y="261"/>
      <point x="896" y="236"/>
      <point x="798" y="236" type="curve" smooth="yes"/>
      <point x="542" y="236"/>
      <point x="383" y="395"/>
      <point x="383" y="650" type="curve" smooth="yes"/>
      <point x="383" y="914"/>
      <point x="552" y="1080"/>
      <point x="821" y="1080" type="curve" smooth="yes"/>
      <point x="905" y="1080"/>
      <point x="984" y="1062"/>
      <point x="1043" y="1028" type="curve"/>
    </contour>
  </outline>
  <guideline angle="0" x="0" y="237"/>
</glyph>
<glyph name="ordfeminine" format="2">
  <advance width="688"/>
  <unicode hex="00AA"/>
  <outline>
    <contour>
      <point x="481" y="541" type="curve"/>
      <point x="618" y="541" type="line"/>
      <point x="605" y="600"/>
      <point x="598" y="662"/>
      <point x="598" y="717" type="curve" smooth="yes"/>
      <point x="598" y="956" type="line" smooth="yes"/>
      <point x="598" y="1101"/>
      <point x="503" y="1174"/>
      <point x="330" y="1174" type="curve" smooth="yes"/>
      <point x="267" y="1174"/>
      <point x="202" y="1164"/>
      <point x="134" y="1144" type="curve"/>
      <point x="99" y="1055" type="line"/>
      <point x="105" y="1049" type="line"/>
      <point x="159" y="1069"/>
      <point x="238" y="1083"/>
      <point x="295" y="1083" type="curve" smooth="yes"/>
      <point x="406" y="1083"/>
      <point x="453" y="1038"/>
      <point x="453" y="923" type="curve" smooth="yes"/>
      <point x="453" y="706" type="line"/>
      <point x="454" y="687" type="line" smooth="yes"/>
      <point x="456" y="653"/>
      <point x="456" y="597"/>
    </contour>
    <contour>
      <point x="482" y="672" type="curve"/>
      <point x="482" y="752" type="line"/>
      <point x="422" y="659"/>
      <point x="370" y="622"/>
      <point x="302" y="622" type="curve" smooth="yes"/>
      <point x="237" y="622"/>
      <point x="198" y="658"/>
      <point x="198" y="717" type="curve" smooth="yes"/>
      <point x="198" y="802"/>
      <point x="277" y="840"/>
      <point x="454" y="840" type="curve"/>
      <point x="483" y="840" type="line"/>
      <point x="483" y="915" type="line"/>
      <point x="454" y="915" type="line"/>
      <point x="174" y="915"/>
      <point x="49" y="851"/>
      <point x="49" y="708" type="curve" smooth="yes"/>
      <point x="49" y="594"/>
      <point x="130" y="526"/>
      <point x="248" y="526" type="curve" smooth="yes"/>
      <point x="348" y="526"/>
      <point x="425" y="575"/>
    </contour>
  </outline>
  <guideline angle="90" color="1,0,0,1" x="146" y="0"/>
  <guideline angle="90" x="63" y="0"/>
</glyph>
<glyph name="logicalnot" format="2">
  <advance width="1118"/>
  <unicode hex="00AC"/>
  <outline>
    <contour>
      <point x="86" y="578" type="line"/>
      <point x="884" y="578" type="line"/>
      <point x="884" y="170" type="line"/>
      <point x="1018" y="170" type="line"/>
      <point x="1018" y="708" type="line"/>
      <point x="86" y="708" type="line"/>
    </contour>
  </outline>
</glyph>
<glyph name="registered" format="2">
  <advance width="1252"/>
  <unicode hex="00AE"/>
  <outline>
    <contour>
      <point x="626" y="404" type="curve" smooth="yes"/>
      <point x="320" y="404"/>
      <point x="103" y="620"/>
      <point x="103" y="925" type="curve" smooth="yes"/>
      <point x="103" y="1229"/>
      <point x="320" y="1446"/>
      <point x="626" y="1446" type="curve" smooth="yes"/>
      <point x="932" y="1446"/>
      <point x="1150" y="1230"/>
      <point x="1150" y="925" type="curve" smooth="yes"/>
      <point x="1150" y="620"/>
      <point x="933" y="404"/>
    </contour>
    <contour>
      <point x="626" y="499" type="curve" smooth="yes"/>
      <point x="869" y="499"/>
      <point x="1038" y="674"/>
      <point x="1038" y="925" type="curve" smooth="yes"/>
      <point x="1038" y="1176"/>
      <point x="869" y="1351"/>
      <point x="626" y="1351" type="curve" smooth="yes"/>
      <point x="383" y="1351"/>
      <point x="214" y="1176"/>
      <point x="214" y="925" type="curve" smooth="yes"/>
      <point x="214" y="674"/>
      <point x="383" y="499"/>
    </contour>
    <contour>
      <point x="415" y="612" type="line"/>
      <point x="415" y="1243" type="line"/>
      <point x="627" y="1243" type="line" smooth="yes"/>
      <point x="787" y="1243"/>
      <point x="875" y="1181"/>
      <point x="875" y="1068" type="curve" smooth="yes"/>
      <point x="875" y="947"/>
      <point x="777" y="871"/>
      <point x="620" y="871" type="curve" smooth="yes"/>
      <point x="515" y="871" type="line"/>
      <point x="515" y="956" type="line"/>
      <point x="613" y="956" type="line" smooth="yes"/>
      <point x="694" y="956"/>
      <point x="741" y="995"/>
      <point x="741" y="1063" type="curve" smooth="yes"/>
      <point x="741" y="1128"/>
      <point x="699" y="1160"/>
      <point x="611" y="1160" type="curve" smooth="yes"/>
      <point x="545" y="1160" type="line"/>
      <point x="545" y="612" type="line"/>
    </contour>
    <contour>
      <point x="779" y="612" type="line"/>
      <point x="580" y="902" type="line"/>
      <point x="721" y="902" type="line"/>
      <point x="930" y="612" type="line"/>
    </contour>
  </outline>
  <guideline angle="90" x="653" y="0"/>
  <guideline angle="0" x="0" y="919"/>
</glyph>
<glyph name="degree" format="2">
  <advance width="876"/>
  <unicode hex="00B0"/>
  <outline>
    <contour>
      <point x="437" y="657" type="curve" smooth="yes"/>
      <point x="233" y="657"/>
      <point x="83" y="801"/>
      <point x="83" y="997" type="curve" smooth="yes"/>
      <point x="83" y="1193"/>
      <point x="233" y="1338"/>
      <point x="437" y="1338" type="curve" smooth="yes"/>
      <point x="641" y="1338"/>
      <point x="793" y="1193"/>
      <point x="793" y="997" type="curve" smooth="yes"/>
      <point x="793" y="802"/>
      <point x="642" y="657"/>
    </contour>
    <contour>
      <point x="437" y="789" type="curve" smooth="yes"/>
      <point x="555" y="789"/>
      <point x="639" y="876"/>
      <point x="639" y="997" type="curve" smooth="yes"/>
      <point x="639" y="1119"/>
      <point x="556" y="1206"/>
      <point x="437" y="1206" type="curve" smooth="yes"/>
      <point x="319" y="1206"/>
      <point x="237" y="1120"/>
      <point x="237" y="997" type="curve" smooth="yes"/>
      <point x="237" y="875"/>
      <point x="319" y="789"/>
    </contour>
  </outline>
  <guideline angle="90" x="446" y="0"/>
</glyph>
<glyph name="plusminus" format="2">
  <advance width="1118"/>
  <unicode hex="00B1"/>
  <outline>
    <contour>
      <point x="86" y="0" type="line"/>
      <point x="1032" y="0" type="line"/>
      <point x="1032" y="130" type="line"/>
      <point x="86" y="130" type="line"/>
    </contour>
    <contour>
      <point x="86" y="536" type="line"/>
      <point x="1032" y="536" type="line"/>
      <point x="1032" y="666" type="line"/>
      <point x="86" y="666" type="line"/>
    </contour>
    <contour>
      <point x="492" y="238" type="line"/>
      <point x="626" y="238" type="line"/>
      <point x="626" y="964" type="line"/>
      <point x="492" y="964" type="line"/>
    </contour>
  </outline>
</glyph>
<glyph name="twosuperior" format="2">
  <advance width="685"/>
  <unicode hex="00B2"/>
  <outline>
    <contour>
      <point x="44" y="571" type="line"/>
      <point x="44" y="664" type="line"/>
      <point x="380" y="982"/>
      <point x="449" y="1071"/>
      <point x="449" y="1182" type="curve" smooth="yes"/>
      <point x="449" y="1283"/>
      <point x="391" y="1338"/>
      <point x="286" y="1338" type="curve" smooth="yes"/>
      <point x="215" y="1338"/>
      <point x="137" y="1312"/>
      <point x="70" y="1262" type="curve"/>
      <point x="70" y="1361" type="line"/>
      <point x="129" y="1409"/>
      <point x="226" y="1440"/>
      <point x="321" y="1440" type="curve" smooth="yes"/>
      <point x="496" y="1440"/>
      <point x="604" y="1347"/>
      <point x="604" y="1197" type="curve" smooth="yes"/>
      <point x="604" y="1038"/>
      <point x="486" y="934"/>
      <point x="200" y="678" type="curve"/>
      <point x="200" y="643" type="line"/>
      <point x="136" y="672" type="line"/>
      <point x="621" y="672" type="line"/>
      <point x="607" y="571" type="line"/>
    </contour>
  </outline>
</glyph>
<glyph name="threesuperior" format="2">
  <advance width="697"/>
  <unicode hex="00B3"/>
  <outline>
    <contour>
      <point x="66" y="621" type="line"/>
      <point x="132" y="579"/>
      <point x="218" y="555"/>
      <point x="306" y="555" type="curve" smooth="yes"/>
      <point x="503" y="555"/>
      <point x="640" y="660"/>
      <point x="640" y="812" type="curve" smooth="yes"/>
      <point x="640" y="922"/>
      <point x="564" y="1000"/>
      <point x="437" y="1023" type="curve"/>
      <point x="437" y="1027" type="line"/>
      <point x="550" y="1060"/>
      <point x="608" y="1127"/>
      <point x="608" y="1223" type="curve" smooth="yes"/>
      <point x="608" y="1357"/>
      <point x="495" y="1440"/>
      <point x="313" y="1440" type="curve" smooth="yes"/>
      <point x="230" y="1440"/>
      <point x="149" y="1422"/>
      <point x="82" y="1389" type="curve"/>
      <point x="82" y="1292" type="line"/>
      <point x="148" y="1322"/>
      <point x="222" y="1339"/>
      <point x="284" y="1339" type="curve" smooth="yes"/>
      <point x="395" y="1339"/>
      <point x="460" y="1290"/>
      <point x="460" y="1205" type="curve" smooth="yes"/>
      <point x="460" y="1112"/>
      <point x="385" y="1061"/>
      <point x="233" y="1061" type="curve" smooth="yes"/>
      <point x="217" y="1061"/>
      <point x="184" y="1061"/>
      <point x="159" y="1062" type="curve"/>
      <point x="159" y="961" type="line"/>
      <point x="193" y="965"/>
      <point x="232" y="965"/>
      <point x="249" y="965" type="curve" smooth="yes"/>
      <point x="407" y="965"/>
      <point x="488" y="914"/>
      <point x="488" y="815" type="curve" smooth="yes"/>
      <point x="488" y="716"/>
      <point x="407" y="657"/>
      <point x="271" y="657" type="curve" smooth="yes"/>
      <point x="191" y="657"/>
      <point x="116" y="677"/>
      <point x="49" y="717" type="curve"/>
      <point x="44" y="712" type="line"/>
    </contour>
  </outline>
</glyph>
<glyph name="micro" format="2">
  <advance width="1127"/>
  <unicode hex="00B5"/>
  <outline>
    <contour>
      <point x="156" y="-419" type="line"/>
      <point x="156" y="946" type="line"/>
      <point x="330" y="946" type="line"/>
      <point x="330" y="335" type="line"/>
      <point x="328" y="326" type="line"/>
      <point x="328" y="-419" type="line"/>
    </contour>
    <contour>
      <point x="249" y="315" type="curve"/>
      <point x="330" y="335" type="line"/>
      <point x="330" y="196"/>
      <point x="411" y="113"/>
      <point x="546" y="113" type="curve" smooth="yes"/>
      <point x="650" y="113"/>
      <point x="756" y="172"/>
      <point x="828" y="272" type="curve"/>
      <point x="828" y="170" type="line"/>
      <point x="755" y="41"/>
      <point x="652" y="-22"/>
      <point x="534" y="-22" type="curve" smooth="yes"/>
      <point x="361" y="-22"/>
      <point x="249" y="105"/>
    </contour>
    <contour>
      <point x="839" y="0" type="line"/>
      <point x="818" y="53"/>
      <point x="805" y="107"/>
      <point x="800" y="168" type="curve"/>
      <point x="797" y="226" type="line"/>
      <point x="797" y="946" type="line"/>
      <point x="971" y="946" type="line"/>
      <point x="971" y="271" type="line" smooth="yes"/>
      <point x="971" y="179"/>
      <point x="982" y="83"/>
      <point x="1001" y="0" type="curve"/>
    </contour>
  </outline>
  <guideline angle="0" x="0" y="211"/>
</glyph>
<glyph name="paragraph" format="2">
  <advance width="1191"/>
  <unicode hex="00B6"/>
  <outline>
    <contour>
      <point x="554" y="-295" type="line"/>
      <point x="554" y="531" type="line"/>
      <point x="530" y="531" type="line" smooth="yes"/>
      <point x="238" y="531"/>
      <point x="73" y="672"/>
      <point x="73" y="920" type="curve" smooth="yes"/>
      <point x="73" y="1173"/>
      <point x="245" y="1314"/>
      <point x="554" y="1314" type="curve" smooth="yes"/>
      <point x="1013" y="1314" type="line"/>
      <point x="1013" y="-223" type="line"/>
      <point x="848" y="-249" type="line"/>
      <point x="848" y="1187" type="line"/>
      <point x="719" y="1187" type="line"/>
      <point x="719" y="-269" type="line"/>
    </contour>
  </outline>
  <guideline angle="8.95615" x="0" y="-383.099"/>
</glyph>
<glyph name="onesuperior" format="2">
  <advance width="519"/>
  <unicode hex="00B9"/>
  <outline>
    <contour>
      <point x="239" y="571" type="line"/>
      <point x="388" y="571" type="line"/>
      <point x="388" y="1425" type="line"/>
      <point x="261" y="1425" type="line"/>
      <point x="181" y="1359"/>
      <point x="108" y="1310"/>
      <point x="30" y="1270" type="curve"/>
      <point x="30" y="1188" type="line"/>
      <point x="36" y="1184" type="line"/>
      <point x="110" y="1209"/>
      <point x="184" y="1244"/>
      <point x="239" y="1281" type="curve"/>
    </contour>
  </outline>
</glyph>
<glyph name="ordmasculine" format="2">
  <advance width="738"/>
  <unicode hex="00BA"/>
  <outline>
    <contour>
      <point x="357" y="526" type="curve" smooth="yes"/>
      <point x="557" y="526"/>
      <point x="683" y="655"/>
      <point x="683" y="859" type="curve" smooth="yes"/>
      <point x="683" y="1056"/>
      <point x="568" y="1174"/>
      <point x="375" y="1174" type="curve" smooth="yes"/>
      <point x="176" y="1174"/>
      <point x="55" y="1049"/>
      <point x="55" y="844" type="curve" smooth="yes"/>
      <point x="55" y="644"/>
      <point x="167" y="526"/>
    </contour>
    <contour>
      <point x="367" y="612" type="curve" smooth="yes"/>
      <point x="261" y="612"/>
      <point x="207" y="692"/>
      <point x="207" y="851" type="curve" smooth="yes"/>
      <point x="207" y="1010"/>
      <point x="260" y="1088"/>
      <point x="368" y="1088" type="curve" smooth="yes"/>
      <point x="476" y="1088"/>
      <point x="530" y="1010"/>
      <point x="530" y="854" type="curve" smooth="yes"/>
      <point x="530" y="695"/>
      <point x="474" y="612"/>
    </contour>
  </outline>
  <guideline angle="90" color="1,0,0,1" x="543" y="0"/>
</glyph>
<glyph name="questiondown" format="2">
  <advance width="821"/>
  <unicode hex="00BF"/>
  <outline>
    <contour>
      <point x="433" y="554" type="line"/>
      <point x="434" y="543"/>
      <point x="434" y="527"/>
      <point x="434" y="512" type="curve" smooth="yes"/>
      <point x="434" y="378"/>
      <point x="363" y="324"/>
      <point x="257" y="238" type="curve" smooth="yes"/>
      <point x="165" y="164"/>
      <point x="69" y="82"/>
      <point x="69" y="-82" type="curve" smooth="yes"/>
      <point x="69" y="-293"/>
      <point x="229" y="-415"/>
      <point x="456" y="-415" type="curve" smooth="yes"/>
      <point x="601" y="-415"/>
      <point x="699" y="-365"/>
      <point x="748" y="-336" type="curve"/>
      <point x="748" y="-207" type="line"/>
      <point x="699" y="-238"/>
      <point x="605" y="-285"/>
      <point x="488" y="-285" type="curve" smooth="yes"/>
      <point x="333" y="-285"/>
      <point x="247" y="-202"/>
      <point x="247" y="-61" type="curve" smooth="yes"/>
      <point x="247" y="52"/>
      <point x="302" y="101"/>
      <point x="392" y="174" type="curve" smooth="yes"/>
      <point x="474" y="241"/>
      <point x="554" y="308"/>
      <point x="554" y="465" type="curve" smooth="yes"/>
      <point x="554" y="493"/>
      <point x="551" y="522"/>
      <point x="546" y="554" type="curve"/>
    </contour>
    <contour>
      <point x="484" y="705" type="curve" smooth="yes"/>
      <point x="557" y="705"/>
      <point x="608" y="750"/>
      <point x="608" y="829" type="curve" smooth="yes"/>
      <point x="608" y="903"/>
      <point x="562" y="946"/>
      <point x="491" y="946" type="curve" smooth="yes"/>
      <point x="420" y="946"/>
      <point x="369" y="904"/>
      <point x="369" y="823" type="curve" smooth="yes"/>
      <point x="369" y="750"/>
      <point x="412" y="705"/>
    </contour>
  </outline>
</glyph>
<glyph name="AE" format="2">
  <advance width="1598"/>
  <unicode hex="00C6"/>
  <anchor x="792" y="0" name="bottom"/>
  <anchor x="1039" y="1314" name="top"/>
  <outline>
    <contour>
      <point x="-48" y="0" type="line"/>
      <point x="653" y="1314" type="line"/>
      <point x="1522" y="1314" type="line"/>
      <point x="1504" y="1185" type="line"/>
      <point x="950" y="1185" type="line"/>
      <point x="950" y="129" type="line"/>
      <point x="1543" y="129" type="line"/>
      <point x="1543" y="0" type="line"/>
      <point x="767" y="0" type="line"/>
      <point x="767" y="1183" type="line"/>
      <point x="735" y="1183" type="line"/>
      <point x="129" y="0" type="line"/>
    </contour>
    <contour>
      <point x="920" y="619" type="line"/>
      <point x="920" y="746" type="line"/>
      <point x="1424" y="746" type="line"/>
      <point x="1424" y="619" type="line"/>
    </contour>
    <contour>
      <point x="797" y="589" type="line"/>
      <point x="797" y="462" type="line"/>
      <point x="336" y="462" type="line"/>
      <point x="401" y="589" type="line"/>
    </contour>
  </outline>
  <guideline angle="0" x="0" y="658"/>
</glyph>
<glyph name="Eth" format="2">
  <advance width="1422"/>
  <unicode hex="00D0"/>
  <anchor x="671" y="0" name="bottom"/>
  <anchor x="671" y="1314" name="top"/>
  <anchor x="1382" y="1314" name="topright"/>
  <outline>
    <contour>
      <point x="206" y="0" type="line"/>
      <point x="548" y="0" type="line" smooth="yes"/>
      <point x="1032" y="0"/>
      <point x="1312" y="248"/>
      <point x="1312" y="675" type="curve" smooth="yes"/>
      <point x="1312" y="1093"/>
      <point x="1049" y="1314"/>
      <point x="551" y="1314" type="curve" smooth="yes"/>
      <point x="206" y="1314" type="line"/>
    </contour>
    <contour>
      <point x="390" y="1185" type="line"/>
      <point x="542" y="1185" type="line" smooth="yes"/>
      <point x="936" y="1185"/>
      <point x="1123" y="1021"/>
      <point x="1123" y="675" type="curve" smooth="yes"/>
      <point x="1123" y="319"/>
      <point x="924" y="129"/>
      <point x="551" y="129" type="curve" smooth="yes"/>
      <point x="390" y="129" type="line"/>
    </contour>
    <contour>
      <point x="45" y="619" type="line"/>
      <point x="692" y="619" type="line"/>
      <point x="710" y="746" type="line"/>
      <point x="45" y="746" type="line"/>
    </contour>
  </outline>
  <guideline angle="90" x="425" y="0"/>
</glyph>
<glyph name="multiply" format="2">
  <advance width="1118"/>
  <unicode hex="00D7"/>
  <outline>
    <contour>
      <point x="104" y="833" type="line"/>
      <point x="919" y="18" type="line"/>
      <point x="1014" y="113" type="line"/>
      <point x="199" y="928" type="line"/>
    </contour>
    <contour>
      <point x="104" y="113" type="line"/>
      <point x="199" y="18" type="line"/>
      <point x="1014" y="833" type="line"/>
      <point x="919" y="928" type="line"/>
    </contour>
  </outline>
</glyph>
<glyph name="Oslash" format="2">
  <advance width="1463"/>
  <unicode hex="00D8"/>
  <anchor x="723" y="0" name="bottom"/>
  <anchor x="731" y="1314" name="top"/>
  <outline>
    <contour>
      <point x="719" y="-24" type="curve" smooth="yes"/>
      <point x="344" y="-24"/>
      <point x="110" y="236"/>
      <point x="110" y="654" type="curve" smooth="yes"/>
      <point x="110" y="1074"/>
      <point x="351" y="1338"/>
      <point x="736" y="1338" type="curve" smooth="yes"/>
      <point x="1116" y="1338"/>
      <point x="1353" y="1081"/>
      <point x="1353" y="670" type="curve" smooth="yes"/>
      <point x="1353" y="248"/>
      <point x="1104" y="-24"/>
    </contour>
    <contour>
      <point x="724" y="101" type="curve" smooth="yes"/>
      <point x="1009" y="101"/>
      <point x="1163" y="300"/>
      <point x="1163" y="669" type="curve" smooth="yes"/>
      <point x="1163" y="1029"/>
      <point x="1017" y="1213"/>
      <point x="732" y="1213" type="curve" smooth="yes"/>
      <point x="445" y="1213"/>
      <point x="300" y="1027"/>
      <point x="300" y="659" type="curve" smooth="yes"/>
      <point x="300" y="292"/>
      <point x="445" y="101"/>
    </contour>
    <contour>
      <point x="259" y="-38" type="line"/>
      <point x="156" y="37" type="line"/>
      <point x="1202" y="1352" type="line"/>
      <point x="1306" y="1278" type="line"/>
    </contour>
  </outline>
</glyph>
<glyph name="Thorn" format="2">
  <advance width="1111"/>
  <unicode hex="00DE"/>
  <anchor x="546" y="0" name="bottom"/>
  <anchor x="546" y="1314" name="top"/>
  <outline>
    <contour>
      <point x="160" y="0" type="line"/>
      <point x="160" y="1314" type="line"/>
      <point x="344" y="1314" type="line"/>
      <point x="344" y="0" type="line"/>
    </contour>
    <contour>
      <point x="314" y="281" type="line"/>
      <point x="314" y="410" type="line"/>
      <point x="517" y="410" type="line" smooth="yes"/>
      <point x="728" y="410"/>
      <point x="845" y="513"/>
      <point x="845" y="686" type="curve" smooth="yes"/>
      <point x="845" y="859"/>
      <point x="731" y="944"/>
      <point x="512" y="944" type="curve" smooth="yes"/>
      <point x="314" y="944" type="line"/>
      <point x="314" y="1073" type="line"/>
      <point x="528" y="1073" type="line" smooth="yes"/>
      <point x="855" y="1073"/>
      <point x="1033" y="937"/>
      <point x="1033" y="689" type="curve" smooth="yes"/>
      <point x="1033" y="433"/>
      <point x="842" y="281"/>
      <point x="522" y="281" type="curve" smooth="yes"/>
    </contour>
  </outline>
  <guideline angle="90" x="323" y="0"/>
</glyph>
<glyph name="germandbls" format="2">
  <advance width="1072"/>
  <unicode hex="00DF"/>
  <anchor x="546" y="0" name="bottom"/>
  <anchor x="550" y="1417" name="top"/>
  <anchor x="1032" y="1417" name="topright"/>
  <outline>
    <contour>
      <point x="156" y="0" type="line"/>
      <point x="329" y="0" type="line"/>
      <point x="329" y="1026" type="line" smooth="yes"/>
      <point x="329" y="1277"/>
      <point x="477" y="1304"/>
      <point x="548" y="1304" type="curve" smooth="yes"/>
      <point x="663" y="1304"/>
      <point x="752" y="1234"/>
      <point x="752" y="1108" type="curve" smooth="yes"/>
      <point x="752" y="1030"/>
      <point x="717" y="985"/>
      <point x="665" y="923" type="curve" smooth="yes"/>
      <point x="619" y="868"/>
      <point x="572" y="811"/>
      <point x="572" y="714" type="curve" smooth="yes"/>
      <point x="572" y="588"/>
      <point x="652" y="520"/>
      <point x="726" y="459" type="curve" smooth="yes"/>
      <point x="809" y="390"/>
      <point x="863" y="346"/>
      <point x="863" y="254" type="curve" smooth="yes"/>
      <point x="863" y="143"/>
      <point x="786" y="103"/>
      <point x="686" y="103" type="curve" smooth="yes"/>
      <point x="585" y="103"/>
      <point x="482" y="144"/>
      <point x="427" y="181" type="curve"/>
      <point x="421" y="175" type="line"/>
      <point x="449" y="56" type="line"/>
      <point x="530" y="3"/>
      <point x="629" y="-22"/>
      <point x="718" y="-22" type="curve" smooth="yes"/>
      <point x="913" y="-22"/>
      <point x="1031" y="100"/>
      <point x="1031" y="267" type="curve" smooth="yes"/>
      <point x="1031" y="415"/>
      <point x="936" y="496"/>
      <point x="854" y="566" type="curve" smooth="yes"/>
      <point x="777" y="631"/>
      <point x="735" y="666"/>
      <point x="735" y="730" type="curve" smooth="yes"/>
      <point x="735" y="782"/>
      <point x="763" y="815"/>
      <point x="811" y="870" type="curve" smooth="yes"/>
      <point x="860" y="927"/>
      <point x="915" y="997"/>
      <point x="915" y="1115" type="curve" smooth="yes"/>
      <point x="915" y="1296"/>
      <point x="787" y="1430"/>
      <point x="554" y="1430" type="curve" smooth="yes"/>
      <point x="368" y="1430"/>
      <point x="156" y="1346"/>
      <point x="156" y="993" type="curve" smooth="yes"/>
    </contour>
  </outline>
  <guideline angle="90" x="1025" y="0"/>
</glyph>
<glyph name="ae" format="2">
  <advance width="1628"/>
  <unicode hex="00E6"/>
  <anchor x="765" y="0" name="bottom"/>
  <anchor x="809" y="946" name="top"/>
  <anchor x="1588" y="946" name="topright"/>
  <outline>
    <contour>
      <point x="399" y="-22" type="curve" smooth="yes"/>
      <point x="559" y="-22"/>
      <point x="686" y="57"/>
      <point x="786" y="218" type="curve"/>
      <point x="736" y="319" type="line"/>
      <point x="655" y="176"/>
      <point x="554" y="104"/>
      <point x="434" y="104" type="curve" smooth="yes"/>
      <point x="325" y="104"/>
      <point x="259" y="162"/>
      <point x="259" y="258" type="curve" smooth="yes"/>
      <point x="259" y="400"/>
      <point x="395" y="464"/>
      <point x="703" y="464" type="curve" smooth="yes"/>
      <point x="731" y="464" type="line"/>
      <point x="731" y="572" type="line"/>
      <point x="703" y="572" type="line" smooth="yes"/>
      <point x="275" y="572"/>
      <point x="82" y="472"/>
      <point x="82" y="252" type="curve" smooth="yes"/>
      <point x="82" y="83"/>
      <point x="203" y="-22"/>
    </contour>
    <contour>
      <point x="1162" y="-22" type="curve" smooth="yes"/>
      <point x="1282" y="-22"/>
      <point x="1396" y="11"/>
      <point x="1484" y="71" type="curve"/>
      <point x="1511" y="201" type="line"/>
      <point x="1505" y="206" type="line"/>
      <point x="1403" y="135"/>
      <point x="1310" y="105"/>
      <point x="1197" y="105" type="curve" smooth="yes"/>
      <point x="975" y="105"/>
      <point x="872" y="224"/>
      <point x="872" y="479" type="curve" smooth="yes"/>
      <point x="872" y="720"/>
      <point x="965" y="856"/>
      <point x="1131" y="856" type="curve" smooth="yes"/>
      <point x="1279" y="856"/>
      <point x="1355" y="747"/>
      <point x="1355" y="536" type="curve"/>
      <point x="1394" y="571" type="line"/>
      <point x="842" y="571" type="line"/>
      <point x="842" y="458" type="line"/>
      <point x="1536" y="458" type="line"/>
      <point x="1537" y="469"/>
      <point x="1537" y="476"/>
      <point x="1537" y="490" type="curve" smooth="yes"/>
      <point x="1537" y="802"/>
      <point x="1395" y="972"/>
      <point x="1136" y="972" type="curve" smooth="yes"/>
      <point x="975" y="972"/>
      <point x="854" y="904"/>
      <point x="775" y="770" type="curve"/>
      <point x="839" y="770" type="line"/>
      <point x="798" y="903"/>
      <point x="678" y="972"/>
      <point x="487" y="972" type="curve" smooth="yes"/>
      <point x="403" y="972"/>
      <point x="316" y="959"/>
      <point x="207" y="930" type="curve"/>
      <point x="159" y="807" type="line"/>
      <point x="168" y="798" type="line"/>
      <point x="253" y="828"/>
      <point x="369" y="849"/>
      <point x="451" y="849" type="curve" smooth="yes"/>
      <point x="623" y="849"/>
      <point x="701" y="777"/>
      <point x="701" y="587" type="curve" smooth="yes"/>
      <point x="701" y="474" type="line" smooth="yes"/>
      <point x="701" y="161"/>
      <point x="871" y="-22"/>
    </contour>
  </outline>
  <guideline angle="0" x="0" y="770"/>
</glyph>
<glyph name="eth" format="2">
  <advance width="1109"/>
  <unicode hex="00F0"/>
  <anchor x="544" y="0" name="bottom"/>
  <anchor x="575" y="1417" name="top"/>
  <outline>
    <contour>
      <point x="538" y="-22" type="curve" smooth="yes"/>
      <point x="267" y="-22"/>
      <point x="92" y="164"/>
      <point x="92" y="451" type="curve" smooth="yes"/>
      <point x="92" y="741"/>
      <point x="278" y="937"/>
      <point x="553" y="937" type="curve" smooth="yes"/>
      <point x="651" y="937"/>
      <point x="736" y="908"/>
      <point x="816" y="848" type="curve"/>
      <point x="816" y="732" type="line"/>
      <point x="763" y="785"/>
      <point x="663" y="820"/>
      <point x="562" y="820" type="curve" smooth="yes"/>
      <point x="373" y="820"/>
      <point x="272" y="697"/>
      <point x="272" y="466" type="curve" smooth="yes"/>
      <point x="272" y="232"/>
      <point x="374" y="95"/>
      <point x="548" y="95" type="curve" smooth="yes"/>
      <point x="730" y="95"/>
      <point x="829" y="245"/>
      <point x="829" y="521" type="curve" smooth="yes"/>
      <point x="829" y="644"/>
      <point x="800" y="776"/>
      <point x="748" y="891" type="curve"/>
      <point x="753" y="895" type="line"/>
      <point x="653" y="1096"/>
      <point x="493" y="1260"/>
      <point x="269" y="1393" type="curve"/>
      <point x="269" y="1402" type="line"/>
      <point x="444" y="1430" type="line"/>
      <point x="812" y="1202"/>
      <point x="1009" y="891"/>
      <point x="1009" y="538" type="curve" smooth="yes"/>
      <point x="1009" y="194"/>
      <point x="827" y="-22"/>
    </contour>
    <contour>
      <point x="308" y="1002" type="line"/>
      <point x="254" y="1103" type="line"/>
      <point x="852" y="1423" type="line"/>
      <point x="906" y="1323" type="line"/>
    </contour>
  </outline>
  <guideline angle="0" x="0" y="486"/>
  <guideline angle="76.4014" x="-6.4155" y="0"/>
  <guideline angle="103.599" x="542.57" y="0"/>
  <guideline angle="0" x="0" y="803"/>
</glyph>
<glyph name="divide" format="2">
  <advance width="1118"/>
  <unicode hex="00F7"/>
  <outline>
    <contour>
      <point x="556" y="37" type="curve" smooth="yes"/>
      <point x="628" y="37"/>
      <point x="672" y="80"/>
      <point x="672" y="149" type="curve" smooth="yes"/>
      <point x="672" y="216"/>
      <point x="629" y="258"/>
      <point x="561" y="258" type="curve" smooth="yes"/>
      <point x="491" y="258"/>
      <point x="447" y="215"/>
      <point x="447" y="147" type="curve" smooth="yes"/>
      <point x="447" y="79"/>
      <point x="488" y="37"/>
    </contour>
    <contour>
      <point x="86" y="408" type="line"/>
      <point x="1032" y="408" type="line"/>
      <point x="1032" y="538" type="line"/>
      <point x="86" y="538" type="line"/>
    </contour>
    <contour>
      <point x="555" y="688" type="curve" smooth="yes"/>
      <point x="626" y="688"/>
      <point x="671" y="731"/>
      <point x="671" y="801" type="curve" smooth="yes"/>
      <point x="671" y="868"/>
      <point x="628" y="909"/>
      <point x="560" y="909" type="curve" smooth="yes"/>
      <point x="490" y="909"/>
      <point x="446" y="866"/>
      <point x="446" y="798" type="curve" smooth="yes"/>
      <point x="446" y="730"/>
      <point x="487" y="688"/>
    </contour>
  </outline>
</glyph>
<glyph name="oslash" format="2">
  <advance width="1103"/>
  <unicode hex="00F8"/>
  <anchor x="544" y="0" name="bottom"/>
  <anchor x="551" y="946" name="top"/>
  <outline>
    <contour>
      <point x="538" y="-22" type="curve" smooth="yes"/>
      <point x="261" y="-22"/>
      <point x="92" y="162"/>
      <point x="92" y="466" type="curve" smooth="yes"/>
      <point x="92" y="778"/>
      <point x="270" y="972"/>
      <point x="558" y="972" type="curve" smooth="yes"/>
      <point x="838" y="972"/>
      <point x="1011" y="787"/>
      <point x="1011" y="487" type="curve" smooth="yes"/>
      <point x="1011" y="177"/>
      <point x="826" y="-22"/>
    </contour>
    <contour>
      <point x="546" y="95" type="curve" smooth="yes"/>
      <point x="734" y="95"/>
      <point x="831" y="228"/>
      <point x="831" y="485" type="curve" smooth="yes"/>
      <point x="831" y="734"/>
      <point x="740" y="855"/>
      <point x="553" y="855" type="curve" smooth="yes"/>
      <point x="364" y="855"/>
      <point x="272" y="731"/>
      <point x="272" y="475" type="curve" smooth="yes"/>
      <point x="272" y="221"/>
      <point x="363" y="95"/>
    </contour>
    <contour>
      <point x="106" y="36" type="line"/>
      <point x="905" y="985" type="line"/>
      <point x="996" y="914" type="line"/>
      <point x="198" y="-36" type="line"/>
    </contour>
  </outline>
  <guideline angle="330.721" x="0" y="-4.5825"/>
</glyph>
<glyph name="thorn" format="2">
  <advance width="1101"/>
  <unicode hex="00FE"/>
  <anchor x="517" y="-419" name="bottom"/>
  <anchor x="575" y="1417" name="top"/>
  <outline>
    <contour>
      <point x="156" y="-419" type="line"/>
      <point x="156" y="1402" type="line"/>
      <point x="330" y="1430" type="line"/>
      <point x="330" y="-419" type="line"/>
    </contour>
    <contour>
      <point x="559" y="-22" type="curve" smooth="yes"/>
      <point x="471" y="-22"/>
      <point x="398" y="1"/>
      <point x="313" y="57" type="curve"/>
      <point x="328" y="162" type="line"/>
      <point x="394" y="118"/>
      <point x="477" y="92"/>
      <point x="554" y="92" type="curve" smooth="yes"/>
      <point x="734" y="92"/>
      <point x="830" y="234"/>
      <point x="830" y="488" type="curve" smooth="yes"/>
      <point x="830" y="730"/>
      <point x="738" y="855"/>
      <point x="559" y="855" type="curve" smooth="yes"/>
      <point x="458" y="855"/>
      <point x="364" y="818"/>
      <point x="309" y="756" type="curve"/>
      <point x="309" y="872" type="line"/>
      <point x="377" y="935"/>
      <point x="484" y="972"/>
      <point x="596" y="972" type="curve" smooth="yes"/>
      <point x="847" y="972"/>
      <point x="1010" y="787"/>
      <point x="1010" y="502" type="curve" smooth="yes"/>
      <point x="1010" y="194"/>
      <point x="824" y="-22"/>
    </contour>
  </outline>
</glyph>
<glyph name="aogonek" format="2">
  <advance width="1020"/>
  <unicode hex="0105"/>
  <anchor x="500" y="-413" name="bottom.mkmk"/>
  <anchor x="504" y="946" name="top"/>
  <outline>
    <contour>
      <point x="903" y="0" type="line"/>
      <point x="884" y="91"/>
      <point x="874" y="185"/>
      <point x="874" y="271" type="curve" smooth="yes"/>
      <point x="874" y="649" type="line" smooth="yes"/>
      <point x="874" y="861"/>
      <point x="741" y="972"/>
      <point x="489" y="972" type="curve" smooth="yes"/>
      <point x="406" y="972"/>
      <point x="322" y="960"/>
      <point x="207" y="930" type="curve"/>
      <point x="159" y="807" type="line"/>
      <point x="168" y="798" type="line"/>
      <point x="254" y="829"/>
      <point x="370" y="849"/>
      <point x="459" y="849" type="curve" smooth="yes"/>
      <point x="630" y="849"/>
      <point x="702" y="771"/>
      <point x="702" y="587" type="curve" smooth="yes"/>
      <point x="702" y="254" type="line"/>
      <point x="702" y="232" type="line"/>
      <point x="704" y="137"/>
      <point x="718" y="58"/>
      <point x="744" y="0" type="curve"/>
    </contour>
    <contour>
      <point x="494" y="-423" type="curve" smooth="yes"/>
      <point x="549" y="-423"/>
      <point x="619" y="-405"/>
      <point x="651" y="-383" type="curve"/>
      <point x="677" y="-279" type="line"/>
      <point x="670" y="-273" type="line"/>
      <point x="637" y="-292"/>
      <point x="591" y="-305"/>
      <point x="552" y="-305" type="curve" smooth="yes"/>
      <point x="490" y="-305"/>
      <point x="455" y="-276"/>
      <point x="455" y="-226" type="curve" smooth="yes"/>
      <point x="455" y="-102"/>
      <point x="662" y="85"/>
      <point x="733" y="170" type="curve"/>
      <point x="733" y="310" type="line"/>
      <point x="647" y="170"/>
      <point x="552" y="104"/>
      <point x="435" y="104" type="curve" smooth="yes"/>
      <point x="325" y="104"/>
      <point x="259" y="163"/>
      <point x="259" y="261" type="curve" smooth="yes"/>
      <point x="259" y="402"/>
      <point x="396" y="464"/>
      <point x="705" y="464" type="curve" smooth="yes"/>
      <point x="732" y="464" type="line"/>
      <point x="732" y="572" type="line"/>
      <point x="705" y="572" type="line" smooth="yes"/>
      <point x="277" y="572"/>
      <point x="82" y="474"/>
      <point x="82" y="259" type="curve" smooth="yes"/>
      <point x="82" y="89"/>
      <point x="204" y="-22"/>
      <point x="393" y="-22" type="curve" smooth="yes"/>
      <point x="418" y="-22"/>
      <point x="442" y="-19"/>
      <point x="475" y="-13" type="curve"/>
      <point x="432" y="1" type="line"/>
      <point x="432" y="-25" type="line"/>
      <point x="359" y="-96"/>
      <point x="315" y="-182"/>
      <point x="315" y="-257" type="curve" smooth="yes"/>
      <point x="315" y="-356"/>
      <point x="388" y="-423"/>
    </contour>
  </outline>
</glyph>
<glyph name="dcroat" format="2">
  <advance width="1117"/>
  <unicode hex="0111"/>
  <anchor x="561" y="0" name="bottom"/>
  <anchor x="586" y="1417" name="top"/>
  <outline>
    <contour>
      <point x="502" y="-22" type="curve" smooth="yes"/>
      <point x="624" y="-22"/>
      <point x="730" y="24"/>
      <point x="806" y="110" type="curve"/>
      <point x="806" y="226" type="line"/>
      <point x="741" y="140"/>
      <point x="650" y="95"/>
      <point x="540" y="95" type="curve" smooth="yes"/>
      <point x="362" y="95"/>
      <point x="272" y="225"/>
      <point x="272" y="456" type="curve" smooth="yes"/>
      <point x="272" y="690"/>
      <point x="366" y="823"/>
      <point x="547" y="823" type="curve" smooth="yes"/>
      <point x="634" y="823"/>
      <point x="734" y="790"/>
      <point x="802" y="738" type="curve"/>
      <point x="802" y="853" type="line"/>
      <point x="719" y="910"/>
      <point x="637" y="936"/>
      <point x="542" y="936" type="curve" smooth="yes"/>
      <point x="270" y="936"/>
      <point x="92" y="735"/>
      <point x="92" y="446" type="curve" smooth="yes"/>
      <point x="92" y="173"/>
      <point x="254" y="-22"/>
    </contour>
    <contour>
      <point x="974" y="0" type="line"/>
      <point x="956" y="87"/>
      <point x="946" y="183"/>
      <point x="946" y="271" type="curve" smooth="yes"/>
      <point x="946" y="1430" type="line"/>
      <point x="772" y="1402" type="line"/>
      <point x="772" y="254" type="line" smooth="yes"/>
      <point x="772" y="151"/>
      <point x="786" y="64"/>
      <point x="814" y="0" type="curve"/>
    </contour>
    <contour>
      <point x="1099" y="1048" type="line"/>
      <point x="1116" y="1168" type="line"/>
      <point x="445" y="1168" type="line"/>
      <point x="445" y="1048" type="line"/>
    </contour>
  </outline>
  <guideline angle="261.933" x="1092" y="996"/>
  <guideline angle="0" x="0" y="936"/>
  <guideline angle="0" x="0" y="1168"/>
</glyph>
<glyph name="Hbar" format="2">
  <advance width="1426"/>
  <unicode hex="0126"/>
  <anchor x="713" y="0" name="bottom"/>
  <anchor x="713" y="1314" name="top"/>
  <outline>
    <contour>
      <point x="1226" y="0" type="line"/>
      <point x="1226" y="1314" type="line"/>
      <point x="1042" y="1314" type="line"/>
      <point x="1042" y="0" type="line"/>
    </contour>
    <contour>
      <point x="384" y="0" type="line"/>
      <point x="384" y="1314" type="line"/>
      <point x="200" y="1314" type="line"/>
      <point x="200" y="0" type="line"/>
    </contour>
    <contour>
      <point x="1072" y="558" type="line"/>
      <point x="1072" y="685" type="line"/>
      <point x="354" y="685" type="line"/>
      <point x="354" y="558" type="line"/>
    </contour>
    <contour>
      <point x="1378" y="932" type="line"/>
      <point x="1396" y="1059" type="line"/>
      <point x="49" y="1059" type="line"/>
      <point x="49" y="932" type="line"/>
    </contour>
  </outline>
  <guideline angle="261.933" x="1393" y="996"/>
  <guideline angle="0" x="0" y="1059"/>
</glyph>
<glyph name="hbar" format="2">
  <advance width="1108"/>
  <unicode hex="0127"/>
  <anchor x="562" y="0" name="bottom"/>
  <anchor x="526" y="1417" name="top"/>
  <outline>
    <contour>
      <point x="963" y="0" type="line"/>
      <point x="963" y="595" type="line" smooth="yes"/>
      <point x="963" y="820"/>
      <point x="862" y="936"/>
      <point x="667" y="936" type="curve" smooth="yes"/>
      <point x="532" y="936"/>
      <point x="401" y="878"/>
      <point x="305" y="774" type="curve"/>
      <point x="305" y="662" type="line"/>
      <point x="389" y="751"/>
      <point x="493" y="800"/>
      <point x="602" y="800" type="curve" smooth="yes"/>
      <point x="730" y="800"/>
      <point x="789" y="726"/>
      <point x="789" y="567" type="curve" smooth="yes"/>
      <point x="789" y="0" type="line"/>
    </contour>
    <contour>
      <point x="335" y="0" type="line"/>
      <point x="335" y="1430" type="line"/>
      <point x="161" y="1402" type="line"/>
      <point x="161" y="0" type="line"/>
    </contour>
    <contour>
      <point x="642" y="1048" type="line"/>
      <point x="659" y="1168" type="line"/>
      <point x="10" y="1168" type="line"/>
      <point x="10" y="1048" type="line"/>
    </contour>
  </outline>
  <guideline angle="261.933" x="635" y="996"/>
  <guideline angle="0" x="0" y="1168"/>
</glyph>
<glyph name="kgreenlandic" format="2">
  <advance width="987"/>
  <unicode hex="0138"/>
  <anchor x="539" y="0" name="bottom"/>
  <anchor x="529" y="946" name="top"/>
  <outline>
    <contour>
      <point x="735" y="0" type="line"/>
      <point x="317" y="498" type="line"/>
      <point x="764" y="946" type="line"/>
      <point x="937" y="946" type="line"/>
      <point x="493" y="507" type="line"/>
      <point x="493" y="544" type="line"/>
      <point x="959" y="0" type="line"/>
    </contour>
    <contour>
      <point x="156" y="0" type="line"/>
      <point x="156" y="946" type="line"/>
      <point x="330" y="946" type="line"/>
      <point x="330" y="0" type="line"/>
    </contour>
  </outline>
</glyph>
<glyph name="Lslash" format="2">
  <advance width="1010"/>
  <unicode hex="0141"/>
  <anchor x="588" y="0" name="bottom"/>
  <anchor x="297" y="1314" name="top"/>
  <outline>
    <contour>
      <point x="974" y="0" type="line"/>
      <point x="992" y="129" type="line"/>
      <point x="390" y="129" type="line"/>
      <point x="390" y="1314" type="line"/>
      <point x="206" y="1314" type="line"/>
      <point x="206" y="0" type="line"/>
    </contour>
    <contour>
      <point x="760" y="733" type="line"/>
      <point x="780" y="873" type="line"/>
      <point x="55" y="611" type="line"/>
      <point x="55" y="477" type="line"/>
    </contour>
  </outline>
  <guideline angle="90" x="55" y="0"/>
  <guideline angle="261.694" x="770" y="822"/>
  <guideline angle="19.957" x="408" y="605"/>
</glyph>
<glyph name="lslash" format="2">
  <advance width="597"/>
  <unicode hex="0142"/>
  <anchor x="299" y="0" name="bottom"/>
  <anchor x="299" y="1417" name="top"/>
  <outline>
    <contour>
      <point x="386" y="0" type="line"/>
      <point x="386" y="1430" type="line"/>
      <point x="212" y="1402" type="line"/>
      <point x="211" y="0" type="line"/>
    </contour>
    <contour>
      <point x="575" y="765" type="line"/>
      <point x="594" y="901" type="line"/>
      <point x="358" y="820" type="line"/>
      <point x="234" y="781" type="line"/>
      <point x="28" y="710" type="line"/>
      <point x="28" y="580" type="line"/>
      <point x="234" y="651" type="line"/>
      <point x="358" y="690" type="line"/>
    </contour>
  </outline>
  <guideline angle="261.694" x="601" y="822"/>
  <guideline angle="199.073" x="328" y="682"/>
</glyph>
<glyph name="Eng" format="2">
  <advance width="1330"/>
  <unicode hex="014A"/>
  <anchor x="665" y="-419" name="bottom"/>
  <anchor x="664" y="1314" name="top"/>
  <anchor x="1330" y="1314" name="topright"/>
  <outline>
    <contour>
      <point x="884" y="-433" type="curve" smooth="yes"/>
      <point x="1075" y="-433"/>
      <point x="1170" y="-323"/>
      <point x="1170" y="-104" type="curve" smooth="yes"/>
      <point x="1170" y="1314" type="line"/>
      <point x="1025" y="1314" type="line"/>
      <point x="1025" y="310" type="line"/>
      <point x="1017" y="310" type="line"/>
      <point x="983" y="372"/>
      <point x="947" y="430"/>
      <point x="905" y="488" type="curve" smooth="yes"/>
      <point x="299" y="1314" type="line"/>
      <point x="160" y="1314" type="line"/>
      <point x="160" y="0" type="line"/>
      <point x="305" y="0" type="line"/>
      <point x="305" y="1004" type="line"/>
      <point x="313" y="1004" type="line"/>
      <point x="347" y="942"/>
      <point x="382" y="885"/>
      <point x="425" y="826" type="curve" smooth="yes"/>
      <point x="1031" y="0" type="line"/>
      <point x="1031" y="-118" type="line" smooth="yes"/>
      <point x="1031" y="-254"/>
      <point x="969" y="-308"/>
      <point x="865" y="-308" type="curve" smooth="yes"/>
      <point x="818" y="-308"/>
      <point x="782" y="-301"/>
      <point x="725" y="-283" type="curve"/>
      <point x="718" y="-290" type="line"/>
      <point x="748" y="-409" type="line"/>
      <point x="781" y="-420"/>
      <point x="819" y="-433"/>
    </contour>
  </outline>
  <guideline angle="0" x="0" y="-433"/>
</glyph>
<glyph name="eng" format="2">
  <advance width="1104"/>
  <unicode hex="014B"/>
  <anchor x="557" y="-419" name="bottom"/>
  <anchor x="547" y="946" name="top"/>
  <outline>
    <contour>
      <point x="663" y="-428" type="curve" smooth="yes"/>
      <point x="861" y="-428"/>
      <point x="959" y="-315"/>
      <point x="959" y="-89" type="curve" smooth="yes"/>
      <point x="958" y="637" type="line" smooth="yes"/>
      <point x="958" y="855"/>
      <point x="855" y="972"/>
      <point x="662" y="972" type="curve" smooth="yes"/>
      <point x="519" y="972"/>
      <point x="384" y="908"/>
      <point x="295" y="798" type="curve"/>
      <point x="295" y="679" type="line"/>
      <point x="371" y="777"/>
      <point x="484" y="836"/>
      <point x="597" y="836" type="curve" smooth="yes"/>
      <point x="724" y="836"/>
      <point x="785" y="762"/>
      <point x="785" y="607" type="curve" smooth="yes"/>
      <point x="785" y="-103" type="line" smooth="yes"/>
      <point x="785" y="-253"/>
      <point x="744" y="-309"/>
      <point x="635" y="-309" type="curve" smooth="yes"/>
      <point x="599" y="-309"/>
      <point x="563" y="-302"/>
      <point x="501" y="-284" type="curve"/>
      <point x="494" y="-291" type="line"/>
      <point x="522" y="-404" type="line"/>
      <point x="556" y="-415"/>
      <point x="596" y="-428"/>
    </contour>
    <contour>
      <point x="330" y="0" type="line"/>
      <point x="330" y="722" type="line"/>
      <point x="329" y="748" type="line"/>
      <point x="322" y="834"/>
      <point x="307" y="907"/>
      <point x="288" y="946" type="curve"/>
      <point x="131" y="946" type="line"/>
      <point x="146" y="869"/>
      <point x="156" y="758"/>
      <point x="156" y="665" type="curve" smooth="yes"/>
      <point x="156" y="0" type="line"/>
    </contour>
  </outline>
</glyph>
<glyph name="OE" format="2">
  <advance width="1785"/>
  <unicode hex="0152"/>
  <anchor x="903" y="0" name="bottom"/>
  <anchor x="981" y="1314" name="top"/>
  <outline>
    <contour>
      <point x="716" y="-24" type="curve" smooth="yes"/>
      <point x="341" y="-24"/>
      <point x="110" y="234"/>
      <point x="110" y="652" type="curve" smooth="yes"/>
      <point x="110" y="1074"/>
      <point x="351" y="1338"/>
      <point x="736" y="1338" type="curve" smooth="yes"/>
      <point x="826" y="1338"/>
      <point x="911" y="1322"/>
      <point x="984" y="1292" type="curve"/>
      <point x="984" y="1154" type="line"/>
      <point x="919" y="1193"/>
      <point x="834" y="1213"/>
      <point x="737" y="1213" type="curve" smooth="yes"/>
      <point x="447" y="1213"/>
      <point x="300" y="1027"/>
      <point x="300" y="660" type="curve" smooth="yes"/>
      <point x="300" y="293"/>
      <point x="448" y="101"/>
      <point x="729" y="101" type="curve" smooth="yes"/>
      <point x="830" y="101"/>
      <point x="929" y="128"/>
      <point x="984" y="170" type="curve"/>
      <point x="984" y="32" type="line"/>
      <point x="911" y="-4"/>
      <point x="815" y="-24"/>
    </contour>
    <contour>
      <point x="954" y="0" type="line"/>
      <point x="954" y="1314" type="line"/>
      <point x="1709" y="1314" type="line"/>
      <point x="1691" y="1185" type="line"/>
      <point x="1137" y="1185" type="line"/>
      <point x="1137" y="746" type="line"/>
      <point x="1611" y="746" type="line"/>
      <point x="1611" y="619" type="line"/>
      <point x="1137" y="619" type="line"/>
      <point x="1137" y="129" type="line"/>
      <point x="1730" y="129" type="line"/>
      <point x="1730" y="0" type="line"/>
    </contour>
  </outline>
  <guideline angle="0" x="0" y="1231"/>
  <guideline angle="0" x="0" y="78"/>
</glyph>
<glyph name="oe" format="2">
  <advance width="1740"/>
  <unicode hex="0153"/>
  <anchor x="880" y="0" name="bottom"/>
  <anchor x="880" y="946" name="top"/>
  <outline>
    <contour>
      <point x="524" y="-22" type="curve" smooth="yes"/>
      <point x="254" y="-22"/>
      <point x="92" y="162"/>
      <point x="92" y="467" type="curve" smooth="yes"/>
      <point x="92" y="780"/>
      <point x="267" y="972"/>
      <point x="551" y="972" type="curve" smooth="yes"/>
      <point x="732" y="972"/>
      <point x="863" y="893"/>
      <point x="930" y="744" type="curve"/>
      <point x="875" y="744" type="line"/>
      <point x="946" y="891"/>
      <point x="1080" y="972"/>
      <point x="1252" y="972" type="curve" smooth="yes"/>
      <point x="1506" y="972"/>
      <point x="1649" y="802"/>
      <point x="1649" y="490" type="curve" smooth="yes"/>
      <point x="1649" y="476"/>
      <point x="1649" y="469"/>
      <point x="1648" y="458" type="curve"/>
      <point x="953" y="458" type="line"/>
      <point x="953" y="571" type="line"/>
      <point x="1506" y="571" type="line"/>
      <point x="1466" y="536" type="line"/>
      <point x="1466" y="748"/>
      <point x="1391" y="856"/>
      <point x="1244" y="856" type="curve" smooth="yes"/>
      <point x="1077" y="856"/>
      <point x="983" y="720"/>
      <point x="983" y="480" type="curve" smooth="yes"/>
      <point x="983" y="226"/>
      <point x="1088" y="105"/>
      <point x="1310" y="105" type="curve" smooth="yes"/>
      <point x="1423" y="105"/>
      <point x="1516" y="136"/>
      <point x="1617" y="206" type="curve"/>
      <point x="1623" y="201" type="line"/>
      <point x="1596" y="71" type="line"/>
      <point x="1509" y="11"/>
      <point x="1397" y="-22"/>
      <point x="1279" y="-22" type="curve" smooth="yes"/>
      <point x="1084" y="-22"/>
      <point x="940" y="63"/>
      <point x="869" y="221" type="curve"/>
      <point x="926" y="221" type="line"/>
      <point x="853" y="65"/>
      <point x="710" y="-22"/>
    </contour>
    <contour>
      <point x="539" y="95" type="curve" smooth="yes"/>
      <point x="718" y="95"/>
      <point x="812" y="228"/>
      <point x="812" y="482" type="curve" smooth="yes"/>
      <point x="812" y="730"/>
      <point x="722" y="855"/>
      <point x="542" y="855" type="curve" smooth="yes"/>
      <point x="362" y="855"/>
      <point x="272" y="730"/>
      <point x="272" y="478" type="curve" smooth="yes"/>
      <point x="272" y="224"/>
      <point x="362" y="95"/>
    </contour>
  </outline>
</glyph>
<glyph name="Tbar" format="2">
  <advance width="1026"/>
  <unicode hex="0166"/>
  <anchor x="514" y="0" name="bottom"/>
  <anchor x="514" y="1314" name="top"/>
  <outline>
    <contour>
      <point x="605" y="0" type="line"/>
      <point x="605" y="1215" type="line"/>
      <point x="421" y="1215" type="line"/>
      <point x="421" y="0" type="line"/>
    </contour>
    <contour>
      <point x="876" y="587" type="line"/>
      <point x="894" y="714" type="line"/>
      <point x="144" y="714" type="line"/>
      <point x="144" y="587" type="line"/>
    </contour>
    <contour>
      <point x="1003" y="1185" type="line"/>
      <point x="1021" y="1314" type="line"/>
      <point x="13" y="1314" type="line"/>
      <point x="13" y="1185" type="line"/>
    </contour>
  </outline>
</glyph>
<glyph name="tbar" format="2">
  <advance width="654"/>
  <unicode hex="0167"/>
  <anchor x="397" y="0" name="bottom"/>
  <anchor x="276" y="1188" name="top"/>
  <outline>
    <contour>
      <point x="395" y="-22" type="curve" smooth="yes"/>
      <point x="461" y="-22"/>
      <point x="528" y="-3"/>
      <point x="577" y="29" type="curve"/>
      <point x="607" y="144" type="line"/>
      <point x="600" y="150" type="line"/>
      <point x="540" y="116"/>
      <point x="499" y="104"/>
      <point x="447" y="104" type="curve" smooth="yes"/>
      <point x="371" y="104"/>
      <point x="342" y="139"/>
      <point x="342" y="233" type="curve" smooth="yes"/>
      <point x="342" y="1201" type="line"/>
      <point x="170" y="1173" type="line"/>
      <point x="170" y="207" type="line" smooth="yes"/>
      <point x="170" y="56"/>
      <point x="247" y="-22"/>
    </contour>
    <contour>
      <point x="556" y="503" type="line"/>
      <point x="573" y="623" type="line"/>
      <point x="26" y="623" type="line"/>
      <point x="26" y="503" type="line"/>
    </contour>
    <contour>
      <point x="556" y="820" type="line"/>
      <point x="573" y="937" type="line"/>
      <point x="259" y="937" type="line"/>
      <point x="26" y="930" type="line"/>
      <point x="26" y="820" type="line"/>
    </contour>
  </outline>
  <guideline angle="261.933" x="626" y="996"/>
  <guideline angle="261.933" x="53" y="996"/>
  <guideline angle="90" x="37" y="0"/>
</glyph>
<glyph name="uogonek" format="2">
  <advance width="1098"/>
  <unicode hex="0173"/>
  <anchor x="537" y="-413" name="bottom.mkmk"/>
  <anchor x="554" y="946" name="top"/>
  <outline>
    <contour>
      <point x="554" y="-423" type="curve" smooth="yes"/>
      <point x="609" y="-423"/>
      <point x="679" y="-405"/>
      <point x="711" y="-383" type="curve"/>
      <point x="737" y="-279" type="line"/>
      <point x="730" y="-273" type="line"/>
      <point x="697" y="-292"/>
      <point x="651" y="-305"/>
      <point x="612" y="-305" type="curve" smooth="yes"/>
      <point x="550" y="-305"/>
      <point x="515" y="-275"/>
      <point x="515" y="-225" type="curve" smooth="yes"/>
      <point x="515" y="-139"/>
      <point x="616" y="-7"/>
      <point x="801" y="150" type="curve"/>
      <point x="775" y="242" type="line"/>
      <point x="706" y="161"/>
      <point x="604" y="113"/>
      <point x="503" y="113" type="curve" smooth="yes"/>
      <point x="379" y="113"/>
      <point x="321" y="185"/>
      <point x="321" y="336" type="curve" smooth="yes"/>
      <point x="321" y="946" type="line"/>
      <point x="147" y="946" type="line"/>
      <point x="147" y="324" type="line" smooth="yes"/>
      <point x="147" y="96"/>
      <point x="248" y="-22"/>
      <point x="444" y="-22" type="curve" smooth="yes"/>
      <point x="483" y="-22"/>
      <point x="518" y="-18"/>
      <point x="543" y="-10" type="curve"/>
      <point x="493" y="3" type="line"/>
      <point x="493" y="-25" type="line"/>
      <point x="419" y="-96"/>
      <point x="375" y="-181"/>
      <point x="375" y="-257" type="curve" smooth="yes"/>
      <point x="375" y="-356"/>
      <point x="448" y="-423"/>
    </contour>
    <contour>
      <point x="971" y="0" type="line"/>
      <point x="952" y="91"/>
      <point x="942" y="185"/>
      <point x="942" y="271" type="curve" smooth="yes"/>
      <point x="942" y="946" type="line"/>
      <point x="768" y="946" type="line"/>
      <point x="768" y="226" type="line"/>
      <point x="772" y="168" type="line"/>
      <point x="778" y="101"/>
      <point x="790" y="47"/>
      <point x="810" y="0" type="curve"/>
    </contour>
  </outline>
</glyph>
<glyph name="Oopen" format="2">
  <advance width="1223"/>
  <unicode hex="0186"/>
  <anchor x="479" y="0" name="bottom"/>
  <anchor x="509" y="1314" name="top"/>
  <anchor x="1183" y="1314" name="topright"/>
  <outline>
    <contour>
      <point x="440" y="-24" type="curve" smooth="yes"/>
      <point x="856" y="-24"/>
      <point x="1113" y="242"/>
      <point x="1113" y="673" type="curve" smooth="yes"/>
      <point x="1113" y="1087"/>
      <point x="877" y="1338"/>
      <point x="489" y="1338" type="curve" smooth="yes"/>
      <point x="344" y="1338"/>
      <point x="204" y="1303"/>
      <point x="115" y="1245" type="curve"/>
      <point x="85" y="1124" type="line"/>
      <point x="91" y="1118" type="line"/>
      <point x="206" y="1180"/>
      <point x="318" y="1209"/>
      <point x="439" y="1209" type="curve" smooth="yes"/>
      <point x="750" y="1209"/>
      <point x="923" y="1009"/>
      <point x="923" y="648" type="curve" smooth="yes"/>
      <point x="923" y="295"/>
      <point x="757" y="108"/>
      <point x="442" y="108" type="curve" smooth="yes"/>
      <point x="318" y="108"/>
      <point x="195" y="137"/>
      <point x="75" y="194" type="curve"/>
      <point x="75" y="59" type="line"/>
      <point x="176" y="5"/>
      <point x="303" y="-24"/>
    </contour>
  </outline>
  <guideline angle="90" x="75" y="0"/>
</glyph>
<glyph name="Eturned" format="2">
  <advance width="1005"/>
  <unicode hex="018E"/>
  <anchor x="450" y="0" name="bottom"/>
  <anchor x="455" y="1314" name="top"/>
  <outline>
    <contour>
      <point x="67" y="129" type="line"/>
      <point x="661" y="129" type="line"/>
      <point x="661" y="619" type="line"/>
      <point x="174" y="619" type="line"/>
      <point x="174" y="746" type="line"/>
      <point x="661" y="746" type="line"/>
      <point x="661" y="1185" type="line"/>
      <point x="85" y="1185" type="line"/>
      <point x="85" y="1314" type="line"/>
      <point x="845" y="1314" type="line"/>
      <point x="845" y="0" type="line"/>
      <point x="48" y="0" type="line"/>
    </contour>
  </outline>
</glyph>
<glyph name="Schwa" format="2">
  <advance width="1352"/>
  <unicode hex="018F"/>
  <anchor x="658" y="0" name="bottom"/>
  <anchor x="644" y="1314" name="top"/>
  <anchor x="1312" y="1314" name="topright"/>
  <outline>
    <contour>
      <point x="650" y="-23" type="curve" smooth="yes"/>
      <point x="1012" y="-23"/>
      <point x="1242" y="250"/>
      <point x="1242" y="680" type="curve" smooth="yes"/>
      <point x="1242" y="1097"/>
      <point x="1025" y="1337"/>
      <point x="647" y="1337" type="curve" smooth="yes"/>
      <point x="483" y="1337"/>
      <point x="305" y="1291"/>
      <point x="205" y="1224" type="curve"/>
      <point x="174" y="1100" type="line"/>
      <point x="180" y="1094" type="line"/>
      <point x="311" y="1166"/>
      <point x="475" y="1209"/>
      <point x="619" y="1209" type="curve" smooth="yes"/>
      <point x="909" y="1209"/>
      <point x="1050" y="1032"/>
      <point x="1050" y="670" type="curve" smooth="yes"/>
      <point x="1050" y="308"/>
      <point x="909" y="102"/>
      <point x="662" y="102" type="curve" smooth="yes"/>
      <point x="431" y="102"/>
      <point x="288" y="287"/>
      <point x="297" y="588" type="curve"/>
      <point x="253" y="546" type="line"/>
      <point x="1081" y="546" type="line"/>
      <point x="1081" y="671" type="line"/>
      <point x="112" y="671" type="line"/>
      <point x="110" y="662"/>
      <point x="110" y="659"/>
      <point x="110" y="627" type="curve"/>
      <point x="110" y="218"/>
      <point x="310" y="-23"/>
    </contour>
  </outline>
</glyph>
<glyph name="Eopen" format="2">
  <advance width="1087"/>
  <unicode hex="0190"/>
  <anchor x="585" y="0" name="bottom"/>
  <anchor x="615" y="1314" name="top"/>
  <anchor x="1107" y="1314" name="topright"/>
  <outline>
    <contour>
      <point x="602" y="-24" type="curve" smooth="yes"/>
      <point x="752" y="-24"/>
      <point x="892" y="13"/>
      <point x="982" y="77" type="curve"/>
      <point x="1012" y="201" type="line"/>
      <point x="1006" y="207" type="line"/>
      <point x="901" y="142"/>
      <point x="775" y="108"/>
      <point x="641" y="108" type="curve" smooth="yes"/>
      <point x="411" y="108"/>
      <point x="268" y="209"/>
      <point x="268" y="372" type="curve" smooth="yes"/>
      <point x="268" y="538"/>
      <point x="414" y="619"/>
      <point x="716" y="619" type="curve" smooth="yes"/>
      <point x="772" y="619"/>
      <point x="812" y="617"/>
      <point x="833" y="613" type="curve"/>
      <point x="833" y="748" type="line"/>
      <point x="812" y="747"/>
      <point x="775" y="746"/>
      <point x="742" y="746" type="curve" smooth="yes"/>
      <point x="453" y="746"/>
      <point x="315" y="821"/>
      <point x="315" y="979" type="curve" smooth="yes"/>
      <point x="315" y="1125"/>
      <point x="432" y="1209"/>
      <point x="635" y="1209" type="curve" smooth="yes"/>
      <point x="752" y="1209"/>
      <point x="868" y="1183"/>
      <point x="982" y="1130" type="curve"/>
      <point x="982" y="1264" type="line"/>
      <point x="883" y="1314"/>
      <point x="770" y="1338"/>
      <point x="635" y="1338" type="curve" smooth="yes"/>
      <point x="323" y="1338"/>
      <point x="135" y="1210"/>
      <point x="135" y="997" type="curve" smooth="yes"/>
      <point x="135" y="852"/>
      <point x="222" y="753"/>
      <point x="395" y="702" type="curve"/>
      <point x="395" y="695" type="line"/>
      <point x="203" y="664"/>
      <point x="83" y="536"/>
      <point x="83" y="362" type="curve" smooth="yes"/>
      <point x="83" y="132"/>
      <point x="293" y="-24"/>
    </contour>
  </outline>
</glyph>
<glyph name="fhook" format="2">
  <advance width="600"/>
  <unicode hex="0192"/>
  <outline>
    <contour>
      <point x="-111" y="-284" type="line"/>
      <point x="-55" y="-302"/>
      <point x="-21" y="-309"/>
      <point x="17" y="-309" type="curve" smooth="yes"/>
      <point x="122" y="-309"/>
      <point x="160" y="-255"/>
      <point x="160" y="-113" type="curve" smooth="yes"/>
      <point x="160" y="1050" type="line" smooth="yes"/>
      <point x="160" y="1315"/>
      <point x="319" y="1430"/>
      <point x="525" y="1430" type="curve" smooth="yes"/>
      <point x="582" y="1430"/>
      <point x="633" y="1420"/>
      <point x="675" y="1402" type="curve"/>
      <point x="675" y="1277" type="line"/>
      <point x="634" y="1294"/>
      <point x="590" y="1302"/>
      <point x="540" y="1302" type="curve" smooth="yes"/>
      <point x="392" y="1302"/>
      <point x="333" y="1220"/>
      <point x="333" y="1063" type="curve" smooth="yes"/>
      <point x="333" y="-99" type="line" smooth="yes"/>
      <point x="333" y="-318"/>
      <point x="238" y="-428"/>
      <point x="47" y="-428" type="curve" smooth="yes"/>
      <point x="0" y="-428"/>
      <point x="-37" y="-422"/>
      <point x="-90" y="-404" type="curve"/>
      <point x="-117" y="-291" type="line"/>
    </contour>
    <contour>
      <point x="27" y="820" type="line"/>
      <point x="43" y="930" type="line"/>
      <point x="258" y="937" type="line"/>
      <point x="589" y="937" type="line"/>
      <point x="589" y="820" type="line"/>
    </contour>
  </outline>
</glyph>
<glyph name="GammaLatin" format="2">
  <advance width="1082"/>
  <unicode hex="0194"/>
  <anchor x="541" y="-419" name="bottom"/>
  <anchor x="566" y="1314" name="top"/>
  <anchor x="1112" y="1314" name="topright"/>
  <outline>
    <contour>
      <point x="544" y="-428" type="curve" smooth="yes"/>
      <point x="702" y="-428"/>
      <point x="804" y="-329"/>
      <point x="804" y="-175" type="curve" smooth="yes"/>
      <point x="804" y="-62"/>
      <point x="750" y="66"/>
      <point x="619" y="265" type="curve"/>
      <point x="629" y="128" type="line"/>
      <point x="1070" y="1314" type="line"/>
      <point x="902" y="1314" type="line"/>
      <point x="572" y="369" type="line"/>
      <point x="565" y="369" type="line"/>
      <point x="216" y="1314" type="line"/>
      <point x="16" y="1314" type="line"/>
      <point x="496" y="134" type="line"/>
      <point x="524" y="133" type="line"/>
      <point x="604" y="-2"/>
      <point x="642" y="-105"/>
      <point x="642" y="-183" type="curve" smooth="yes"/>
      <point x="642" y="-261"/>
      <point x="604" y="-307"/>
      <point x="538" y="-307" type="curve" smooth="yes"/>
      <point x="473" y="-307"/>
      <point x="435" y="-263"/>
      <point x="435" y="-189" type="curve" smooth="yes"/>
      <point x="435" y="-113"/>
      <point x="481" y="16"/>
      <point x="537" y="99" type="curve"/>
      <point x="610" y="99" type="line"/>
      <point x="476" y="223" type="line"/>
      <point x="365" y="80"/>
      <point x="298" y="-75"/>
      <point x="298" y="-189" type="curve" smooth="yes"/>
      <point x="298" y="-337"/>
      <point x="392" y="-428"/>
    </contour>
  </outline>
  <guideline angle="0" x="0" y="-428"/>
  <guideline angle="290.007" x="392" y="832"/>
  <guideline angle="90" x="567" y="0"/>
  <guideline angle="0" x="0" y="369"/>
  <guideline angle="0" x="0" y="99"/>
  <guideline angle="0" x="0" y="210"/>
</glyph>
<glyph name="IotaLatin" format="2">
  <advance width="624"/>
  <unicode hex="0196"/>
  <anchor x="365" y="0" name="bottom"/>
  <anchor x="252" y="1314" name="top"/>
  <anchor x="574" y="1314" name="topright"/>
  <outline>
    <contour>
      <point x="381" y="-22" type="curve" smooth="yes"/>
      <point x="452" y="-22"/>
      <point x="515" y="-3"/>
      <point x="564" y="29" type="curve"/>
      <point x="593" y="149" type="line"/>
      <point x="586" y="155" type="line"/>
      <point x="529" y="122"/>
      <point x="485" y="109"/>
      <point x="441" y="109" type="curve" smooth="yes"/>
      <point x="370" y="109"/>
      <point x="339" y="143"/>
      <point x="339" y="238" type="curve" smooth="yes"/>
      <point x="339" y="1314" type="line"/>
      <point x="155" y="1314" type="line"/>
      <point x="155" y="221" type="line" smooth="yes"/>
      <point x="155" y="55"/>
      <point x="229" y="-22"/>
    </contour>
  </outline>
  <guideline angle="76.0875" x="596" y="160"/>
</glyph>
<glyph name="Ibar" format="2">
  <advance width="594"/>
  <unicode hex="0197"/>
  <anchor x="297" y="0" name="bottom"/>
  <anchor x="297" y="1314" name="top"/>
  <outline>
    <contour>
      <point x="389" y="0" type="line"/>
      <point x="389" y="1314" type="line"/>
      <point x="205" y="1314" type="line"/>
      <point x="205" y="0" type="line"/>
    </contour>
    <contour>
      <point x="561" y="619" type="line"/>
      <point x="579" y="746" type="line"/>
      <point x="35" y="746" type="line"/>
      <point x="35" y="619" type="line"/>
    </contour>
  </outline>
  <guideline angle="261.933" x="624" y="996"/>
  <guideline angle="0" x="0" y="746"/>
</glyph>
<glyph name="lbar" format="2">
  <advance width="547"/>
  <unicode hex="019A"/>
  <anchor x="276" y="0" name="bottom"/>
  <anchor x="271" y="1417" name="top"/>
  <outline>
    <contour>
      <point x="358" y="0" type="line"/>
      <point x="358" y="1430" type="line"/>
      <point x="184" y="1402" type="line"/>
      <point x="184" y="0" type="line"/>
    </contour>
    <contour>
      <point x="511" y="644" type="line"/>
      <point x="528" y="764" type="line"/>
      <point x="28" y="764" type="line"/>
      <point x="28" y="644" type="line"/>
    </contour>
  </outline>
  <guideline angle="261.933" x="582" y="996"/>
  <guideline angle="90" x="528" y="0"/>
  <guideline angle="0" x="0" y="602"/>
  <guideline angle="90" x="271" y="0"/>
</glyph>
<glyph name="lambdabar" format="2">
  <advance width="970"/>
  <unicode hex="019B"/>
  <anchor x="501" y="0" name="bottom"/>
  <anchor x="370" y="1417" name="top"/>
  <outline>
    <contour>
      <point x="961" y="0" type="line"/>
      <point x="499" y="1157" type="line" smooth="yes"/>
      <point x="421" y="1352"/>
      <point x="335" y="1430"/>
      <point x="199" y="1430" type="curve" smooth="yes"/>
      <point x="162" y="1430"/>
      <point x="126" y="1425"/>
      <point x="85" y="1414" type="curve"/>
      <point x="26" y="1257" type="line"/>
      <point x="35" y="1248" type="line"/>
      <point x="87" y="1263"/>
      <point x="140" y="1271"/>
      <point x="185" y="1271" type="curve" smooth="yes"/>
      <point x="277" y="1271"/>
      <point x="324" y="1233"/>
      <point x="366" y="1123" type="curve" smooth="yes"/>
      <point x="474" y="842" type="line"/>
      <point x="796" y="0" type="line"/>
    </contour>
    <contour>
      <point x="210" y="0" type="line"/>
      <point x="515" y="712" type="line"/>
      <point x="545" y="712" type="line"/>
      <point x="478" y="1008" type="line"/>
      <point x="22" y="0" type="line"/>
    </contour>
    <contour>
      <point x="810" y="1007" type="line"/>
      <point x="829" y="1138" type="line"/>
      <point x="150" y="998" type="line"/>
      <point x="150" y="871" type="line"/>
    </contour>
  </outline>
  <guideline angle="261.694" x="783" y="822"/>
  <guideline angle="191.664" x="643" y="973"/>
  <guideline angle="191.664" x="643" y="1100"/>
</glyph>
<glyph name="Mturned" format="2">
  <advance width="1856"/>
  <unicode hex="019C"/>
  <anchor x="928" y="0" name="bottom"/>
  <anchor x="947" y="1314" name="top"/>
  <anchor x="1856" y="1314" name="topright"/>
  <outline>
    <contour>
      <point x="571" y="-24" type="curve" smooth="yes"/>
      <point x="754" y="-24"/>
      <point x="871" y="49"/>
      <point x="928" y="197" type="curve"/>
      <point x="904" y="196" type="line"/>
      <point x="967" y="51"/>
      <point x="1090" y="-24"/>
      <point x="1274" y="-24" type="curve" smooth="yes"/>
      <point x="1558" y="-24"/>
      <point x="1706" y="151"/>
      <point x="1706" y="447" type="curve" smooth="yes"/>
      <point x="1706" y="1314" type="line"/>
      <point x="1560" y="1314" type="line"/>
      <point x="1560" y="471" type="line" smooth="yes"/>
      <point x="1560" y="225"/>
      <point x="1471" y="101"/>
      <point x="1295" y="101" type="curve" smooth="yes"/>
      <point x="1119" y="101"/>
      <point x="1039" y="225"/>
      <point x="1039" y="499" type="curve" smooth="yes"/>
      <point x="1039" y="1314" type="line"/>
      <point x="855" y="1314" type="line"/>
      <point x="855" y="471" type="line" smooth="yes"/>
      <point x="855" y="225"/>
      <point x="766" y="101"/>
      <point x="590" y="101" type="curve" smooth="yes"/>
      <point x="414" y="101"/>
      <point x="334" y="225"/>
      <point x="334" y="499" type="curve" smooth="yes"/>
      <point x="334" y="1314" type="line"/>
      <point x="150" y="1314" type="line"/>
      <point x="150" y="447" type="line" smooth="yes"/>
      <point x="150" y="144"/>
      <point x="289" y="-24"/>
    </contour>
  </outline>
  <guideline angle="0" x="0" y="101"/>
  <guideline angle="90" x="928" y="0"/>
</glyph>
<glyph name="nlongright" format="2">
  <advance width="1104"/>
  <unicode hex="019E"/>
  <anchor x="557" y="-419" name="bottom"/>
  <anchor x="547" y="946" name="top"/>
  <outline>
    <contour>
      <point x="959" y="-419" type="line"/>
      <point x="959" y="637" type="line"/>
      <point x="958" y="856"/>
      <point x="854" y="972"/>
      <point x="657" y="972" type="curve" smooth="yes"/>
      <point x="518" y="972"/>
      <point x="383" y="907"/>
      <point x="295" y="798" type="curve"/>
      <point x="295" y="679" type="line"/>
      <point x="370" y="776"/>
      <point x="483" y="836"/>
      <point x="592" y="836" type="curve" smooth="yes"/>
      <point x="725" y="836"/>
      <point x="785" y="761"/>
      <point x="785" y="607" type="curve" smooth="yes"/>
      <point x="785" y="-419" type="line"/>
    </contour>
    <contour>
      <point x="330" y="0" type="line"/>
      <point x="330" y="722" type="line"/>
      <point x="329" y="748" type="line"/>
      <point x="322" y="834"/>
      <point x="307" y="907"/>
      <point x="288" y="946" type="curve"/>
      <point x="131" y="946" type="line"/>
      <point x="146" y="871"/>
      <point x="156" y="760"/>
      <point x="156" y="665" type="curve" smooth="yes"/>
      <point x="156" y="0" type="line"/>
    </contour>
  </outline>
</glyph>
<glyph name="Obar" format="2">
  <advance width="1463"/>
  <unicode hex="019F"/>
  <anchor x="725" y="0" name="bottom"/>
  <anchor x="733" y="1314" name="top"/>
  <anchor x="1423" y="1314" name="topright"/>
  <outline>
    <contour>
      <point x="717" y="-24" type="curve" smooth="yes"/>
      <point x="1105" y="-24"/>
      <point x="1353" y="247"/>
      <point x="1353" y="672" type="curve" smooth="yes"/>
      <point x="1353" y="1085"/>
      <point x="1119" y="1338"/>
      <point x="738" y="1338" type="curve" smooth="yes"/>
      <point x="350" y="1338"/>
      <point x="110" y="1076"/>
      <point x="110" y="652" type="curve" smooth="yes"/>
      <point x="110" y="233"/>
      <point x="341" y="-24"/>
    </contour>
    <contour>
      <point x="726" y="101" type="curve" smooth="yes"/>
      <point x="448" y="101"/>
      <point x="298" y="291"/>
      <point x="298" y="661" type="curve" smooth="yes"/>
      <point x="298" y="1030"/>
      <point x="446" y="1213"/>
      <point x="730" y="1213" type="curve" smooth="yes"/>
      <point x="1014" y="1213"/>
      <point x="1165" y="1030"/>
      <point x="1165" y="667" type="curve" smooth="yes"/>
      <point x="1165" y="296"/>
      <point x="1008" y="101"/>
    </contour>
    <contour>
      <point x="1192" y="605" type="line"/>
      <point x="1192" y="732" type="line"/>
      <point x="244" y="732" type="line"/>
      <point x="244" y="605" type="line"/>
    </contour>
  </outline>
</glyph>
<glyph name="UpsilonLatin" format="2">
  <advance width="1432"/>
  <unicode hex="01B1"/>
  <anchor x="708" y="0" name="bottom"/>
  <anchor x="708" y="1314" name="top"/>
  <anchor x="1452" y="1314" name="topright"/>
  <outline>
    <contour>
      <point x="714" y="-23" type="curve" smooth="yes"/>
      <point x="1094" y="-23"/>
      <point x="1318" y="239"/>
      <point x="1318" y="576" type="curve" smooth="yes"/>
      <point x="1318" y="823"/>
      <point x="1198" y="1032"/>
      <point x="1022" y="1170" type="curve"/>
      <point x="1022" y="1179" type="line"/>
      <point x="1276" y="1179" type="line"/>
      <point x="1294" y="1314" type="line"/>
      <point x="863" y="1314" type="line"/>
      <point x="863" y="1201" type="line"/>
      <point x="1032" y="1039"/>
      <point x="1128" y="828"/>
      <point x="1128" y="588" type="curve" smooth="yes"/>
      <point x="1128" y="289"/>
      <point x="979" y="101"/>
      <point x="721" y="101" type="curve" smooth="yes"/>
      <point x="470" y="101"/>
      <point x="304" y="278"/>
      <point x="304" y="588" type="curve" smooth="yes"/>
      <point x="304" y="827"/>
      <point x="402" y="1042"/>
      <point x="569" y="1201" type="curve"/>
      <point x="569" y="1314" type="line"/>
      <point x="141" y="1314" type="line"/>
      <point x="141" y="1179" type="line"/>
      <point x="415" y="1179" type="line"/>
      <point x="415" y="1170" type="line"/>
      <point x="238" y="1025"/>
      <point x="114" y="833"/>
      <point x="114" y="577" type="curve" smooth="yes"/>
      <point x="114" y="228"/>
      <point x="343" y="-23"/>
    </contour>
  </outline>
  <guideline angle="90" x="1318" y="0"/>
  <guideline angle="90" x="114" y="0"/>
  <guideline angle="261.933" x="1285" y="1251"/>
  <guideline angle="0" x="0" y="1201"/>
</glyph>
<glyph name="Vhook" format="2">
  <advance width="1288"/>
  <unicode hex="01B2"/>
  <anchor x="631" y="0" name="bottom"/>
  <anchor x="616" y="1314" name="top"/>
  <anchor x="1248" y="1314" name="topright"/>
  <outline>
    <contour>
      <point x="788" y="1297" type="line"/>
      <point x="931" y="1131"/>
      <point x="1032" y="906"/>
      <point x="1032" y="654" type="curve" smooth="yes"/>
      <point x="1032" y="341"/>
      <point x="895" y="101"/>
      <point x="648" y="101" type="curve" smooth="yes"/>
      <point x="434" y="101"/>
      <point x="331" y="237"/>
      <point x="331" y="527" type="curve" smooth="yes"/>
      <point x="331" y="1314" type="line"/>
      <point x="147" y="1314" type="line"/>
      <point x="147" y="514" type="line" smooth="yes"/>
      <point x="147" y="234"/>
      <point x="257" y="-24"/>
      <point x="626" y="-24" type="curve" smooth="yes"/>
      <point x="994" y="-24"/>
      <point x="1178" y="290"/>
      <point x="1178" y="686" type="curve" smooth="yes"/>
      <point x="1178" y="958"/>
      <point x="1086" y="1174"/>
      <point x="958" y="1333" type="curve"/>
      <point x="791" y="1304" type="line"/>
    </contour>
  </outline>
  <guideline angle="10.5208" x="905" y="1327"/>
</glyph>
<glyph name="clickalveolar" format="2">
  <advance width="597"/>
  <unicode hex="01C2"/>
  <anchor x="301" y="-418" name="bottom"/>
  <anchor x="296" y="1417" name="top"/>
  <anchor x="519" y="1417" name="topright"/>
  <outline>
    <contour>
      <point x="379" y="-419" type="line"/>
      <point x="379" y="1430" type="line"/>
      <point x="215" y="1402" type="line"/>
      <point x="215" y="-419" type="line"/>
    </contour>
    <contour>
      <point x="551" y="302" type="line"/>
      <point x="568" y="422" type="line"/>
      <point x="33" y="422" type="line"/>
      <point x="33" y="302" type="line"/>
    </contour>
    <contour>
      <point x="556" y="636" type="line"/>
      <point x="573" y="756" type="line"/>
      <point x="33" y="756" type="line"/>
      <point x="33" y="636" type="line"/>
    </contour>
  </outline>
  <guideline angle="261.933" x="607" y="996"/>
  <guideline angle="90" x="553" y="0"/>
  <guideline angle="0" x="0" y="602"/>
  <guideline angle="90" x="296" y="0"/>
</glyph>
<glyph name="Gbar" format="2">
  <advance width="1396"/>
  <unicode hex="01E4"/>
  <anchor x="735" y="0" name="bottom"/>
  <anchor x="743" y="1314" name="top"/>
  <anchor x="1346" y="1314" name="topright"/>
  <outline>
    <contour>
      <point x="776" y="-24" type="curve" smooth="yes"/>
      <point x="901" y="-24"/>
      <point x="1049" y="-2"/>
      <point x="1196" y="39" type="curve"/>
      <point x="1070" y="146" type="line"/>
      <point x="994" y="122"/>
      <point x="901" y="108"/>
      <point x="814" y="108" type="curve" smooth="yes"/>
      <point x="474" y="108"/>
      <point x="300" y="297"/>
      <point x="300" y="666" type="curve" smooth="yes"/>
      <point x="300" y="1026"/>
      <point x="467" y="1209"/>
      <point x="796" y="1209" type="curve" smooth="yes"/>
      <point x="927" y="1209"/>
      <point x="1045" y="1180"/>
      <point x="1164" y="1120" type="curve"/>
      <point x="1164" y="1254" type="line"/>
      <point x="1072" y="1309"/>
      <point x="944" y="1339"/>
      <point x="801" y="1339" type="curve" smooth="yes"/>
      <point x="370" y="1339"/>
      <point x="110" y="1081"/>
      <point x="110" y="645" type="curve" smooth="yes"/>
      <point x="110" y="216"/>
      <point x="357" y="-24"/>
    </contour>
    <contour>
      <point x="1196" y="39" type="line"/>
      <point x="1196" y="627" type="line"/>
      <point x="1019" y="627" type="line"/>
      <point x="1019" y="39" type="line"/>
    </contour>
    <contour>
      <point x="1357" y="328" type="line"/>
      <point x="1376" y="455" type="line"/>
      <point x="702" y="455" type="line"/>
      <point x="702" y="328" type="line"/>
    </contour>
  </outline>
  <guideline angle="82.0107" x="1426" y="675"/>
  <guideline angle="0" x="0" y="455"/>
</glyph>
<glyph name="gbar" format="2">
  <advance width="1037"/>
  <unicode hex="01E5"/>
  <anchor x="466" y="-419" name="bottom"/>
  <anchor x="518" y="946" name="top"/>
  <outline>
    <contour>
      <point x="460" y="-433" type="curve" smooth="yes"/>
      <point x="764" y="-433"/>
      <point x="966" y="-290"/>
      <point x="966" y="-76" type="curve" smooth="yes"/>
      <point x="966" y="79"/>
      <point x="860" y="156"/>
      <point x="637" y="156" type="curve" smooth="yes"/>
      <point x="375" y="156" type="line" smooth="yes"/>
      <point x="297" y="156"/>
      <point x="260" y="180"/>
      <point x="260" y="230" type="curve" smooth="yes"/>
      <point x="260" y="274"/>
      <point x="286" y="312"/>
      <point x="341" y="348" type="curve"/>
      <point x="252" y="377" type="line"/>
      <point x="166" y="323"/>
      <point x="119" y="255"/>
      <point x="119" y="183" type="curve" smooth="yes"/>
      <point x="119" y="77"/>
      <point x="216" y="8"/>
      <point x="368" y="8" type="curve" smooth="yes"/>
      <point x="599" y="8" type="line" smooth="yes"/>
      <point x="755" y="8"/>
      <point x="816" y="-24"/>
      <point x="816" y="-112" type="curve" smooth="yes"/>
      <point x="816" y="-239"/>
      <point x="679" y="-319"/>
      <point x="475" y="-319" type="curve" smooth="yes"/>
      <point x="300" y="-319"/>
      <point x="203" y="-260"/>
      <point x="203" y="-146" type="curve" smooth="yes"/>
      <point x="203" y="-77"/>
      <point x="239" y="-13"/>
      <point x="302" y="35" type="curve"/>
      <point x="211" y="69" type="line"/>
      <point x="105" y="-8"/>
      <point x="60" y="-79"/>
      <point x="60" y="-166" type="curve" smooth="yes"/>
      <point x="60" y="-332"/>
      <point x="208" y="-433"/>
    </contour>
    <contour>
      <point x="1051" y="-205" type="line"/>
      <point x="1067" y="-92" type="line"/>
      <point x="-34" y="-92" type="line"/>
      <point x="-34" y="-205" type="line"/>
    </contour>
    <contour>
      <point x="494" y="285" type="curve" smooth="yes"/>
      <point x="743" y="285"/>
      <point x="909" y="422"/>
      <point x="909" y="628" type="curve" smooth="yes"/>
      <point x="909" y="831"/>
      <point x="746" y="972"/>
      <point x="509" y="972" type="curve" smooth="yes"/>
      <point x="266" y="972"/>
      <point x="102" y="830"/>
      <point x="102" y="620" type="curve" smooth="yes"/>
      <point x="102" y="417"/>
      <point x="256" y="285"/>
    </contour>
    <contour>
      <point x="502" y="396" type="curve" smooth="yes"/>
      <point x="353" y="396"/>
      <point x="270" y="479"/>
      <point x="270" y="630" type="curve" smooth="yes"/>
      <point x="270" y="779"/>
      <point x="352" y="859"/>
      <point x="505" y="859" type="curve" smooth="yes"/>
      <point x="657" y="859"/>
      <point x="741" y="778"/>
      <point x="741" y="631" type="curve" smooth="yes"/>
      <point x="741" y="481"/>
      <point x="654" y="396"/>
    </contour>
    <contour>
      <point x="1014" y="832" type="line"/>
      <point x="1028" y="937" type="line"/>
      <point x="659" y="937" type="line"/>
      <point x="817" y="817" type="line"/>
    </contour>
  </outline>
  <guideline angle="261.933" x="1207" y="996"/>
</glyph>
<glyph name="Nlongright" format="2">
  <advance width="1325"/>
  <unicode hex="0220"/>
  <anchor x="665" y="1314" name="top"/>
  <anchor x="665" y="-419" name="bottom"/>
  <outline>
    <contour>
      <point x="160" y="1314" type="line"/>
      <point x="160" y="0" type="line"/>
      <point x="344" y="0" type="line"/>
      <point x="344" y="1314" type="line"/>
    </contour>
    <contour>
      <point x="1170" y="-419" type="line"/>
      <point x="1170" y="894" type="line" smooth="yes"/>
      <point x="1170" y="1209"/>
      <point x="1022" y="1338"/>
      <point x="786" y="1338" type="curve" smooth="yes"/>
      <point x="620" y="1338"/>
      <point x="450" y="1274"/>
      <point x="306" y="1088" type="curve"/>
      <point x="306" y="956" type="line"/>
      <point x="442" y="1123"/>
      <point x="604" y="1188"/>
      <point x="742" y="1188" type="curve" smooth="yes"/>
      <point x="904" y="1188"/>
      <point x="986" y="1101"/>
      <point x="986" y="883" type="curve" smooth="yes"/>
      <point x="986" y="-419" type="line"/>
    </contour>
  </outline>
  <guideline angle="90" x="665" y="0"/>
</glyph>
